Justfont-Huninn-Regular.ufo
<glyph name="numbersign" format="2">
	<advance width="598"/>
	<unicode hex="0023"/>
	<note>
		numbersign
	</note>
	<outline>
		<contour>
			<point x="155" y="-6" type="curve" smooth="yes"/>
			<point x="173" y="-6"/>
			<point x="188" y="8"/>
			<point x="190" y="23" type="curve" smooth="yes"/>
			<point x="215" y="177" type="line"/>
			<point x="337" y="177" type="line"/>
			<point x="319" y="66"/>
			<point x="313" y="32"/>
			<point x="313" y="29" type="curve" smooth="yes"/>
			<point x="313" y="9"/>
			<point x="330" y="-6"/>
			<point x="349" y="-6" type="curve" smooth="yes"/>
			<point x="366" y="-6"/>
			<point x="381" y="8"/>
			<point x="384" y="23" type="curve" smooth="yes"/>
			<point x="408" y="177" type="line"/>
			<point x="493" y="177" type="line" smooth="yes"/>
			<point x="512" y="177"/>
			<point x="528" y="193"/>
			<point x="528" y="212" type="curve" smooth="yes"/>
			<point x="528" y="230"/>
			<point x="512" y="247"/>
			<point x="493" y="247" type="curve" smooth="yes"/>
			<point x="419" y="247" type="line"/>
			<point x="442" y="394" type="line"/>
			<point x="527" y="394" type="line" smooth="yes"/>
			<point x="546" y="394"/>
			<point x="563" y="410"/>
			<point x="563" y="429" type="curve" smooth="yes"/>
			<point x="563" y="447"/>
			<point x="546" y="464"/>
			<point x="527" y="464" type="curve" smooth="yes"/>
			<point x="453" y="464" type="line"/>
			<point x="470" y="562"/>
			<point x="477" y="605"/>
			<point x="477" y="610" type="curve" smooth="yes"/>
			<point x="477" y="630"/>
			<point x="463" y="646"/>
			<point x="441" y="646" type="curve" smooth="yes"/>
			<point x="423" y="646"/>
			<point x="409" y="634"/>
			<point x="406" y="617" type="curve" smooth="yes"/>
			<point x="382" y="464" type="line"/>
			<point x="260" y="464" type="line"/>
			<point x="276" y="562"/>
			<point x="283" y="605"/>
			<point x="283" y="610" type="curve" smooth="yes"/>
			<point x="283" y="630"/>
			<point x="270" y="646"/>
			<point x="248" y="646" type="curve" smooth="yes"/>
			<point x="229" y="646"/>
			<point x="216" y="634"/>
			<point x="213" y="617" type="curve" smooth="yes"/>
			<point x="188" y="464" type="line"/>
			<point x="104" y="464" type="line" smooth="yes"/>
			<point x="85" y="464"/>
			<point x="68" y="447"/>
			<point x="68" y="429" type="curve" smooth="yes"/>
			<point x="68" y="410"/>
			<point x="85" y="394"/>
			<point x="104" y="394" type="curve" smooth="yes"/>
			<point x="178" y="394" type="line"/>
			<point x="154" y="247" type="line"/>
			<point x="69" y="247" type="line" smooth="yes"/>
			<point x="51" y="247"/>
			<point x="34" y="230"/>
			<point x="34" y="212" type="curve" smooth="yes"/>
			<point x="34" y="193"/>
			<point x="51" y="177"/>
			<point x="69" y="177" type="curve" smooth="yes"/>
			<point x="144" y="177" type="line"/>
			<point x="126" y="66"/>
			<point x="120" y="32"/>
			<point x="120" y="29" type="curve" smooth="yes"/>
			<point x="120" y="9"/>
			<point x="137" y="-6"/>
		</contour>
		<contour>
			<point x="226" y="247" type="line"/>
			<point x="249" y="394" type="line"/>
			<point x="371" y="394" type="line"/>
			<point x="348" y="247" type="line"/>
		</contour>
	</outline>
</glyph>
<glyph name="dollar" format="2">
	<advance width="602"/>
	<unicode hex="0024"/>
	<note>
		dollar
	</note>
	<outline>
		<contour>
			<point x="304" y="-108" type="curve" smooth="yes"/>
			<point x="322" y="-108"/>
			<point x="335" y="-95"/>
			<point x="335" y="-78" type="curve" smooth="yes"/>
			<point x="335" y="-10" type="line"/>
			<point x="423" y="-5"/>
			<point x="495" y="29"/>
			<point x="533" y="86" type="curve" smooth="yes"/>
			<point x="552" y="115"/>
			<point x="561" y="146"/>
			<point x="561" y="181" type="curve" smooth="yes"/>
			<point x="561" y="266"/>
			<point x="514" y="315"/>
			<point x="451" y="342" type="curve" smooth="yes"/>
			<point x="421" y="354"/>
			<point x="382" y="367"/>
			<point x="335" y="378" type="curve"/>
			<point x="335" y="608" type="line"/>
			<point x="386" y="606"/>
			<point x="434" y="598"/>
			<point x="477" y="582" type="curve" smooth="yes"/>
			<point x="483" y="579"/>
			<point x="488" y="578"/>
			<point x="492" y="578" type="curve" smooth="yes"/>
			<point x="516" y="578"/>
			<point x="532" y="600"/>
			<point x="532" y="620" type="curve" smooth="yes"/>
			<point x="532" y="641"/>
			<point x="522" y="653"/>
			<point x="504" y="660" type="curve" smooth="yes"/>
			<point x="455" y="679"/>
			<point x="398" y="689"/>
			<point x="335" y="692" type="curve"/>
			<point x="335" y="759" type="line" smooth="yes"/>
			<point x="335" y="775"/>
			<point x="320" y="790"/>
			<point x="304" y="790" type="curve" smooth="yes"/>
			<point x="286" y="790"/>
			<point x="273" y="775"/>
			<point x="273" y="759" type="curve" smooth="yes"/>
			<point x="273" y="691" type="line"/>
			<point x="186" y="684"/>
			<point x="116" y="646"/>
			<point x="81" y="586" type="curve" smooth="yes"/>
			<point x="63" y="556"/>
			<point x="56" y="524"/>
			<point x="56" y="491" type="curve" smooth="yes"/>
			<point x="56" y="422"/>
			<point x="93" y="368"/>
			<point x="163" y="337" type="curve" smooth="yes"/>
			<point x="192" y="323"/>
			<point x="229" y="311"/>
			<point x="273" y="299" type="curve"/>
			<point x="273" y="76" type="line"/>
			<point x="215" y="79"/>
			<point x="159" y="93"/>
			<point x="108" y="115" type="curve"/>
			<point x="103" y="118"/>
			<point x="97" y="119"/>
			<point x="90" y="119" type="curve" smooth="yes"/>
			<point x="66" y="119"/>
			<point x="49" y="101"/>
			<point x="49" y="77" type="curve" smooth="yes"/>
			<point x="49" y="60"/>
			<point x="62" y="43"/>
			<point x="77" y="36" type="curve" smooth="yes"/>
			<point x="138" y="11"/>
			<point x="202" y="-5"/>
			<point x="273" y="-10" type="curve"/>
			<point x="273" y="-78" type="line" smooth="yes"/>
			<point x="273" y="-97"/>
			<point x="287" y="-108"/>
		</contour>
		<contour>
			<point x="335" y="76" type="curve"/>
			<point x="335" y="284" type="line"/>
			<point x="425" y="260"/>
			<point x="471" y="236"/>
			<point x="471" y="187" type="curve" smooth="yes"/>
			<point x="471" y="120"/>
			<point x="427" y="83"/>
		</contour>
		<contour>
			<point x="273" y="393" type="line"/>
			<point x="189" y="415"/>
			<point x="146" y="441"/>
			<point x="146" y="498" type="curve" smooth="yes"/>
			<point x="146" y="554"/>
			<point x="192" y="594"/>
			<point x="273" y="605" type="curve"/>
		</contour>
	</outline>
</glyph>
<glyph name="ampersand" format="2">
	<advance width="715"/>
	<unicode hex="0026"/>
	<note>
		ampersand
	</note>
	<outline>
		<contour>
			<point x="309" y="-11" type="curve" smooth="yes"/>
			<point x="384" y="-11"/>
			<point x="453" y="19"/>
			<point x="509" y="65" type="curve"/>
			<point x="573" y="3" type="line" smooth="yes"/>
			<point x="582" y="-5"/>
			<point x="592" y="-9"/>
			<point x="604" y="-9" type="curve" smooth="yes"/>
			<point x="629" y="-9"/>
			<point x="646" y="10"/>
			<point x="646" y="32" type="curve" smooth="yes"/>
			<point x="646" y="47"/>
			<point x="641" y="55"/>
			<point x="630" y="64" type="curve" smooth="yes"/>
			<point x="564" y="126" type="line"/>
			<point x="583" y="151"/>
			<point x="599" y="178"/>
			<point x="611" y="206" type="curve" smooth="yes"/>
			<point x="614" y="213"/>
			<point x="616" y="219"/>
			<point x="616" y="226" type="curve" smooth="yes"/>
			<point x="616" y="250"/>
			<point x="598" y="267"/>
			<point x="574" y="267" type="curve" smooth="yes"/>
			<point x="557" y="267"/>
			<point x="542" y="256"/>
			<point x="535" y="241" type="curve" smooth="yes"/>
			<point x="522" y="216"/>
			<point x="513" y="196"/>
			<point x="504" y="184" type="curve"/>
			<point x="301" y="375" type="line" smooth="yes"/>
			<point x="245" y="427"/>
			<point x="225" y="448"/>
			<point x="213" y="476" type="curve" smooth="yes"/>
			<point x="206" y="490"/>
			<point x="203" y="507"/>
			<point x="203" y="525" type="curve" smooth="yes"/>
			<point x="203" y="573"/>
			<point x="241" y="614"/>
			<point x="307" y="614" type="curve" smooth="yes"/>
			<point x="335" y="614"/>
			<point x="365" y="606"/>
			<point x="398" y="589" type="curve" smooth="yes"/>
			<point x="405" y="586"/>
			<point x="411" y="584"/>
			<point x="416" y="584" type="curve" smooth="yes"/>
			<point x="437" y="584"/>
			<point x="451" y="601"/>
			<point x="451" y="619" type="curve" smooth="yes"/>
			<point x="451" y="631"/>
			<point x="442" y="645"/>
			<point x="434" y="649" type="curve"/>
			<point x="390" y="678"/>
			<point x="347" y="692"/>
			<point x="303" y="692" type="curve" smooth="yes"/>
			<point x="229" y="692"/>
			<point x="171" y="659"/>
			<point x="142" y="606" type="curve" smooth="yes"/>
			<point x="127" y="580"/>
			<point x="119" y="552"/>
			<point x="119" y="521" type="curve" smooth="yes"/>
			<point x="119" y="465"/>
			<point x="140" y="426"/>
			<point x="179" y="379" type="curve"/>
			<point x="124" y="344"/>
			<point x="68" y="280"/>
			<point x="68" y="191" type="curve" smooth="yes"/>
			<point x="68" y="122"/>
			<point x="101" y="57"/>
			<point x="173" y="19" type="curve" smooth="yes"/>
			<point x="209" y="-1"/>
			<point x="254" y="-11"/>
		</contour>
		<contour>
			<point x="301" y="66" type="curve" smooth="yes"/>
			<point x="217" y="66"/>
			<point x="154" y="119"/>
			<point x="154" y="188" type="curve" smooth="yes"/>
			<point x="154" y="249"/>
			<point x="189" y="295"/>
			<point x="233" y="323" type="curve"/>
			<point x="449" y="120" type="line"/>
			<point x="404" y="84"/>
			<point x="354" y="66"/>
		</contour>
	</outline>
</glyph>
<glyph name="asterisk" format="2">
	<advance width="407"/>
	<unicode hex="002A"/>
	<note>
		asterisk
	</note>
	<outline>
		<contour>
			<point x="203" y="374" type="curve" smooth="yes"/>
			<point x="219" y="374"/>
			<point x="233" y="387"/>
			<point x="233" y="403" type="curve" smooth="yes"/>
			<point x="233" y="406"/>
			<point x="229" y="439"/>
			<point x="218" y="505" type="curve"/>
			<point x="226" y="499"/>
			<point x="232" y="493"/>
			<point x="238" y="488" type="curve" smooth="yes"/>
			<point x="286" y="449"/>
			<point x="296" y="441"/>
			<point x="299" y="440" type="curve" smooth="yes"/>
			<point x="303" y="438"/>
			<point x="308" y="438"/>
			<point x="312" y="438" type="curve" smooth="yes"/>
			<point x="323" y="438"/>
			<point x="332" y="443"/>
			<point x="339" y="452" type="curve"/>
			<point x="342" y="458"/>
			<point x="343" y="463"/>
			<point x="343" y="468" type="curve" smooth="yes"/>
			<point x="343" y="479"/>
			<point x="338" y="487"/>
			<point x="328" y="493" type="curve"/>
			<point x="233" y="530" type="line"/>
			<point x="328" y="567" type="line"/>
			<point x="337" y="573"/>
			<point x="343" y="582"/>
			<point x="343" y="594" type="curve" smooth="yes"/>
			<point x="343" y="599"/>
			<point x="342" y="604"/>
			<point x="339" y="609" type="curve" smooth="yes"/>
			<point x="332" y="619"/>
			<point x="324" y="624"/>
			<point x="313" y="624" type="curve" smooth="yes"/>
			<point x="307" y="624"/>
			<point x="302" y="623"/>
			<point x="298" y="620" type="curve" smooth="yes"/>
			<point x="296" y="619"/>
			<point x="286" y="611"/>
			<point x="238" y="572" type="curve" smooth="yes"/>
			<point x="232" y="567"/>
			<point x="226" y="562"/>
			<point x="218" y="556" type="curve"/>
			<point x="229" y="621"/>
			<point x="233" y="654"/>
			<point x="233" y="657" type="curve" smooth="yes"/>
			<point x="233" y="674"/>
			<point x="219" y="687"/>
			<point x="203" y="687" type="curve" smooth="yes"/>
			<point x="188" y="687"/>
			<point x="173" y="674"/>
			<point x="173" y="657" type="curve" smooth="yes"/>
			<point x="173" y="654"/>
			<point x="178" y="621"/>
			<point x="188" y="556" type="curve"/>
			<point x="181" y="562"/>
			<point x="174" y="567"/>
			<point x="168" y="572" type="curve" smooth="yes"/>
			<point x="120" y="611"/>
			<point x="110" y="619"/>
			<point x="107" y="620" type="curve"/>
			<point x="104" y="622"/>
			<point x="100" y="624"/>
			<point x="94" y="624" type="curve" smooth="yes"/>
			<point x="82" y="624"/>
			<point x="74" y="619"/>
			<point x="67" y="609" type="curve" smooth="yes"/>
			<point x="64" y="604"/>
			<point x="63" y="599"/>
			<point x="63" y="593" type="curve" smooth="yes"/>
			<point x="63" y="582"/>
			<point x="68" y="573"/>
			<point x="78" y="567" type="curve"/>
			<point x="173" y="530" type="line"/>
			<point x="78" y="493" type="line"/>
			<point x="67" y="487"/>
			<point x="63" y="479"/>
			<point x="63" y="469" type="curve" smooth="yes"/>
			<point x="63" y="463"/>
			<point x="64" y="458"/>
			<point x="67" y="452" type="curve"/>
			<point x="74" y="443"/>
			<point x="83" y="438"/>
			<point x="95" y="438" type="curve" smooth="yes"/>
			<point x="99" y="438"/>
			<point x="104" y="438"/>
			<point x="107" y="440" type="curve"/>
			<point x="110" y="441"/>
			<point x="120" y="449"/>
			<point x="168" y="488" type="curve" smooth="yes"/>
			<point x="188" y="505" type="line"/>
			<point x="178" y="439"/>
			<point x="173" y="406"/>
			<point x="173" y="403" type="curve" smooth="yes"/>
			<point x="173" y="387"/>
			<point x="188" y="374"/>
		</contour>
	</outline>
</glyph>
<glyph name="zero" format="2">
	<advance width="613"/>
	<unicode hex="0030"/>
	<note>
		zero
	</note>
	<outline>
		<contour>
			<point x="307" y="-11" type="curve" smooth="yes"/>
			<point x="475" y="-11"/>
			<point x="572" y="120"/>
			<point x="572" y="341" type="curve" smooth="yes"/>
			<point x="572" y="562"/>
			<point x="475" y="692"/>
			<point x="307" y="692" type="curve" smooth="yes"/>
			<point x="134" y="692"/>
			<point x="41" y="556"/>
			<point x="41" y="341" type="curve" smooth="yes"/>
			<point x="41" y="126"/>
			<point x="134" y="-11"/>
		</contour>
		<contour>
			<point x="307" y="73" type="curve" smooth="yes"/>
			<point x="196" y="73"/>
			<point x="132" y="170"/>
			<point x="132" y="341" type="curve" smooth="yes"/>
			<point x="132" y="511"/>
			<point x="196" y="607"/>
			<point x="307" y="607" type="curve" smooth="yes"/>
			<point x="417" y="607"/>
			<point x="481" y="511"/>
			<point x="481" y="341" type="curve" smooth="yes"/>
			<point x="481" y="170"/>
			<point x="417" y="73"/>
		</contour>
	</outline>
</glyph>
<glyph name="one" format="2">
	<advance width="613"/>
	<unicode hex="0031"/>
	<note>
		one
	</note>
	<outline>
		<contour>
			<point x="173" y="-1" type="curve" smooth="yes"/>
			<point x="475" y="-1" type="line" smooth="yes"/>
			<point x="498" y="-1"/>
			<point x="518" y="17"/>
			<point x="518" y="41" type="curve" smooth="yes"/>
			<point x="518" y="64"/>
			<point x="498" y="84"/>
			<point x="475" y="84" type="curve" smooth="yes"/>
			<point x="379" y="84" type="line"/>
			<point x="379" y="635" type="line" smooth="yes"/>
			<point x="379" y="661"/>
			<point x="357" y="683"/>
			<point x="331" y="683" type="curve" smooth="yes"/>
			<point x="311" y="683" type="line" smooth="yes"/>
			<point x="302" y="683"/>
			<point x="291" y="681"/>
			<point x="283" y="676" type="curve" smooth="yes"/>
			<point x="150" y="606" type="line" smooth="yes"/>
			<point x="133" y="598"/>
			<point x="124" y="584"/>
			<point x="124" y="565" type="curve" smooth="yes"/>
			<point x="124" y="541"/>
			<point x="143" y="522"/>
			<point x="167" y="522" type="curve" smooth="yes"/>
			<point x="173" y="522"/>
			<point x="181" y="524"/>
			<point x="189" y="528" type="curve" smooth="yes"/>
			<point x="274" y="569" type="line" smooth="yes"/>
			<point x="283" y="574"/>
			<point x="288" y="570"/>
			<point x="288" y="562" type="curve" smooth="yes"/>
			<point x="288" y="84" type="line"/>
			<point x="173" y="84" type="line" smooth="yes"/>
			<point x="148" y="84"/>
			<point x="131" y="64"/>
			<point x="131" y="41" type="curve" smooth="yes"/>
			<point x="131" y="18"/>
			<point x="149" y="-1"/>
		</contour>
	</outline>
</glyph>
<glyph name="six" format="2">
	<advance width="613"/>
	<unicode hex="0036"/>
	<note>
		six
	</note>
	<outline>
		<contour>
			<point x="325" y="-11" type="curve" smooth="yes"/>
			<point x="419" y="-11"/>
			<point x="497" y="28"/>
			<point x="538" y="100" type="curve" smooth="yes"/>
			<point x="558" y="134"/>
			<point x="567" y="172"/>
			<point x="567" y="212" type="curve" smooth="yes"/>
			<point x="567" y="302"/>
			<point x="529" y="374"/>
			<point x="460" y="414" type="curve" smooth="yes"/>
			<point x="425" y="434"/>
			<point x="386" y="442"/>
			<point x="343" y="442" type="curve" smooth="yes"/>
			<point x="256" y="442"/>
			<point x="189" y="414"/>
			<point x="144" y="359" type="curve"/>
			<point x="151" y="485"/>
			<point x="202" y="604"/>
			<point x="348" y="604" type="curve" smooth="yes"/>
			<point x="394" y="604"/>
			<point x="438" y="595"/>
			<point x="478" y="576" type="curve" smooth="yes"/>
			<point x="482" y="574"/>
			<point x="488" y="573"/>
			<point x="494" y="573" type="curve" smooth="yes"/>
			<point x="518" y="573"/>
			<point x="535" y="594"/>
			<point x="535" y="614" type="curve" smooth="yes"/>
			<point x="535" y="629"/>
			<point x="526" y="644"/>
			<point x="514" y="650" type="curve" smooth="yes"/>
			<point x="466" y="675"/>
			<point x="414" y="692"/>
			<point x="341" y="692" type="curve" smooth="yes"/>
			<point x="207" y="692"/>
			<point x="122" y="612"/>
			<point x="85" y="505" type="curve" smooth="yes"/>
			<point x="66" y="451"/>
			<point x="57" y="396"/>
			<point x="57" y="340" type="curve" smooth="yes"/>
			<point x="57" y="106"/>
			<point x="146" y="-11"/>
		</contour>
		<contour>
			<point x="326" y="74" type="curve" smooth="yes"/>
			<point x="226" y="74"/>
			<point x="166" y="133"/>
			<point x="148" y="253" type="curve"/>
			<point x="187" y="323"/>
			<point x="247" y="359"/>
			<point x="332" y="359" type="curve" smooth="yes"/>
			<point x="424" y="359"/>
			<point x="477" y="305"/>
			<point x="477" y="214" type="curve" smooth="yes"/>
			<point x="477" y="163"/>
			<point x="451" y="119"/>
			<point x="406" y="94" type="curve" smooth="yes"/>
			<point x="383" y="81"/>
			<point x="356" y="74"/>
		</contour>
	</outline>
</glyph>
<glyph name="eight" format="2">
	<advance width="613"/>
	<unicode hex="0038"/>
	<note>
		eight
	</note>
	<outline>
		<contour>
			<point x="307" y="-11" type="curve" smooth="yes"/>
			<point x="429" y="-11"/>
			<point x="507" y="31"/>
			<point x="542" y="89" type="curve" smooth="yes"/>
			<point x="560" y="117"/>
			<point x="568" y="147"/>
			<point x="568" y="181" type="curve" smooth="yes"/>
			<point x="568" y="271"/>
			<point x="520" y="333"/>
			<point x="425" y="365" type="curve"/>
			<point x="490" y="389"/>
			<point x="536" y="439"/>
			<point x="536" y="514" type="curve" smooth="yes"/>
			<point x="536" y="569"/>
			<point x="508" y="630"/>
			<point x="438" y="666" type="curve" smooth="yes"/>
			<point x="404" y="684"/>
			<point x="360" y="692"/>
			<point x="307" y="692" type="curve" smooth="yes"/>
			<point x="200" y="692"/>
			<point x="131" y="652"/>
			<point x="101" y="597" type="curve" smooth="yes"/>
			<point x="85" y="570"/>
			<point x="77" y="543"/>
			<point x="77" y="514" type="curve" smooth="yes"/>
			<point x="77" y="439"/>
			<point x="123" y="389"/>
			<point x="188" y="365" type="curve"/>
			<point x="94" y="333"/>
			<point x="45" y="271"/>
			<point x="45" y="181" type="curve" smooth="yes"/>
			<point x="45" y="117"/>
			<point x="78" y="56"/>
			<point x="157" y="18" type="curve" smooth="yes"/>
			<point x="195" y="-1"/>
			<point x="245" y="-11"/>
		</contour>
		<contour>
			<point x="307" y="69" type="curve" smooth="yes"/>
			<point x="226" y="69"/>
			<point x="176" y="100"/>
			<point x="153" y="138" type="curve" smooth="yes"/>
			<point x="142" y="156"/>
			<point x="136" y="174"/>
			<point x="136" y="190" type="curve" smooth="yes"/>
			<point x="136" y="272"/>
			<point x="210" y="321"/>
			<point x="307" y="321" type="curve" smooth="yes"/>
			<point x="403" y="321"/>
			<point x="478" y="272"/>
			<point x="478" y="190" type="curve" smooth="yes"/>
			<point x="478" y="156"/>
			<point x="456" y="116"/>
			<point x="406" y="90" type="curve" smooth="yes"/>
			<point x="380" y="76"/>
			<point x="347" y="69"/>
		</contour>
		<contour>
			<point x="307" y="403" type="curve" smooth="yes"/>
			<point x="210" y="403"/>
			<point x="168" y="453"/>
			<point x="168" y="508" type="curve" smooth="yes"/>
			<point x="168" y="572"/>
			<point x="221" y="612"/>
			<point x="307" y="612" type="curve" smooth="yes"/>
			<point x="393" y="612"/>
			<point x="445" y="572"/>
			<point x="445" y="508" type="curve" smooth="yes"/>
			<point x="445" y="453"/>
			<point x="403" y="403"/>
		</contour>
	</outline>
</glyph>
<glyph name="D" format="2">
	<advance width="733"/>
	<unicode hex="0044"/>
	<anchor x="361" y="684" name="top"/>
	<note>
		D
	</note>
	<outline>
		<contour>
			<point x="139" y="-1" type="curve" smooth="yes"/>
			<point x="335" y="-1" type="line" smooth="yes"/>
			<point x="483" y="-1"/>
			<point x="590" y="71"/>
			<point x="642" y="177" type="curve" smooth="yes"/>
			<point x="668" y="229"/>
			<point x="681" y="283"/>
			<point x="681" y="341" type="curve" smooth="yes"/>
			<point x="681" y="455"/>
			<point x="629" y="567"/>
			<point x="525" y="634" type="curve" smooth="yes"/>
			<point x="473" y="666"/>
			<point x="408" y="683"/>
			<point x="335" y="683" type="curve" smooth="yes"/>
			<point x="139" y="683" type="line" smooth="yes"/>
			<point x="113" y="683"/>
			<point x="94" y="661"/>
			<point x="94" y="637" type="curve" smooth="yes"/>
			<point x="94" y="44" type="line" smooth="yes"/>
			<point x="94" y="20"/>
			<point x="114" y="-1"/>
		</contour>
		<contour>
			<point x="196" y="84" type="line" smooth="yes"/>
			<point x="188" y="84"/>
			<point x="185" y="88"/>
			<point x="185" y="96" type="curve" smooth="yes"/>
			<point x="185" y="586" type="line" smooth="yes"/>
			<point x="185" y="594"/>
			<point x="188" y="598"/>
			<point x="196" y="598" type="curve" smooth="yes"/>
			<point x="324" y="598" type="line" smooth="yes"/>
			<point x="430" y="598"/>
			<point x="514" y="553"/>
			<point x="558" y="476" type="curve" smooth="yes"/>
			<point x="579" y="438"/>
			<point x="591" y="393"/>
			<point x="591" y="341" type="curve" smooth="yes"/>
			<point x="591" y="239"/>
			<point x="545" y="160"/>
			<point x="465" y="117" type="curve" smooth="yes"/>
			<point x="426" y="96"/>
			<point x="379" y="84"/>
			<point x="324" y="84" type="curve" smooth="yes"/>
		</contour>
	</outline>
</glyph>
<glyph name="F" format="2">
	<advance width="594"/>
	<unicode hex="0046"/>
	<note>
		F
	</note>
	<outline>
		<contour>
			<point x="139" y="-6" type="curve" smooth="yes"/>
			<point x="163" y="-6"/>
			<point x="185" y="14"/>
			<point x="185" y="39" type="curve" smooth="yes"/>
			<point x="185" y="299" type="line"/>
			<point x="484" y="299" type="line" smooth="yes"/>
			<point x="508" y="299"/>
			<point x="527" y="316"/>
			<point x="527" y="341" type="curve" smooth="yes"/>
			<point x="527" y="364"/>
			<point x="508" y="384"/>
			<point x="484" y="384" type="curve" smooth="yes"/>
			<point x="185" y="384" type="line"/>
			<point x="185" y="586" type="line" smooth="yes"/>
			<point x="185" y="594"/>
			<point x="188" y="598"/>
			<point x="196" y="598" type="curve" smooth="yes"/>
			<point x="519" y="598" type="line" smooth="yes"/>
			<point x="542" y="598"/>
			<point x="562" y="615"/>
			<point x="562" y="640" type="curve" smooth="yes"/>
			<point x="562" y="663"/>
			<point x="542" y="683"/>
			<point x="519" y="683" type="curve" smooth="yes"/>
			<point x="139" y="683" type="line" smooth="yes"/>
			<point x="113" y="683"/>
			<point x="94" y="661"/>
			<point x="94" y="637" type="curve" smooth="yes"/>
			<point x="94" y="39" type="line" smooth="yes"/>
			<point x="94" y="15"/>
			<point x="114" y="-6"/>
		</contour>
	</outline>
</glyph>
<glyph name="bracketright" format="2">
	<advance width="314"/>
	<unicode hex="005D"/>
	<note>
		bracketright
	</note>
	<outline>
		<contour>
			<point x="63" y="-130" type="curve" smooth="yes"/>
			<point x="187" y="-130" type="line" smooth="yes"/>
			<point x="210" y="-130"/>
			<point x="230" y="-109"/>
			<point x="230" y="-86" type="curve" smooth="yes"/>
			<point x="230" y="672" type="line" smooth="yes"/>
			<point x="230" y="695"/>
			<point x="210" y="716"/>
			<point x="187" y="716" type="curve" smooth="yes"/>
			<point x="63" y="716" type="line" smooth="yes"/>
			<point x="43" y="716"/>
			<point x="26" y="699"/>
			<point x="26" y="680" type="curve" smooth="yes"/>
			<point x="26" y="660"/>
			<point x="43" y="644"/>
			<point x="63" y="644" type="curve" smooth="yes"/>
			<point x="140" y="644" type="line" smooth="yes"/>
			<point x="147" y="644"/>
			<point x="151" y="640"/>
			<point x="151" y="632" type="curve" smooth="yes"/>
			<point x="151" y="-47" type="line" smooth="yes"/>
			<point x="151" y="-55"/>
			<point x="147" y="-59"/>
			<point x="140" y="-59" type="curve" smooth="yes"/>
			<point x="63" y="-59" type="line" smooth="yes"/>
			<point x="43" y="-59"/>
			<point x="26" y="-75"/>
			<point x="26" y="-94" type="curve" smooth="yes"/>
			<point x="26" y="-112"/>
			<point x="42" y="-130"/>
		</contour>
	</outline>
</glyph>
<glyph name="asciicircum" format="2">
	<advance width="512"/>
	<unicode hex="005E"/>
	<note>
		asciicircum
	</note>
	<outline>
		<contour>
			<point x="115" y="404" type="curve" smooth="yes"/>
			<point x="125" y="404"/>
			<point x="136" y="407"/>
			<point x="142" y="415" type="curve" smooth="yes"/>
			<point x="151" y="427"/>
			<point x="176" y="470"/>
			<point x="247" y="586" type="curve" smooth="yes"/>
			<point x="252" y="595"/>
			<point x="259" y="594"/>
			<point x="264" y="585" type="curve" smooth="yes"/>
			<point x="286" y="549"/>
			<point x="357" y="425"/>
			<point x="366" y="417" type="curve" smooth="yes"/>
			<point x="373" y="410"/>
			<point x="381" y="404"/>
			<point x="395" y="404" type="curve" smooth="yes"/>
			<point x="414" y="404"/>
			<point x="431" y="421"/>
			<point x="431" y="440" type="curve" smooth="yes"/>
			<point x="431" y="444"/>
			<point x="429" y="450"/>
			<point x="425" y="458" type="curve" smooth="yes"/>
			<point x="322" y="652" type="line" smooth="yes"/>
			<point x="311" y="674"/>
			<point x="297" y="687"/>
			<point x="273" y="687" type="curve" smooth="yes"/>
			<point x="236" y="687" type="line" smooth="yes"/>
			<point x="213" y="687"/>
			<point x="199" y="674"/>
			<point x="188" y="652" type="curve" smooth="yes"/>
			<point x="85" y="458" type="line" smooth="yes"/>
			<point x="81" y="450"/>
			<point x="79" y="444"/>
			<point x="79" y="440" type="curve" smooth="yes"/>
			<point x="79" y="421"/>
			<point x="96" y="404"/>
		</contour>
	</outline>
</glyph>
<glyph name="d" format="2">
	<advance width="616"/>
	<unicode hex="0064"/>
	<anchor x="283" y="0" name="bottom"/>
	<anchor x="288" y="0" name="odot"/>
	<note>
		d
	</note>
	<outline>
		<contour>
			<point x="283" y="-11" type="curve" smooth="yes"/>
			<point x="347" y="-11"/>
			<point x="402" y="14"/>
			<point x="449" y="63" type="curve"/>
			<point x="449" y="39" type="line" smooth="yes"/>
			<point x="449" y="14"/>
			<point x="471" y="-6"/>
			<point x="495" y="-6" type="curve" smooth="yes"/>
			<point x="520" y="-6"/>
			<point x="540" y="15"/>
			<point x="540" y="39" type="curve" smooth="yes"/>
			<point x="540" y="673" type="line" smooth="yes"/>
			<point x="540" y="697"/>
			<point x="521" y="719"/>
			<point x="495" y="719" type="curve" smooth="yes"/>
			<point x="471" y="719"/>
			<point x="449" y="699"/>
			<point x="449" y="673" type="curve" smooth="yes"/>
			<point x="449" y="436" type="line"/>
			<point x="402" y="484"/>
			<point x="347" y="509"/>
			<point x="283" y="509" type="curve" smooth="yes"/>
			<point x="202" y="509"/>
			<point x="125" y="467"/>
			<point x="80" y="388" type="curve" smooth="yes"/>
			<point x="57" y="347"/>
			<point x="46" y="301"/>
			<point x="46" y="249" type="curve" smooth="yes"/>
			<point x="46" y="144"/>
			<point x="96" y="62"/>
			<point x="169" y="21" type="curve" smooth="yes"/>
			<point x="205" y="0"/>
			<point x="243" y="-11"/>
		</contour>
		<contour>
			<point x="296" y="74" type="curve" smooth="yes"/>
			<point x="197" y="74"/>
			<point x="137" y="140"/>
			<point x="137" y="249" type="curve" smooth="yes"/>
			<point x="137" y="358"/>
			<point x="197" y="424"/>
			<point x="296" y="424" type="curve" smooth="yes"/>
			<point x="355" y="424"/>
			<point x="409" y="395"/>
			<point x="449" y="352" type="curve"/>
			<point x="449" y="146" type="line"/>
			<point x="409" y="104"/>
			<point x="355" y="74"/>
		</contour>
	</outline>
</glyph>
<glyph name="j" format="2">
	<advance width="248"/>
	<unicode hex="006A"/>
	<anchor x="255" y="464" name="odot"/>
	<note>
		j
	</note>
	<outline>
		<contour>
			<point x="43" y="-235" type="curve" smooth="yes"/>
			<point x="127" y="-235"/>
			<point x="172" y="-188"/>
			<point x="172" y="-101" type="curve" smooth="yes"/>
			<point x="172" y="457" type="line" smooth="yes"/>
			<point x="172" y="483"/>
			<point x="152" y="503"/>
			<point x="126" y="503" type="curve" smooth="yes"/>
			<point x="101" y="503"/>
			<point x="81" y="481"/>
			<point x="81" y="457" type="curve" smooth="yes"/>
			<point x="81" y="-99" type="line" smooth="yes"/>
			<point x="81" y="-146"/>
			<point x="63" y="-155"/>
			<point x="22" y="-155" type="curve" smooth="yes"/>
			<point x="19" y="-155"/>
			<point x="14" y="-155"/>
			<point x="8" y="-154" type="curve" smooth="yes"/>
			<point x="5" y="-154" type="line" smooth="yes"/>
			<point x="0" y="-153"/>
			<point x="-4" y="-152"/>
			<point x="-7" y="-152" type="curve" smooth="yes"/>
			<point x="-28" y="-152"/>
			<point x="-45" y="-171"/>
			<point x="-45" y="-190" type="curve" smooth="yes"/>
			<point x="-45" y="-207"/>
			<point x="-35" y="-222"/>
			<point x="-19" y="-227" type="curve" smooth="yes"/>
			<point x="-1" y="-232"/>
			<point x="20" y="-235"/>
		</contour>
		<contour>
			<point x="124" y="599" type="curve" smooth="yes"/>
			<point x="130" y="599" type="line" smooth="yes"/>
			<point x="157" y="599"/>
			<point x="181" y="622"/>
			<point x="181" y="649" type="curve" smooth="yes"/>
			<point x="181" y="653" type="line" smooth="yes"/>
			<point x="181" y="681"/>
			<point x="157" y="704"/>
			<point x="130" y="704" type="curve" smooth="yes"/>
			<point x="124" y="704" type="line" smooth="yes"/>
			<point x="97" y="704"/>
			<point x="73" y="681"/>
			<point x="73" y="653" type="curve" smooth="yes"/>
			<point x="73" y="649" type="line" smooth="yes"/>
			<point x="73" y="622"/>
			<point x="97" y="599"/>
		</contour>
	</outline>
</glyph>
<glyph name="asciitilde" format="2">
	<advance width="623"/>
	<unicode hex="007E"/>
	<note>
		asciitilde
	</note>
	<outline>
		<contour>
			<point x="430" y="200" type="curve" smooth="yes"/>
			<point x="494" y="200"/>
			<point x="539" y="247"/>
			<point x="555" y="327" type="curve" smooth="yes"/>
			<point x="559" y="347"/>
			<point x="545" y="358"/>
			<point x="530" y="358" type="curve" smooth="yes"/>
			<point x="519" y="358"/>
			<point x="511" y="353"/>
			<point x="506" y="343" type="curve" smooth="yes"/>
			<point x="502" y="336"/>
			<point x="499" y="329"/>
			<point x="497" y="324" type="curve" smooth="yes"/>
			<point x="481" y="295"/>
			<point x="474" y="285"/>
			<point x="438" y="285" type="curve" smooth="yes"/>
			<point x="409" y="285"/>
			<point x="386" y="295"/>
			<point x="340" y="317" type="curve" smooth="yes"/>
			<point x="281" y="345"/>
			<point x="247" y="359"/>
			<point x="196" y="359" type="curve" smooth="yes"/>
			<point x="131" y="359"/>
			<point x="71" y="293"/>
			<point x="71" y="229" type="curve" smooth="yes"/>
			<point x="71" y="217"/>
			<point x="85" y="203"/>
			<point x="98" y="203" type="curve" smooth="yes"/>
			<point x="109" y="203"/>
			<point x="119" y="211"/>
			<point x="122" y="223" type="curve" smooth="yes"/>
			<point x="132" y="258"/>
			<point x="154" y="274"/>
			<point x="189" y="274" type="curve" smooth="yes"/>
			<point x="218" y="274"/>
			<point x="241" y="265"/>
			<point x="287" y="242" type="curve" smooth="yes"/>
			<point x="346" y="215"/>
			<point x="380" y="200"/>
		</contour>
	</outline>
</glyph>
<glyph name="dieresis" format="2">
	<advance width="1000"/>
	<unicode hex="00A8"/>
	<anchor x="498" y="729" name="_top"/>
	<anchor x="498" y="841" name="top"/>
	<note>
		dieresis
	</note>
	<outline>
		<contour>
			<point x="580" y="768" type="curve" smooth="yes"/>
			<point x="607" y="768"/>
			<point x="631" y="791"/>
			<point x="631" y="818" type="curve" smooth="yes"/>
			<point x="631" y="846"/>
			<point x="607" y="869"/>
			<point x="580" y="869" type="curve" smooth="yes"/>
			<point x="553" y="869"/>
			<point x="529" y="846"/>
			<point x="529" y="818" type="curve" smooth="yes"/>
			<point x="529" y="791"/>
			<point x="553" y="768"/>
		</contour>
		<contour>
			<point x="416" y="768" type="curve" smooth="yes"/>
			<point x="443" y="768"/>
			<point x="467" y="791"/>
			<point x="467" y="818" type="curve" smooth="yes"/>
			<point x="467" y="846"/>
			<point x="443" y="869"/>
			<point x="416" y="869" type="curve" smooth="yes"/>
			<point x="389" y="869"/>
			<point x="365" y="846"/>
			<point x="365" y="818" type="curve" smooth="yes"/>
			<point x="365" y="791"/>
			<point x="389" y="768"/>
		</contour>
	</outline>
</glyph>
<glyph name="ordfeminine" format="2">
	<advance width="474"/>
	<unicode hex="00AA"/>
	<note>
		ordfeminine
	</note>
	<outline>
		<contour>
			<point x="192" y="330" type="curve" smooth="yes"/>
			<point x="246" y="330"/>
			<point x="286" y="349"/>
			<point x="310" y="375" type="curve"/>
			<point x="310" y="369" type="line" smooth="yes"/>
			<point x="310" y="350"/>
			<point x="326" y="333"/>
			<point x="346" y="333" type="curve" smooth="yes"/>
			<point x="365" y="333"/>
			<point x="382" y="350"/>
			<point x="382" y="369" type="curve" smooth="yes"/>
			<point x="382" y="556" type="line" smooth="yes"/>
			<point x="382" y="630"/>
			<point x="332" y="692"/>
			<point x="238" y="692" type="curve" smooth="yes"/>
			<point x="199" y="692"/>
			<point x="160" y="685"/>
			<point x="120" y="669" type="curve" smooth="yes"/>
			<point x="106" y="664"/>
			<point x="97" y="651"/>
			<point x="97" y="639" type="curve" smooth="yes"/>
			<point x="97" y="622"/>
			<point x="112" y="606"/>
			<point x="129" y="606" type="curve" smooth="yes"/>
			<point x="132" y="606"/>
			<point x="134" y="607"/>
			<point x="137" y="607" type="curve"/>
			<point x="138" y="608"/>
			<point x="138" y="608"/>
			<point x="139" y="608" type="curve"/>
			<point x="166" y="618"/>
			<point x="195" y="624"/>
			<point x="228" y="624" type="curve" smooth="yes"/>
			<point x="283" y="624"/>
			<point x="310" y="601"/>
			<point x="310" y="542" type="curve" smooth="yes"/>
			<point x="310" y="541" type="line"/>
			<point x="236" y="541" type="line" smooth="yes"/>
			<point x="135" y="541"/>
			<point x="78" y="505"/>
			<point x="78" y="436" type="curve" smooth="yes"/>
			<point x="78" y="372"/>
			<point x="130" y="330"/>
		</contour>
		<contour>
			<point x="92" y="223" type="curve" smooth="yes"/>
			<point x="368" y="223" type="line" smooth="yes"/>
			<point x="383" y="223"/>
			<point x="396" y="236"/>
			<point x="396" y="251" type="curve" smooth="yes"/>
			<point x="396" y="266"/>
			<point x="383" y="279"/>
			<point x="368" y="279" type="curve" smooth="yes"/>
			<point x="92" y="279" type="line" smooth="yes"/>
			<point x="77" y="279"/>
			<point x="63" y="266"/>
			<point x="63" y="251" type="curve" smooth="yes"/>
			<point x="63" y="236"/>
			<point x="77" y="223"/>
		</contour>
		<contour>
			<point x="215" y="396" type="curve" smooth="yes"/>
			<point x="171" y="396"/>
			<point x="150" y="411"/>
			<point x="150" y="441" type="curve" smooth="yes"/>
			<point x="150" y="472"/>
			<point x="182" y="486"/>
			<point x="244" y="486" type="curve" smooth="yes"/>
			<point x="310" y="486" type="line"/>
			<point x="310" y="440" type="line"/>
			<point x="285" y="415"/>
			<point x="251" y="396"/>
		</contour>
	</outline>
</glyph>
<glyph name="softhyphen" format="2">
	<advance width="398"/>
	<unicode hex="00AD"/>
	<note>
		uni00AD
	</note>
	<outline>
		<contour>
			<point x="106" y="233" type="curve" smooth="yes"/>
			<point x="291" y="233" type="line" smooth="yes"/>
			<point x="313" y="233"/>
			<point x="332" y="250"/>
			<point x="332" y="273" type="curve" smooth="yes"/>
			<point x="332" y="296"/>
			<point x="313" y="314"/>
			<point x="291" y="314" type="curve" smooth="yes"/>
			<point x="106" y="314" type="line" smooth="yes"/>
			<point x="83" y="314"/>
			<point x="66" y="296"/>
			<point x="66" y="273" type="curve" smooth="yes"/>
			<point x="66" y="251"/>
			<point x="84" y="233"/>
		</contour>
	</outline>
</glyph>
<glyph name="registered" format="2">
	<advance width="800"/>
	<unicode hex="00AE"/>
	<note>
		registered
	</note>
	<outline>
		<contour>
			<point x="400" y="-11" type="curve" smooth="yes"/>
			<point x="526" y="-11"/>
			<point x="642" y="58"/>
			<point x="705" y="165" type="curve" smooth="yes"/>
			<point x="736" y="220"/>
			<point x="752" y="278"/>
			<point x="752" y="341" type="curve" smooth="yes"/>
			<point x="752" y="467"/>
			<point x="685" y="582"/>
			<point x="577" y="646" type="curve" smooth="yes"/>
			<point x="522" y="677"/>
			<point x="463" y="692"/>
			<point x="400" y="692" type="curve" smooth="yes"/>
			<point x="274" y="692"/>
			<point x="159" y="625"/>
			<point x="97" y="518" type="curve" smooth="yes"/>
			<point x="64" y="463"/>
			<point x="49" y="404"/>
			<point x="49" y="341" type="curve" smooth="yes"/>
			<point x="49" y="215"/>
			<point x="117" y="100"/>
			<point x="225" y="37" type="curve" smooth="yes"/>
			<point x="279" y="5"/>
			<point x="337" y="-11"/>
		</contour>
		<contour>
			<point x="399" y="42" type="curve" smooth="yes"/>
			<point x="291" y="42"/>
			<point x="196" y="101"/>
			<point x="143" y="192" type="curve" smooth="yes"/>
			<point x="115" y="237"/>
			<point x="102" y="287"/>
			<point x="102" y="342" type="curve" smooth="yes"/>
			<point x="102" y="450"/>
			<point x="160" y="545"/>
			<point x="251" y="600" type="curve" smooth="yes"/>
			<point x="298" y="627"/>
			<point x="347" y="640"/>
			<point x="399" y="640" type="curve" smooth="yes"/>
			<point x="509" y="640"/>
			<point x="604" y="581"/>
			<point x="659" y="490" type="curve" smooth="yes"/>
			<point x="687" y="443"/>
			<point x="699" y="395"/>
			<point x="699" y="342" type="curve" smooth="yes"/>
			<point x="699" y="232"/>
			<point x="642" y="137"/>
			<point x="550" y="83" type="curve" smooth="yes"/>
			<point x="505" y="56"/>
			<point x="455" y="42"/>
		</contour>
		<contour>
			<point x="287" y="141" type="curve" smooth="yes"/>
			<point x="306" y="141"/>
			<point x="321" y="154"/>
			<point x="321" y="174" type="curve" smooth="yes"/>
			<point x="321" y="291" type="line"/>
			<point x="427" y="291" type="line" smooth="yes"/>
			<point x="488" y="291"/>
			<point x="497" y="248"/>
			<point x="497" y="192" type="curve" smooth="yes"/>
			<point x="497" y="175" type="line" smooth="yes"/>
			<point x="497" y="156"/>
			<point x="513" y="141"/>
			<point x="531" y="141" type="curve" smooth="yes"/>
			<point x="550" y="141"/>
			<point x="565" y="156"/>
			<point x="565" y="175" type="curve" smooth="yes"/>
			<point x="565" y="201" type="line" smooth="yes"/>
			<point x="565" y="271"/>
			<point x="535" y="310"/>
			<point x="500" y="323" type="curve"/>
			<point x="541" y="339"/>
			<point x="570" y="372"/>
			<point x="570" y="418" type="curve" smooth="yes"/>
			<point x="570" y="493"/>
			<point x="515" y="536"/>
			<point x="416" y="536" type="curve" smooth="yes"/>
			<point x="299" y="536" type="line" smooth="yes"/>
			<point x="273" y="536"/>
			<point x="254" y="515"/>
			<point x="254" y="490" type="curve" smooth="yes"/>
			<point x="254" y="174" type="line" smooth="yes"/>
			<point x="254" y="155"/>
			<point x="269" y="141"/>
		</contour>
		<contour>
			<point x="321" y="351" type="line"/>
			<point x="321" y="466" type="line" smooth="yes"/>
			<point x="321" y="474"/>
			<point x="325" y="478"/>
			<point x="333" y="478" type="curve" smooth="yes"/>
			<point x="411" y="478" type="line" smooth="yes"/>
			<point x="476" y="478"/>
			<point x="504" y="457"/>
			<point x="504" y="416" type="curve" smooth="yes"/>
			<point x="504" y="376"/>
			<point x="471" y="351"/>
			<point x="413" y="351" type="curve" smooth="yes"/>
		</contour>
	</outline>
</glyph>
<glyph name="degree" format="2">
	<advance width="369"/>
	<unicode hex="00B0"/>
	<note>
		degree
	</note>
	<outline>
		<contour>
			<point x="185" y="423" type="curve" smooth="yes"/>
			<point x="258" y="423"/>
			<point x="319" y="484"/>
			<point x="319" y="558" type="curve" smooth="yes"/>
			<point x="319" y="631"/>
			<point x="258" y="692"/>
			<point x="185" y="692" type="curve" smooth="yes"/>
			<point x="111" y="692"/>
			<point x="50" y="631"/>
			<point x="50" y="558" type="curve" smooth="yes"/>
			<point x="50" y="484"/>
			<point x="111" y="423"/>
		</contour>
		<contour>
			<point x="185" y="476" type="curve" smooth="yes"/>
			<point x="139" y="476"/>
			<point x="103" y="512"/>
			<point x="103" y="558" type="curve" smooth="yes"/>
			<point x="103" y="604"/>
			<point x="139" y="640"/>
			<point x="185" y="640" type="curve" smooth="yes"/>
			<point x="230" y="640"/>
			<point x="267" y="604"/>
			<point x="267" y="558" type="curve" smooth="yes"/>
			<point x="267" y="512"/>
			<point x="230" y="476"/>
		</contour>
	</outline>
</glyph>
<glyph name="plusminus" format="2">
	<advance width="592"/>
	<unicode hex="00B1"/>
	<note>
		plusminus
	</note>
	<outline>
		<contour>
			<point x="296" y="141" type="curve" smooth="yes"/>
			<point x="318" y="141"/>
			<point x="335" y="159"/>
			<point x="335" y="180" type="curve" smooth="yes"/>
			<point x="335" y="333" type="line"/>
			<point x="493" y="333" type="line" smooth="yes"/>
			<point x="516" y="333"/>
			<point x="532" y="351"/>
			<point x="532" y="371" type="curve" smooth="yes"/>
			<point x="532" y="394"/>
			<point x="516" y="410"/>
			<point x="493" y="410" type="curve" smooth="yes"/>
			<point x="335" y="410" type="line"/>
			<point x="335" y="563" type="line" smooth="yes"/>
			<point x="335" y="586"/>
			<point x="318" y="603"/>
			<point x="296" y="603" type="curve" smooth="yes"/>
			<point x="275" y="603"/>
			<point x="257" y="586"/>
			<point x="257" y="563" type="curve" smooth="yes"/>
			<point x="257" y="410" type="line"/>
			<point x="98" y="410" type="line" smooth="yes"/>
			<point x="77" y="410"/>
			<point x="60" y="394"/>
			<point x="60" y="371" type="curve" smooth="yes"/>
			<point x="60" y="351"/>
			<point x="77" y="333"/>
			<point x="98" y="333" type="curve" smooth="yes"/>
			<point x="257" y="333" type="line"/>
			<point x="257" y="180" type="line" smooth="yes"/>
			<point x="257" y="159"/>
			<point x="275" y="141"/>
		</contour>
		<contour>
			<point x="98" y="-1" type="curve" smooth="yes"/>
			<point x="493" y="-1" type="line" smooth="yes"/>
			<point x="516" y="-1"/>
			<point x="532" y="17"/>
			<point x="532" y="37" type="curve" smooth="yes"/>
			<point x="532" y="60"/>
			<point x="516" y="76"/>
			<point x="493" y="76" type="curve" smooth="yes"/>
			<point x="98" y="76" type="line" smooth="yes"/>
			<point x="77" y="76"/>
			<point x="60" y="60"/>
			<point x="60" y="37" type="curve" smooth="yes"/>
			<point x="60" y="17"/>
			<point x="77" y="-1"/>
		</contour>
	</outline>
</glyph>
<glyph name="acute" format="2">
	<advance width="234"/>
	<unicode hex="00B4"/>
	<note>
		acute
	</note>
	<outline>
		<contour>
			<point x="195" y="553" type="curve" smooth="yes"/>
			<point x="204" y="553"/>
			<point x="212" y="557"/>
			<point x="218" y="563" type="curve"/>
			<point x="285" y="644" type="line"/>
			<point x="292" y="650"/>
			<point x="295" y="660"/>
			<point x="295" y="669" type="curve" smooth="yes"/>
			<point x="295" y="691"/>
			<point x="278" y="706"/>
			<point x="258" y="706" type="curve" smooth="yes"/>
			<point x="243" y="706"/>
			<point x="231" y="700"/>
			<point x="225" y="687" type="curve"/>
			<point x="175" y="600" type="line" smooth="yes"/>
			<point x="171" y="593"/>
			<point x="168" y="587"/>
			<point x="168" y="580" type="curve" smooth="yes"/>
			<point x="168" y="563"/>
			<point x="180" y="553"/>
		</contour>
	</outline>
</glyph>
<glyph name="onequarter" format="2">
	<advance width="870"/>
	<unicode hex="00BC"/>
	<note>
		onequarter
	</note>
	<outline>
		<contour>
			<point x="253" y="-24" type="curve" smooth="yes"/>
			<point x="266" y="-24"/>
			<point x="275" y="-20"/>
			<point x="281" y="-11" type="curve" smooth="yes"/>
			<point x="686" y="656" type="line"/>
			<point x="688" y="663"/>
			<point x="690" y="669"/>
			<point x="690" y="674" type="curve" smooth="yes"/>
			<point x="690" y="694"/>
			<point x="675" y="708"/>
			<point x="656" y="708" type="curve" smooth="yes"/>
			<point x="644" y="708"/>
			<point x="634" y="703"/>
			<point x="628" y="694" type="curve" smooth="yes"/>
			<point x="224" y="27" type="line" smooth="yes"/>
			<point x="221" y="21"/>
			<point x="219" y="15"/>
			<point x="219" y="10" type="curve" smooth="yes"/>
			<point x="219" y="-11"/>
			<point x="234" y="-24"/>
		</contour>
		<contour>
			<point x="105" y="302" type="curve" smooth="yes"/>
			<point x="275" y="302" type="line" smooth="yes"/>
			<point x="292" y="302"/>
			<point x="306" y="313"/>
			<point x="306" y="331" type="curve" smooth="yes"/>
			<point x="306" y="348"/>
			<point x="292" y="361"/>
			<point x="275" y="361" type="curve" smooth="yes"/>
			<point x="228" y="361" type="line"/>
			<point x="228" y="649" type="line" smooth="yes"/>
			<point x="228" y="673"/>
			<point x="210" y="692"/>
			<point x="185" y="692" type="curve" smooth="yes"/>
			<point x="178" y="692"/>
			<point x="172" y="690"/>
			<point x="165" y="688" type="curve"/>
			<point x="95" y="651" type="line"/>
			<point x="82" y="646"/>
			<point x="75" y="634"/>
			<point x="75" y="623" type="curve" smooth="yes"/>
			<point x="75" y="605"/>
			<point x="90" y="593"/>
			<point x="105" y="593" type="curve" smooth="yes"/>
			<point x="108" y="593"/>
			<point x="113" y="594"/>
			<point x="120" y="597" type="curve" smooth="yes"/>
			<point x="163" y="617" type="line"/>
			<point x="163" y="361" type="line"/>
			<point x="105" y="361" type="line" smooth="yes"/>
			<point x="88" y="361"/>
			<point x="76" y="348"/>
			<point x="76" y="331" type="curve" smooth="yes"/>
			<point x="76" y="313"/>
			<point x="89" y="302"/>
		</contour>
		<contour>
			<point x="751" y="-6" type="curve" smooth="yes"/>
			<point x="770" y="-6"/>
			<point x="783" y="10"/>
			<point x="783" y="26" type="curve" smooth="yes"/>
			<point x="783" y="93" type="line"/>
			<point x="817" y="93" type="line" smooth="yes"/>
			<point x="834" y="93"/>
			<point x="848" y="104"/>
			<point x="848" y="122" type="curve" smooth="yes"/>
			<point x="848" y="139"/>
			<point x="834" y="152"/>
			<point x="817" y="152" type="curve" smooth="yes"/>
			<point x="783" y="152" type="line"/>
			<point x="783" y="349" type="line" smooth="yes"/>
			<point x="783" y="371"/>
			<point x="766" y="391"/>
			<point x="741" y="391" type="curve" smooth="yes"/>
			<point x="733" y="391" type="line" smooth="yes"/>
			<point x="720" y="391"/>
			<point x="708" y="383"/>
			<point x="697" y="370" type="curve" smooth="yes"/>
			<point x="536" y="164" type="line" smooth="yes"/>
			<point x="529" y="155"/>
			<point x="525" y="146"/>
			<point x="525" y="135" type="curve" smooth="yes"/>
			<point x="525" y="112"/>
			<point x="545" y="93"/>
			<point x="567" y="93" type="curve" smooth="yes"/>
			<point x="719" y="93" type="line"/>
			<point x="719" y="26" type="line" smooth="yes"/>
			<point x="719" y="10"/>
			<point x="734" y="-6"/>
		</contour>
		<contour>
			<point x="598" y="152" type="line"/>
			<point x="719" y="310" type="line"/>
			<point x="719" y="152" type="line"/>
		</contour>
	</outline>
</glyph>
<glyph name="questiondown" format="2">
	<advance width="477"/>
	<unicode hex="00BF"/>
	<note>
		questiondown
	</note>
	<outline>
		<contour>
			<point x="259" y="-194" type="curve" smooth="yes"/>
			<point x="325" y="-194"/>
			<point x="377" y="-182"/>
			<point x="432" y="-147" type="curve" smooth="yes"/>
			<point x="447" y="-138"/>
			<point x="456" y="-125"/>
			<point x="456" y="-109" type="curve" smooth="yes"/>
			<point x="456" y="-89"/>
			<point x="438" y="-69"/>
			<point x="416" y="-69" type="curve" smooth="yes"/>
			<point x="407" y="-69"/>
			<point x="399" y="-72"/>
			<point x="391" y="-77" type="curve" smooth="yes"/>
			<point x="357" y="-98"/>
			<point x="313" y="-109"/>
			<point x="267" y="-109" type="curve" smooth="yes"/>
			<point x="173" y="-109"/>
			<point x="128" y="-74"/>
			<point x="128" y="-4" type="curve" smooth="yes"/>
			<point x="128" y="32"/>
			<point x="150" y="56"/>
			<point x="200" y="95" type="curve" smooth="yes"/>
			<point x="247" y="133"/>
			<point x="272" y="156"/>
			<point x="293" y="201" type="curve" smooth="yes"/>
			<point x="304" y="224"/>
			<point x="309" y="249"/>
			<point x="309" y="278" type="curve" smooth="yes"/>
			<point x="309" y="301"/>
			<point x="288" y="317"/>
			<point x="265" y="317" type="curve" smooth="yes"/>
			<point x="241" y="317"/>
			<point x="221" y="300"/>
			<point x="221" y="278" type="curve" smooth="yes"/>
			<point x="221" y="227"/>
			<point x="192" y="197"/>
			<point x="137" y="153" type="curve" smooth="yes"/>
			<point x="94" y="119"/>
			<point x="70" y="98"/>
			<point x="52" y="59" type="curve" smooth="yes"/>
			<point x="42" y="38"/>
			<point x="38" y="16"/>
			<point x="38" y="-9" type="curve" smooth="yes"/>
			<point x="38" y="-122"/>
			<point x="125" y="-194"/>
		</contour>
		<contour>
			<point x="267" y="385" type="curve" smooth="yes"/>
			<point x="298" y="385"/>
			<point x="325" y="412"/>
			<point x="325" y="443" type="curve" smooth="yes"/>
			<point x="325" y="476"/>
			<point x="298" y="503"/>
			<point x="267" y="503" type="curve" smooth="yes"/>
			<point x="234" y="503"/>
			<point x="207" y="476"/>
			<point x="207" y="443" type="curve" smooth="yes"/>
			<point x="207" y="412"/>
			<point x="234" y="385"/>
		</contour>
	</outline>
</glyph>
<glyph name="Aacute" format="2">
	<advance width="729"/>
	<unicode hex="00C1"/>
	<anchor x="362" y="0" name="bottom"/>
	<anchor x="565" y="695" name="odot"/>
	<anchor x="636" y="39" name="ogonek"/>
	<anchor x="363" y="857" name="top"/>
	<note>
		Aacute
	</note>
	<outline>
		<contour>
			<point x="93" y="-6" type="curve" smooth="yes"/>
			<point x="112" y="-6"/>
			<point x="128" y="5"/>
			<point x="136" y="22" type="curve" smooth="yes"/>
			<point x="199" y="174" type="line"/>
			<point x="529" y="174" type="line"/>
			<point x="593" y="22" type="line" smooth="yes"/>
			<point x="601" y="5"/>
			<point x="616" y="-6"/>
			<point x="636" y="-6" type="curve" smooth="yes"/>
			<point x="662" y="-6"/>
			<point x="681" y="15"/>
			<point x="681" y="39" type="curve" smooth="yes"/>
			<point x="681" y="44"/>
			<point x="679" y="51"/>
			<point x="676" y="59" type="curve" smooth="yes"/>
			<point x="427" y="646" type="line" smooth="yes"/>
			<point x="416" y="671"/>
			<point x="396" y="688"/>
			<point x="369" y="688" type="curve" smooth="yes"/>
			<point x="359" y="688" type="line" smooth="yes"/>
			<point x="332" y="688"/>
			<point x="313" y="671"/>
			<point x="302" y="646" type="curve" smooth="yes"/>
			<point x="53" y="59" type="line" smooth="yes"/>
			<point x="50" y="51"/>
			<point x="48" y="44"/>
			<point x="48" y="39" type="curve" smooth="yes"/>
			<point x="48" y="15"/>
			<point x="66" y="-6"/>
		</contour>
		<contour>
			<point x="233" y="257" type="line"/>
			<point x="356" y="553" type="line" smooth="yes"/>
			<point x="359" y="562"/>
			<point x="368" y="563"/>
			<point x="372" y="553" type="curve" smooth="yes"/>
			<point x="495" y="257" type="line"/>
		</contour>
		<contour>
			<point x="364" y="721" type="curve" smooth="yes"/>
			<point x="373" y="721"/>
			<point x="381" y="725"/>
			<point x="387" y="731" type="curve"/>
			<point x="454" y="812" type="line"/>
			<point x="461" y="818"/>
			<point x="464" y="828"/>
			<point x="464" y="837" type="curve" smooth="yes"/>
			<point x="464" y="859"/>
			<point x="447" y="874"/>
			<point x="427" y="874" type="curve" smooth="yes"/>
			<point x="412" y="874"/>
			<point x="400" y="868"/>
			<point x="394" y="854" type="curve"/>
			<point x="344" y="768" type="line" smooth="yes"/>
			<point x="340" y="761"/>
			<point x="337" y="755"/>
			<point x="337" y="748" type="curve" smooth="yes"/>
			<point x="337" y="731"/>
			<point x="349" y="721"/>
		</contour>
	</outline>
</glyph>
<glyph name="Atilde" format="2">
	<advance width="729"/>
	<unicode hex="00C3"/>
	<anchor x="565" y="695" name="odot"/>
	<anchor x="636" y="39" name="ogonek"/>
	<anchor x="363" y="857" name="top"/>
	<note>
		Atilde
	</note>
	<outline>
		<contour>
			<point x="93" y="-6" type="curve" smooth="yes"/>
			<point x="112" y="-6"/>
			<point x="128" y="5"/>
			<point x="136" y="22" type="curve" smooth="yes"/>
			<point x="199" y="174" type="line"/>
			<point x="529" y="174" type="line"/>
			<point x="593" y="22" type="line" smooth="yes"/>
			<point x="601" y="5"/>
			<point x="616" y="-6"/>
			<point x="636" y="-6" type="curve" smooth="yes"/>
			<point x="662" y="-6"/>
			<point x="681" y="15"/>
			<point x="681" y="39" type="curve" smooth="yes"/>
			<point x="681" y="44"/>
			<point x="679" y="51"/>
			<point x="676" y="59" type="curve" smooth="yes"/>
			<point x="427" y="646" type="line" smooth="yes"/>
			<point x="416" y="671"/>
			<point x="396" y="688"/>
			<point x="369" y="688" type="curve" smooth="yes"/>
			<point x="359" y="688" type="line" smooth="yes"/>
			<point x="332" y="688"/>
			<point x="313" y="671"/>
			<point x="302" y="646" type="curve" smooth="yes"/>
			<point x="53" y="59" type="line" smooth="yes"/>
			<point x="50" y="51"/>
			<point x="48" y="44"/>
			<point x="48" y="39" type="curve" smooth="yes"/>
			<point x="48" y="15"/>
			<point x="66" y="-6"/>
		</contour>
		<contour>
			<point x="233" y="257" type="line"/>
			<point x="356" y="553" type="line" smooth="yes"/>
			<point x="359" y="562"/>
			<point x="368" y="563"/>
			<point x="372" y="553" type="curve" smooth="yes"/>
			<point x="495" y="257" type="line"/>
		</contour>
		<contour>
			<point x="229" y="725" type="curve" smooth="yes"/>
			<point x="241" y="725"/>
			<point x="249" y="731"/>
			<point x="253" y="743" type="curve" smooth="yes"/>
			<point x="262" y="764"/>
			<point x="274" y="773"/>
			<point x="290" y="773" type="curve" smooth="yes"/>
			<point x="313" y="773"/>
			<point x="330" y="766"/>
			<point x="360" y="751" type="curve" smooth="yes"/>
			<point x="395" y="735"/>
			<point x="414" y="727"/>
			<point x="440" y="727" type="curve" smooth="yes"/>
			<point x="488" y="727"/>
			<point x="523" y="774"/>
			<point x="523" y="820" type="curve" smooth="yes"/>
			<point x="522" y="833"/>
			<point x="513" y="843"/>
			<point x="500" y="843" type="curve" smooth="yes"/>
			<point x="488" y="843"/>
			<point x="479" y="835"/>
			<point x="475" y="821" type="curve"/>
			<point x="467" y="803"/>
			<point x="456" y="796"/>
			<point x="439" y="796" type="curve" smooth="yes"/>
			<point x="416" y="796"/>
			<point x="397" y="804"/>
			<point x="367" y="818" type="curve" smooth="yes"/>
			<point x="335" y="834"/>
			<point x="315" y="842"/>
			<point x="289" y="842" type="curve" smooth="yes"/>
			<point x="241" y="842"/>
			<point x="206" y="791"/>
			<point x="206" y="748" type="curve" smooth="yes"/>
			<point x="206" y="734"/>
			<point x="218" y="725"/>
		</contour>
	</outline>
</glyph>
<glyph name="Iacute" format="2">
	<advance width="278"/>
	<unicode hex="00CD"/>
	<anchor x="275" y="692" name="odot"/>
	<anchor x="140" y="857" name="top"/>
	<note>
		Iacute
	</note>
	<outline>
		<contour>
			<point x="139" y="-6" type="curve" smooth="yes"/>
			<point x="163" y="-6"/>
			<point x="185" y="14"/>
			<point x="185" y="39" type="curve" smooth="yes"/>
			<point x="185" y="642" type="line" smooth="yes"/>
			<point x="185" y="666"/>
			<point x="163" y="688"/>
			<point x="139" y="688" type="curve" smooth="yes"/>
			<point x="113" y="688"/>
			<point x="94" y="666"/>
			<point x="94" y="642" type="curve" smooth="yes"/>
			<point x="94" y="39" type="line" smooth="yes"/>
			<point x="94" y="15"/>
			<point x="114" y="-6"/>
		</contour>
		<contour>
			<point x="140" y="721" type="curve" smooth="yes"/>
			<point x="148" y="721"/>
			<point x="156" y="725"/>
			<point x="162" y="731" type="curve"/>
			<point x="229" y="812" type="line"/>
			<point x="236" y="818"/>
			<point x="239" y="828"/>
			<point x="239" y="837" type="curve" smooth="yes"/>
			<point x="239" y="859"/>
			<point x="223" y="874"/>
			<point x="202" y="874" type="curve" smooth="yes"/>
			<point x="188" y="874"/>
			<point x="176" y="868"/>
			<point x="169" y="854" type="curve" smooth="yes"/>
			<point x="119" y="768" type="line" smooth="yes"/>
			<point x="115" y="761"/>
			<point x="112" y="755"/>
			<point x="112" y="748" type="curve" smooth="yes"/>
			<point x="112" y="731"/>
			<point x="124" y="721"/>
		</contour>
	</outline>
</glyph>
<glyph name="Ograve" format="2">
	<advance width="793"/>
	<unicode hex="00D2"/>
	<anchor x="727" y="702" name="odot"/>
	<anchor x="398" y="857" name="top"/>
	<note>
		Ograve
	</note>
	<outline>
		<contour>
			<point x="396" y="-11" type="curve" smooth="yes"/>
			<point x="533" y="-11"/>
			<point x="640" y="53"/>
			<point x="696" y="160" type="curve" smooth="yes"/>
			<point x="725" y="213"/>
			<point x="739" y="273"/>
			<point x="740" y="341" type="curve" smooth="yes"/>
			<point x="737" y="477"/>
			<point x="679" y="588"/>
			<point x="577" y="647" type="curve" smooth="yes"/>
			<point x="524" y="678"/>
			<point x="465" y="692"/>
			<point x="396" y="692" type="curve" smooth="yes"/>
			<point x="260" y="692"/>
			<point x="152" y="629"/>
			<point x="97" y="522" type="curve" smooth="yes"/>
			<point x="68" y="470"/>
			<point x="54" y="408"/>
			<point x="53" y="341" type="curve" smooth="yes"/>
			<point x="56" y="204"/>
			<point x="113" y="94"/>
			<point x="216" y="34" type="curve" smooth="yes"/>
			<point x="269" y="4"/>
			<point x="328" y="-11"/>
		</contour>
		<contour>
			<point x="396" y="74" type="curve" smooth="yes"/>
			<point x="294" y="74"/>
			<point x="215" y="121"/>
			<point x="174" y="204" type="curve" smooth="yes"/>
			<point x="154" y="243"/>
			<point x="144" y="289"/>
			<point x="144" y="341" type="curve" smooth="yes"/>
			<point x="144" y="443"/>
			<point x="187" y="526"/>
			<point x="262" y="572" type="curve" smooth="yes"/>
			<point x="299" y="596"/>
			<point x="344" y="607"/>
			<point x="396" y="607" type="curve" smooth="yes"/>
			<point x="498" y="607"/>
			<point x="578" y="560"/>
			<point x="619" y="478" type="curve" smooth="yes"/>
			<point x="639" y="438"/>
			<point x="649" y="393"/>
			<point x="649" y="341" type="curve" smooth="yes"/>
			<point x="649" y="237"/>
			<point x="606" y="155"/>
			<point x="531" y="109" type="curve" smooth="yes"/>
			<point x="494" y="86"/>
			<point x="449" y="74"/>
		</contour>
		<contour>
			<point x="396" y="721" type="curve" smooth="yes"/>
			<point x="413" y="721"/>
			<point x="424" y="732"/>
			<point x="424" y="748" type="curve" smooth="yes"/>
			<point x="424" y="755"/>
			<point x="421" y="761"/>
			<point x="417" y="768" type="curve" smooth="yes"/>
			<point x="367" y="854" type="line" smooth="yes"/>
			<point x="360" y="868"/>
			<point x="349" y="874"/>
			<point x="334" y="874" type="curve" smooth="yes"/>
			<point x="312" y="874"/>
			<point x="297" y="860"/>
			<point x="297" y="837" type="curve" smooth="yes"/>
			<point x="297" y="828"/>
			<point x="300" y="818"/>
			<point x="307" y="812" type="curve"/>
			<point x="374" y="731" type="line"/>
			<point x="380" y="725"/>
			<point x="388" y="721"/>
		</contour>
	</outline>
</glyph>
<glyph name="Odieresis" format="2">
	<advance width="793"/>
	<unicode hex="00D6"/>
	<anchor x="727" y="702" name="odot"/>
	<anchor x="398" y="857" name="top"/>
	<note>
		Odieresis
	</note>
	<outline>
		<contour>
			<point x="396" y="-11" type="curve" smooth="yes"/>
			<point x="533" y="-11"/>
			<point x="640" y="53"/>
			<point x="696" y="160" type="curve" smooth="yes"/>
			<point x="725" y="213"/>
			<point x="739" y="273"/>
			<point x="740" y="341" type="curve" smooth="yes"/>
			<point x="737" y="477"/>
			<point x="679" y="588"/>
			<point x="577" y="647" type="curve" smooth="yes"/>
			<point x="524" y="678"/>
			<point x="465" y="692"/>
			<point x="396" y="692" type="curve" smooth="yes"/>
			<point x="260" y="692"/>
			<point x="152" y="629"/>
			<point x="97" y="522" type="curve" smooth="yes"/>
			<point x="68" y="470"/>
			<point x="54" y="408"/>
			<point x="53" y="341" type="curve" smooth="yes"/>
			<point x="56" y="204"/>
			<point x="113" y="94"/>
			<point x="216" y="34" type="curve" smooth="yes"/>
			<point x="269" y="4"/>
			<point x="328" y="-11"/>
		</contour>
		<contour>
			<point x="396" y="74" type="curve" smooth="yes"/>
			<point x="294" y="74"/>
			<point x="215" y="121"/>
			<point x="174" y="204" type="curve" smooth="yes"/>
			<point x="154" y="243"/>
			<point x="144" y="289"/>
			<point x="144" y="341" type="curve" smooth="yes"/>
			<point x="144" y="443"/>
			<point x="187" y="526"/>
			<point x="262" y="572" type="curve" smooth="yes"/>
			<point x="299" y="596"/>
			<point x="344" y="607"/>
			<point x="396" y="607" type="curve" smooth="yes"/>
			<point x="498" y="607"/>
			<point x="578" y="560"/>
			<point x="619" y="478" type="curve" smooth="yes"/>
			<point x="639" y="438"/>
			<point x="649" y="393"/>
			<point x="649" y="341" type="curve" smooth="yes"/>
			<point x="649" y="237"/>
			<point x="606" y="155"/>
			<point x="531" y="109" type="curve" smooth="yes"/>
			<point x="494" y="86"/>
			<point x="449" y="74"/>
		</contour>
		<contour>
			<point x="314" y="729" type="curve" smooth="yes"/>
			<point x="342" y="729"/>
			<point x="365" y="752"/>
			<point x="365" y="779" type="curve" smooth="yes"/>
			<point x="365" y="807"/>
			<point x="342" y="830"/>
			<point x="314" y="830" type="curve" smooth="yes"/>
			<point x="287" y="830"/>
			<point x="264" y="807"/>
			<point x="264" y="779" type="curve" smooth="yes"/>
			<point x="264" y="752"/>
			<point x="287" y="729"/>
		</contour>
		<contour>
			<point x="479" y="729" type="curve" smooth="yes"/>
			<point x="506" y="729"/>
			<point x="529" y="752"/>
			<point x="529" y="779" type="curve" smooth="yes"/>
			<point x="529" y="807"/>
			<point x="506" y="830"/>
			<point x="479" y="830" type="curve" smooth="yes"/>
			<point x="451" y="830"/>
			<point x="428" y="807"/>
			<point x="428" y="779" type="curve" smooth="yes"/>
			<point x="428" y="752"/>
			<point x="451" y="729"/>
		</contour>
	</outline>
</glyph>
<glyph name="multiply" format="2">
	<advance width="550"/>
	<unicode hex="00D7"/>
	<note>
		multiply
	</note>
	<outline>
		<contour>
			<point x="95" y="34" type="curve" smooth="yes"/>
			<point x="105" y="34"/>
			<point x="114" y="39"/>
			<point x="122" y="46" type="curve" smooth="yes"/>
			<point x="274" y="199" type="line"/>
			<point x="427" y="46" type="line" smooth="yes"/>
			<point x="435" y="39"/>
			<point x="443" y="34"/>
			<point x="454" y="34" type="curve" smooth="yes"/>
			<point x="476" y="34"/>
			<point x="492" y="53"/>
			<point x="492" y="72" type="curve" smooth="yes"/>
			<point x="492" y="83"/>
			<point x="487" y="92"/>
			<point x="480" y="100" type="curve" smooth="yes"/>
			<point x="327" y="252" type="line"/>
			<point x="480" y="404" type="line" smooth="yes"/>
			<point x="487" y="412"/>
			<point x="492" y="421"/>
			<point x="492" y="432" type="curve" smooth="yes"/>
			<point x="492" y="451"/>
			<point x="476" y="470"/>
			<point x="454" y="470" type="curve" smooth="yes"/>
			<point x="443" y="470"/>
			<point x="435" y="465"/>
			<point x="427" y="458" type="curve" smooth="yes"/>
			<point x="274" y="305" type="line"/>
			<point x="122" y="458" type="line" smooth="yes"/>
			<point x="114" y="465"/>
			<point x="105" y="470"/>
			<point x="95" y="470" type="curve" smooth="yes"/>
			<point x="73" y="470"/>
			<point x="57" y="451"/>
			<point x="57" y="432" type="curve" smooth="yes"/>
			<point x="57" y="421"/>
			<point x="62" y="412"/>
			<point x="68" y="404" type="curve"/>
			<point x="222" y="252" type="line"/>
			<point x="68" y="100" type="line"/>
			<point x="62" y="92"/>
			<point x="57" y="83"/>
			<point x="57" y="72" type="curve" smooth="yes"/>
			<point x="57" y="53"/>
			<point x="73" y="34"/>
		</contour>
	</outline>
</glyph>
<glyph name="Thorn" format="2">
	<advance width="656"/>
	<unicode hex="00DE"/>
	<note>
		Thorn
	</note>
	<outline>
		<contour>
			<point x="139" y="-6" type="curve" smooth="yes"/>
			<point x="163" y="-6"/>
			<point x="185" y="14"/>
			<point x="185" y="39" type="curve" smooth="yes"/>
			<point x="185" y="138" type="line"/>
			<point x="361" y="138" type="line" smooth="yes"/>
			<point x="485" y="138"/>
			<point x="563" y="184"/>
			<point x="598" y="250" type="curve" smooth="yes"/>
			<point x="615" y="283"/>
			<point x="623" y="318"/>
			<point x="623" y="355" type="curve" smooth="yes"/>
			<point x="623" y="439"/>
			<point x="585" y="503"/>
			<point x="513" y="542" type="curve" smooth="yes"/>
			<point x="474" y="563"/>
			<point x="423" y="573"/>
			<point x="361" y="573" type="curve" smooth="yes"/>
			<point x="185" y="573" type="line"/>
			<point x="185" y="642" type="line" smooth="yes"/>
			<point x="185" y="666"/>
			<point x="163" y="688"/>
			<point x="139" y="688" type="curve" smooth="yes"/>
			<point x="113" y="688"/>
			<point x="94" y="666"/>
			<point x="94" y="642" type="curve" smooth="yes"/>
			<point x="94" y="39" type="line" smooth="yes"/>
			<point x="94" y="15"/>
			<point x="114" y="-6"/>
		</contour>
		<contour>
			<point x="185" y="224" type="line"/>
			<point x="185" y="487" type="line"/>
			<point x="353" y="487" type="line" smooth="yes"/>
			<point x="471" y="487"/>
			<point x="532" y="441"/>
			<point x="532" y="355" type="curve" smooth="yes"/>
			<point x="532" y="270"/>
			<point x="471" y="224"/>
			<point x="353" y="224" type="curve" smooth="yes"/>
		</contour>
	</outline>
</glyph>
<glyph name="egrave" format="2">
	<advance width="553"/>
	<unicode hex="00E8"/>
	<anchor x="278" y="0" name="cedilla"/>
	<anchor x="538" y="522" name="odot"/>
	<note>
		egrave
	</note>
	<outline>
		<contour>
			<point x="300" y="-11" type="curve" smooth="yes"/>
			<point x="378" y="-11"/>
			<point x="420" y="4"/>
			<point x="471" y="32" type="curve" smooth="yes"/>
			<point x="488" y="42"/>
			<point x="497" y="54"/>
			<point x="497" y="69" type="curve" smooth="yes"/>
			<point x="497" y="92"/>
			<point x="478" y="108"/>
			<point x="457" y="108" type="curve" smooth="yes"/>
			<point x="450" y="108"/>
			<point x="444" y="107"/>
			<point x="439" y="104" type="curve" smooth="yes"/>
			<point x="400" y="85"/>
			<point x="362" y="74"/>
			<point x="308" y="74" type="curve" smooth="yes"/>
			<point x="208" y="74"/>
			<point x="149" y="125"/>
			<point x="138" y="217" type="curve"/>
			<point x="468" y="217" type="line" smooth="yes"/>
			<point x="495" y="217"/>
			<point x="514" y="237"/>
			<point x="514" y="262" type="curve" smooth="yes"/>
			<point x="514" y="353"/>
			<point x="475" y="432"/>
			<point x="406" y="476" type="curve" smooth="yes"/>
			<point x="370" y="498"/>
			<point x="328" y="509"/>
			<point x="280" y="509" type="curve" smooth="yes"/>
			<point x="178" y="509"/>
			<point x="105" y="456"/>
			<point x="71" y="377" type="curve" smooth="yes"/>
			<point x="55" y="337"/>
			<point x="46" y="294"/>
			<point x="46" y="249" type="curve" smooth="yes"/>
			<point x="46" y="86"/>
			<point x="139" y="-11"/>
		</contour>
		<contour>
			<point x="138" y="291" type="line"/>
			<point x="142" y="351"/>
			<point x="170" y="396"/>
			<point x="215" y="417" type="curve" smooth="yes"/>
			<point x="237" y="427"/>
			<point x="259" y="432"/>
			<point x="280" y="432" type="curve" smooth="yes"/>
			<point x="324" y="432"/>
			<point x="370" y="412"/>
			<point x="399" y="369" type="curve" smooth="yes"/>
			<point x="412" y="352"/>
			<point x="420" y="330"/>
			<point x="423" y="304" type="curve" smooth="yes"/>
			<point x="424" y="295"/>
			<point x="419" y="291"/>
			<point x="411" y="291" type="curve" smooth="yes"/>
		</contour>
		<contour>
			<point x="278" y="553" type="curve" smooth="yes"/>
			<point x="295" y="553"/>
			<point x="306" y="564"/>
			<point x="306" y="580" type="curve" smooth="yes"/>
			<point x="306" y="587"/>
			<point x="303" y="593"/>
			<point x="299" y="600" type="curve" smooth="yes"/>
			<point x="249" y="687" type="line" smooth="yes"/>
			<point x="242" y="700"/>
			<point x="230" y="706"/>
			<point x="216" y="706" type="curve" smooth="yes"/>
			<point x="193" y="706"/>
			<point x="179" y="692"/>
			<point x="179" y="669" type="curve" smooth="yes"/>
			<point x="179" y="660"/>
			<point x="182" y="650"/>
			<point x="188" y="644" type="curve" smooth="yes"/>
			<point x="256" y="563" type="line" smooth="yes"/>
			<point x="262" y="557"/>
			<point x="270" y="553"/>
		</contour>
	</outline>
</glyph>
<glyph name="igrave" format="2">
	<advance width="243"/>
	<unicode hex="00EC"/>
	<anchor x="255" y="464" name="odot"/>
	<note>
		igrave
	</note>
	<outline>
		<contour>
			<point x="121" y="-6" type="curve" smooth="yes"/>
			<point x="146" y="-6"/>
			<point x="167" y="14"/>
			<point x="167" y="39" type="curve" smooth="yes"/>
			<point x="167" y="458" type="line" smooth="yes"/>
			<point x="167" y="484"/>
			<point x="147" y="504"/>
			<point x="121" y="504" type="curve" smooth="yes"/>
			<point x="96" y="504"/>
			<point x="76" y="482"/>
			<point x="76" y="458" type="curve" smooth="yes"/>
			<point x="76" y="39" type="line" smooth="yes"/>
			<point x="76" y="15"/>
			<point x="97" y="-6"/>
		</contour>
		<contour>
			<point x="122" y="553" type="curve" smooth="yes"/>
			<point x="139" y="553"/>
			<point x="149" y="564"/>
			<point x="149" y="580" type="curve" smooth="yes"/>
			<point x="149" y="587"/>
			<point x="146" y="593"/>
			<point x="143" y="600" type="curve"/>
			<point x="93" y="687" type="line" smooth="yes"/>
			<point x="86" y="700"/>
			<point x="74" y="706"/>
			<point x="60" y="706" type="curve" smooth="yes"/>
			<point x="37" y="706"/>
			<point x="22" y="692"/>
			<point x="22" y="669" type="curve" smooth="yes"/>
			<point x="22" y="660"/>
			<point x="25" y="650"/>
			<point x="32" y="644" type="curve"/>
			<point x="100" y="563" type="line" smooth="yes"/>
			<point x="105" y="557"/>
			<point x="113" y="553"/>
		</contour>
	</outline>
</glyph>
<glyph name="ograve" format="2">
	<advance width="594"/>
	<unicode hex="00F2"/>
	<anchor x="548" y="522" name="odot"/>
	<note>
		ograve
	</note>
	<outline>
		<contour>
			<point x="297" y="-11" type="curve" smooth="yes"/>
			<point x="395" y="-11"/>
			<point x="474" y="33"/>
			<point x="517" y="114" type="curve" smooth="yes"/>
			<point x="538" y="154"/>
			<point x="548" y="199"/>
			<point x="548" y="249" type="curve" smooth="yes"/>
			<point x="548" y="350"/>
			<point x="505" y="433"/>
			<point x="428" y="477" type="curve" smooth="yes"/>
			<point x="390" y="498"/>
			<point x="346" y="509"/>
			<point x="297" y="509" type="curve" smooth="yes"/>
			<point x="198" y="509"/>
			<point x="119" y="465"/>
			<point x="77" y="385" type="curve" smooth="yes"/>
			<point x="56" y="344"/>
			<point x="46" y="299"/>
			<point x="46" y="249" type="curve" smooth="yes"/>
			<point x="46" y="148"/>
			<point x="89" y="65"/>
			<point x="165" y="21" type="curve" smooth="yes"/>
			<point x="203" y="0"/>
			<point x="248" y="-11"/>
		</contour>
		<contour>
			<point x="297" y="72" type="curve" smooth="yes"/>
			<point x="238" y="72"/>
			<point x="189" y="99"/>
			<point x="160" y="149" type="curve" smooth="yes"/>
			<point x="145" y="175"/>
			<point x="137" y="209"/>
			<point x="137" y="250" type="curve" smooth="yes"/>
			<point x="137" y="331"/>
			<point x="172" y="384"/>
			<point x="220" y="408" type="curve" smooth="yes"/>
			<point x="244" y="420"/>
			<point x="270" y="426"/>
			<point x="297" y="426" type="curve" smooth="yes"/>
			<point x="355" y="426"/>
			<point x="404" y="399"/>
			<point x="434" y="350" type="curve" smooth="yes"/>
			<point x="449" y="324"/>
			<point x="457" y="290"/>
			<point x="457" y="250" type="curve" smooth="yes"/>
			<point x="457" y="168"/>
			<point x="422" y="115"/>
			<point x="374" y="91" type="curve" smooth="yes"/>
			<point x="351" y="79"/>
			<point x="325" y="72"/>
		</contour>
		<contour>
			<point x="297" y="553" type="curve" smooth="yes"/>
			<point x="313" y="553"/>
			<point x="324" y="564"/>
			<point x="324" y="580" type="curve" smooth="yes"/>
			<point x="324" y="587"/>
			<point x="321" y="593"/>
			<point x="317" y="600" type="curve" smooth="yes"/>
			<point x="268" y="687" type="line" smooth="yes"/>
			<point x="261" y="700"/>
			<point x="249" y="706"/>
			<point x="234" y="706" type="curve" smooth="yes"/>
			<point x="212" y="706"/>
			<point x="197" y="692"/>
			<point x="197" y="669" type="curve" smooth="yes"/>
			<point x="197" y="660"/>
			<point x="200" y="650"/>
			<point x="207" y="644" type="curve"/>
			<point x="274" y="563" type="line"/>
			<point x="280" y="557"/>
			<point x="288" y="553"/>
		</contour>
	</outline>
</glyph>
<glyph name="uacute" format="2">
	<advance width="595"/>
	<unicode hex="00FA"/>
	<anchor x="577" y="552" name="odot"/>
	<note>
		uacute
	</note>
	<outline>
		<contour>
			<point x="247" y="-11" type="curve" smooth="yes"/>
			<point x="324" y="-11"/>
			<point x="378" y="23"/>
			<point x="428" y="77" type="curve"/>
			<point x="428" y="40" type="line" smooth="yes"/>
			<point x="428" y="16"/>
			<point x="449" y="-6"/>
			<point x="474" y="-6" type="curve" smooth="yes"/>
			<point x="499" y="-6"/>
			<point x="519" y="16"/>
			<point x="519" y="40" type="curve" smooth="yes"/>
			<point x="519" y="459" type="line" smooth="yes"/>
			<point x="519" y="483"/>
			<point x="498" y="504"/>
			<point x="474" y="504" type="curve" smooth="yes"/>
			<point x="449" y="504"/>
			<point x="428" y="484"/>
			<point x="428" y="459" type="curve" smooth="yes"/>
			<point x="428" y="166" type="line"/>
			<point x="382" y="109"/>
			<point x="334" y="73"/>
			<point x="269" y="73" type="curve" smooth="yes"/>
			<point x="198" y="73"/>
			<point x="162" y="112"/>
			<point x="162" y="191" type="curve" smooth="yes"/>
			<point x="162" y="459" type="line" smooth="yes"/>
			<point x="162" y="483"/>
			<point x="142" y="504"/>
			<point x="117" y="504" type="curve" smooth="yes"/>
			<point x="93" y="504"/>
			<point x="71" y="484"/>
			<point x="71" y="459" type="curve" smooth="yes"/>
			<point x="71" y="182" type="line" smooth="yes"/>
			<point x="71" y="110"/>
			<point x="102" y="49"/>
			<point x="153" y="15" type="curve" smooth="yes"/>
			<point x="182" y="-3"/>
			<point x="212" y="-11"/>
		</contour>
		<contour>
			<point x="298" y="553" type="curve" smooth="yes"/>
			<point x="307" y="553"/>
			<point x="314" y="557"/>
			<point x="320" y="563" type="curve" smooth="yes"/>
			<point x="388" y="644" type="line"/>
			<point x="395" y="650"/>
			<point x="397" y="660"/>
			<point x="397" y="669" type="curve" smooth="yes"/>
			<point x="397" y="691"/>
			<point x="381" y="706"/>
			<point x="360" y="706" type="curve" smooth="yes"/>
			<point x="346" y="706"/>
			<point x="334" y="700"/>
			<point x="327" y="687" type="curve" smooth="yes"/>
			<point x="277" y="600" type="line" smooth="yes"/>
			<point x="273" y="593"/>
			<point x="271" y="587"/>
			<point x="271" y="580" type="curve" smooth="yes"/>
			<point x="271" y="563"/>
			<point x="282" y="553"/>
		</contour>
	</outline>
</glyph>
<glyph name="ucircumflex" format="2">
	<advance width="595"/>
	<unicode hex="00FB"/>
	<anchor x="577" y="552" name="odot"/>
	<note>
		ucircumflex
	</note>
	<outline>
		<contour>
			<point x="247" y="-11" type="curve" smooth="yes"/>
			<point x="324" y="-11"/>
			<point x="378" y="23"/>
			<point x="428" y="77" type="curve"/>
			<point x="428" y="40" type="line" smooth="yes"/>
			<point x="428" y="16"/>
			<point x="449" y="-6"/>
			<point x="474" y="-6" type="curve" smooth="yes"/>
			<point x="499" y="-6"/>
			<point x="519" y="16"/>
			<point x="519" y="40" type="curve" smooth="yes"/>
			<point x="519" y="459" type="line" smooth="yes"/>
			<point x="519" y="483"/>
			<point x="498" y="504"/>
			<point x="474" y="504" type="curve" smooth="yes"/>
			<point x="449" y="504"/>
			<point x="428" y="484"/>
			<point x="428" y="459" type="curve" smooth="yes"/>
			<point x="428" y="166" type="line"/>
			<point x="382" y="109"/>
			<point x="334" y="73"/>
			<point x="269" y="73" type="curve" smooth="yes"/>
			<point x="198" y="73"/>
			<point x="162" y="112"/>
			<point x="162" y="191" type="curve" smooth="yes"/>
			<point x="162" y="459" type="line" smooth="yes"/>
			<point x="162" y="483"/>
			<point x="142" y="504"/>
			<point x="117" y="504" type="curve" smooth="yes"/>
			<point x="93" y="504"/>
			<point x="71" y="484"/>
			<point x="71" y="459" type="curve" smooth="yes"/>
			<point x="71" y="182" type="line" smooth="yes"/>
			<point x="71" y="110"/>
			<point x="102" y="49"/>
			<point x="153" y="15" type="curve" smooth="yes"/>
			<point x="182" y="-3"/>
			<point x="212" y="-11"/>
		</contour>
		<contour>
			<point x="195" y="552" type="curve" smooth="yes"/>
			<point x="202" y="552"/>
			<point x="208" y="554"/>
			<point x="214" y="559" type="curve" smooth="yes"/>
			<point x="290" y="623" type="line" smooth="yes"/>
			<point x="295" y="628"/>
			<point x="301" y="628"/>
			<point x="306" y="623" type="curve" smooth="yes"/>
			<point x="382" y="559" type="line" smooth="yes"/>
			<point x="388" y="554"/>
			<point x="394" y="552"/>
			<point x="400" y="552" type="curve" smooth="yes"/>
			<point x="417" y="552"/>
			<point x="432" y="567"/>
			<point x="431" y="582" type="curve" smooth="yes"/>
			<point x="431" y="590"/>
			<point x="427" y="597"/>
			<point x="423" y="602" type="curve" smooth="yes"/>
			<point x="356" y="670" type="line" smooth="yes"/>
			<point x="344" y="684"/>
			<point x="332" y="689"/>
			<point x="316" y="689" type="curve" smooth="yes"/>
			<point x="279" y="689" type="line" smooth="yes"/>
			<point x="264" y="689"/>
			<point x="252" y="684"/>
			<point x="239" y="670" type="curve" smooth="yes"/>
			<point x="173" y="602" type="line" smooth="yes"/>
			<point x="169" y="597"/>
			<point x="165" y="590"/>
			<point x="165" y="582" type="curve" smooth="yes"/>
			<point x="164" y="567"/>
			<point x="179" y="552"/>
		</contour>
	</outline>
</glyph>
<glyph name="ccircumflex" format="2">
	<advance width="521"/>
	<unicode hex="0109"/>
	<anchor x="308" y="0" name="cedilla"/>
	<anchor x="292" y="684" name="top"/>
	<note>
		ccircumflex
	</note>
	<outline>
		<contour>
			<point x="308" y="-11" type="curve" smooth="yes"/>
			<point x="377" y="-11"/>
			<point x="424" y="9"/>
			<point x="468" y="36" type="curve"/>
			<point x="480" y="45"/>
			<point x="487" y="57"/>
			<point x="487" y="71" type="curve" smooth="yes"/>
			<point x="487" y="91"/>
			<point x="470" y="111"/>
			<point x="449" y="111" type="curve" smooth="yes"/>
			<point x="441" y="111"/>
			<point x="434" y="108"/>
			<point x="428" y="105" type="curve" smooth="yes"/>
			<point x="385" y="83"/>
			<point x="361" y="74"/>
			<point x="315" y="74" type="curve" smooth="yes"/>
			<point x="205" y="74"/>
			<point x="137" y="143"/>
			<point x="137" y="249" type="curve" smooth="yes"/>
			<point x="137" y="355"/>
			<point x="205" y="424"/>
			<point x="315" y="424" type="curve" smooth="yes"/>
			<point x="361" y="424"/>
			<point x="385" y="415"/>
			<point x="428" y="393" type="curve" smooth="yes"/>
			<point x="434" y="390"/>
			<point x="441" y="387"/>
			<point x="449" y="387" type="curve" smooth="yes"/>
			<point x="470" y="387"/>
			<point x="487" y="407"/>
			<point x="487" y="427" type="curve" smooth="yes"/>
			<point x="487" y="441"/>
			<point x="480" y="453"/>
			<point x="468" y="462" type="curve"/>
			<point x="424" y="489"/>
			<point x="377" y="509"/>
			<point x="308" y="509" type="curve" smooth="yes"/>
			<point x="212" y="509"/>
			<point x="129" y="465"/>
			<point x="82" y="388" type="curve" smooth="yes"/>
			<point x="58" y="348"/>
			<point x="46" y="302"/>
			<point x="46" y="249" type="curve" smooth="yes"/>
			<point x="46" y="144"/>
			<point x="98" y="63"/>
			<point x="178" y="21" type="curve" smooth="yes"/>
			<point x="218" y="0"/>
			<point x="261" y="-11"/>
		</contour>
		<contour>
			<point x="188" y="552" type="curve" smooth="yes"/>
			<point x="195" y="552"/>
			<point x="201" y="554"/>
			<point x="207" y="559" type="curve" smooth="yes"/>
			<point x="283" y="623" type="line" smooth="yes"/>
			<point x="288" y="628"/>
			<point x="294" y="628"/>
			<point x="299" y="623" type="curve" smooth="yes"/>
			<point x="375" y="559" type="line" smooth="yes"/>
			<point x="381" y="554"/>
			<point x="387" y="552"/>
			<point x="394" y="552" type="curve" smooth="yes"/>
			<point x="410" y="552"/>
			<point x="425" y="567"/>
			<point x="424" y="582" type="curve" smooth="yes"/>
			<point x="424" y="590"/>
			<point x="420" y="597"/>
			<point x="416" y="602" type="curve" smooth="yes"/>
			<point x="350" y="670" type="line" smooth="yes"/>
			<point x="337" y="684"/>
			<point x="325" y="689"/>
			<point x="310" y="689" type="curve" smooth="yes"/>
			<point x="272" y="689" type="line" smooth="yes"/>
			<point x="257" y="689"/>
			<point x="245" y="684"/>
			<point x="232" y="670" type="curve" smooth="yes"/>
			<point x="166" y="602" type="line" smooth="yes"/>
			<point x="162" y="597"/>
			<point x="158" y="590"/>
			<point x="158" y="582" type="curve" smooth="yes"/>
			<point x="157" y="567"/>
			<point x="172" y="552"/>
		</contour>
	</outline>
</glyph>
<glyph name="ccaron" format="2">
	<advance width="521"/>
	<unicode hex="010D"/>
	<anchor x="308" y="0" name="cedilla"/>
	<anchor x="292" y="684" name="top"/>
	<note>
		ccaron
	</note>
	<outline>
		<contour>
			<point x="308" y="-11" type="curve" smooth="yes"/>
			<point x="377" y="-11"/>
			<point x="424" y="9"/>
			<point x="468" y="36" type="curve"/>
			<point x="480" y="45"/>
			<point x="487" y="57"/>
			<point x="487" y="71" type="curve" smooth="yes"/>
			<point x="487" y="91"/>
			<point x="470" y="111"/>
			<point x="449" y="111" type="curve" smooth="yes"/>
			<point x="441" y="111"/>
			<point x="434" y="108"/>
			<point x="428" y="105" type="curve" smooth="yes"/>
			<point x="385" y="83"/>
			<point x="361" y="74"/>
			<point x="315" y="74" type="curve" smooth="yes"/>
			<point x="205" y="74"/>
			<point x="137" y="143"/>
			<point x="137" y="249" type="curve" smooth="yes"/>
			<point x="137" y="355"/>
			<point x="205" y="424"/>
			<point x="315" y="424" type="curve" smooth="yes"/>
			<point x="361" y="424"/>
			<point x="385" y="415"/>
			<point x="428" y="393" type="curve" smooth="yes"/>
			<point x="434" y="390"/>
			<point x="441" y="387"/>
			<point x="449" y="387" type="curve" smooth="yes"/>
			<point x="470" y="387"/>
			<point x="487" y="407"/>
			<point x="487" y="427" type="curve" smooth="yes"/>
			<point x="487" y="441"/>
			<point x="480" y="453"/>
			<point x="468" y="462" type="curve"/>
			<point x="424" y="489"/>
			<point x="377" y="509"/>
			<point x="308" y="509" type="curve" smooth="yes"/>
			<point x="212" y="509"/>
			<point x="129" y="465"/>
			<point x="82" y="388" type="curve" smooth="yes"/>
			<point x="58" y="348"/>
			<point x="46" y="302"/>
			<point x="46" y="249" type="curve" smooth="yes"/>
			<point x="46" y="144"/>
			<point x="98" y="63"/>
			<point x="178" y="21" type="curve" smooth="yes"/>
			<point x="218" y="0"/>
			<point x="261" y="-11"/>
		</contour>
		<contour>
			<point x="272" y="553" type="curve" smooth="yes"/>
			<point x="310" y="553" type="line" smooth="yes"/>
			<point x="325" y="553"/>
			<point x="337" y="559"/>
			<point x="350" y="572" type="curve" smooth="yes"/>
			<point x="416" y="641" type="line" smooth="yes"/>
			<point x="420" y="646"/>
			<point x="424" y="652"/>
			<point x="424" y="660" type="curve" smooth="yes"/>
			<point x="425" y="675"/>
			<point x="410" y="690"/>
			<point x="394" y="690" type="curve" smooth="yes"/>
			<point x="387" y="690"/>
			<point x="381" y="688"/>
			<point x="375" y="684" type="curve"/>
			<point x="299" y="619" type="line" smooth="yes"/>
			<point x="294" y="614"/>
			<point x="288" y="614"/>
			<point x="283" y="619" type="curve" smooth="yes"/>
			<point x="207" y="684" type="line"/>
			<point x="201" y="688"/>
			<point x="195" y="690"/>
			<point x="188" y="690" type="curve" smooth="yes"/>
			<point x="172" y="690"/>
			<point x="157" y="675"/>
			<point x="158" y="660" type="curve" smooth="yes"/>
			<point x="158" y="652"/>
			<point x="162" y="646"/>
			<point x="166" y="641" type="curve" smooth="yes"/>
			<point x="232" y="572" type="line" smooth="yes"/>
			<point x="245" y="559"/>
			<point x="257" y="553"/>
		</contour>
	</outline>
</glyph>
<glyph name="eogonek" format="2">
	<advance width="553"/>
	<unicode hex="0119"/>
	<anchor x="538" y="522" name="odot"/>
	<note>
		eogonek
	</note>
	<outline>
		<contour>
			<point x="366" y="-199" type="curve" smooth="yes"/>
			<point x="399" y="-199"/>
			<point x="428" y="-191"/>
			<point x="451" y="-176" type="curve" smooth="yes"/>
			<point x="458" y="-171"/>
			<point x="462" y="-165"/>
			<point x="462" y="-157" type="curve" smooth="yes"/>
			<point x="462" y="-144"/>
			<point x="452" y="-135"/>
			<point x="439" y="-135" type="curve" smooth="yes"/>
			<point x="438" y="-135"/>
			<point x="436" y="-136"/>
			<point x="434" y="-136" type="curve" smooth="yes"/>
			<point x="433" y="-136"/>
			<point x="432" y="-137"/>
			<point x="431" y="-137" type="curve"/>
			<point x="418" y="-141"/>
			<point x="406" y="-143"/>
			<point x="396" y="-143" type="curve" smooth="yes"/>
			<point x="363" y="-143"/>
			<point x="348" y="-127"/>
			<point x="348" y="-98" type="curve" smooth="yes"/>
			<point x="348" y="-56"/>
			<point x="389" y="-22"/>
			<point x="468" y="29" type="curve" smooth="yes"/>
			<point x="487" y="42"/>
			<point x="497" y="56"/>
			<point x="497" y="69" type="curve" smooth="yes"/>
			<point x="497" y="92"/>
			<point x="478" y="108"/>
			<point x="457" y="108" type="curve" smooth="yes"/>
			<point x="450" y="108"/>
			<point x="444" y="107"/>
			<point x="439" y="104" type="curve" smooth="yes"/>
			<point x="400" y="85"/>
			<point x="362" y="74"/>
			<point x="308" y="74" type="curve" smooth="yes"/>
			<point x="208" y="74"/>
			<point x="149" y="125"/>
			<point x="138" y="217" type="curve"/>
			<point x="468" y="217" type="line" smooth="yes"/>
			<point x="495" y="217"/>
			<point x="514" y="237"/>
			<point x="514" y="262" type="curve" smooth="yes"/>
			<point x="514" y="353"/>
			<point x="475" y="432"/>
			<point x="406" y="476" type="curve" smooth="yes"/>
			<point x="370" y="498"/>
			<point x="328" y="509"/>
			<point x="280" y="509" type="curve" smooth="yes"/>
			<point x="178" y="509"/>
			<point x="105" y="456"/>
			<point x="71" y="377" type="curve" smooth="yes"/>
			<point x="55" y="337"/>
			<point x="46" y="294"/>
			<point x="46" y="249" type="curve" smooth="yes"/>
			<point x="46" y="86"/>
			<point x="139" y="-11"/>
			<point x="300" y="-11" type="curve" smooth="yes"/>
			<point x="339" y="-11" type="line"/>
			<point x="297" y="-40"/>
			<point x="274" y="-74"/>
			<point x="274" y="-116" type="curve" smooth="yes"/>
			<point x="274" y="-166"/>
			<point x="316" y="-199"/>
		</contour>
		<contour>
			<point x="138" y="291" type="line"/>
			<point x="142" y="351"/>
			<point x="170" y="396"/>
			<point x="215" y="417" type="curve" smooth="yes"/>
			<point x="237" y="427"/>
			<point x="259" y="432"/>
			<point x="280" y="432" type="curve" smooth="yes"/>
			<point x="324" y="432"/>
			<point x="370" y="412"/>
			<point x="399" y="369" type="curve" smooth="yes"/>
			<point x="412" y="352"/>
			<point x="420" y="330"/>
			<point x="423" y="304" type="curve" smooth="yes"/>
			<point x="424" y="295"/>
			<point x="419" y="291"/>
			<point x="411" y="291" type="curve" smooth="yes"/>
		</contour>
	</outline>
</glyph>
<glyph name="ecaron" format="2">
	<advance width="553"/>
	<unicode hex="011B"/>
	<anchor x="278" y="0" name="cedilla"/>
	<anchor x="538" y="522" name="odot"/>
	<note>
		ecaron
	</note>
	<outline>
		<contour>
			<point x="300" y="-11" type="curve" smooth="yes"/>
			<point x="378" y="-11"/>
			<point x="420" y="4"/>
			<point x="471" y="32" type="curve" smooth="yes"/>
			<point x="488" y="42"/>
			<point x="497" y="54"/>
			<point x="497" y="69" type="curve" smooth="yes"/>
			<point x="497" y="92"/>
			<point x="478" y="108"/>
			<point x="457" y="108" type="curve" smooth="yes"/>
			<point x="450" y="108"/>
			<point x="444" y="107"/>
			<point x="439" y="104" type="curve" smooth="yes"/>
			<point x="400" y="85"/>
			<point x="362" y="74"/>
			<point x="308" y="74" type="curve" smooth="yes"/>
			<point x="208" y="74"/>
			<point x="149" y="125"/>
			<point x="138" y="217" type="curve"/>
			<point x="468" y="217" type="line" smooth="yes"/>
			<point x="495" y="217"/>
			<point x="514" y="237"/>
			<point x="514" y="262" type="curve" smooth="yes"/>
			<point x="514" y="353"/>
			<point x="475" y="432"/>
			<point x="406" y="476" type="curve" smooth="yes"/>
			<point x="370" y="498"/>
			<point x="328" y="509"/>
			<point x="280" y="509" type="curve" smooth="yes"/>
			<point x="178" y="509"/>
			<point x="105" y="456"/>
			<point x="71" y="377" type="curve" smooth="yes"/>
			<point x="55" y="337"/>
			<point x="46" y="294"/>
			<point x="46" y="249" type="curve" smooth="yes"/>
			<point x="46" y="86"/>
			<point x="139" y="-11"/>
		</contour>
		<contour>
			<point x="138" y="291" type="line"/>
			<point x="142" y="351"/>
			<point x="170" y="396"/>
			<point x="215" y="417" type="curve" smooth="yes"/>
			<point x="237" y="427"/>
			<point x="259" y="432"/>
			<point x="280" y="432" type="curve" smooth="yes"/>
			<point x="324" y="432"/>
			<point x="370" y="412"/>
			<point x="399" y="369" type="curve" smooth="yes"/>
			<point x="412" y="352"/>
			<point x="420" y="330"/>
			<point x="423" y="304" type="curve" smooth="yes"/>
			<point x="424" y="295"/>
			<point x="419" y="291"/>
			<point x="411" y="291" type="curve" smooth="yes"/>
		</contour>
		<contour>
			<point x="260" y="553" type="curve" smooth="yes"/>
			<point x="297" y="553" type="line" smooth="yes"/>
			<point x="313" y="553"/>
			<point x="324" y="559"/>
			<point x="337" y="572" type="curve" smooth="yes"/>
			<point x="403" y="641" type="line" smooth="yes"/>
			<point x="407" y="646"/>
			<point x="411" y="652"/>
			<point x="411" y="660" type="curve" smooth="yes"/>
			<point x="412" y="675"/>
			<point x="397" y="690"/>
			<point x="381" y="690" type="curve" smooth="yes"/>
			<point x="374" y="690"/>
			<point x="368" y="688"/>
			<point x="362" y="684" type="curve"/>
			<point x="286" y="619" type="line" smooth="yes"/>
			<point x="281" y="614"/>
			<point x="275" y="614"/>
			<point x="271" y="619" type="curve"/>
			<point x="194" y="684" type="line"/>
			<point x="188" y="688"/>
			<point x="183" y="690"/>
			<point x="176" y="690" type="curve" smooth="yes"/>
			<point x="159" y="690"/>
			<point x="145" y="675"/>
			<point x="146" y="660" type="curve" smooth="yes"/>
			<point x="146" y="652"/>
			<point x="149" y="646"/>
			<point x="153" y="641" type="curve" smooth="yes"/>
			<point x="220" y="572" type="line" smooth="yes"/>
			<point x="232" y="559"/>
			<point x="244" y="553"/>
		</contour>
	</outline>
</glyph>
<glyph name="Gdotaccent" format="2">
	<advance width="739"/>
	<unicode hex="0120"/>
	<anchor x="396" y="857" name="top"/>
	<note>
		Gdotaccent
	</note>
	<outline>
		<contour>
			<point x="396" y="-11" type="curve" smooth="yes"/>
			<point x="473" y="-11"/>
			<point x="547" y="8"/>
			<point x="620" y="44" type="curve" smooth="yes"/>
			<point x="645" y="56"/>
			<point x="658" y="79"/>
			<point x="658" y="105" type="curve" smooth="yes"/>
			<point x="658" y="327" type="line" smooth="yes"/>
			<point x="658" y="354"/>
			<point x="637" y="375"/>
			<point x="610" y="375" type="curve" smooth="yes"/>
			<point x="418" y="375" type="line" smooth="yes"/>
			<point x="396" y="375"/>
			<point x="377" y="356"/>
			<point x="377" y="334" type="curve" smooth="yes"/>
			<point x="377" y="312"/>
			<point x="396" y="293"/>
			<point x="418" y="293" type="curve" smooth="yes"/>
			<point x="566" y="293" type="line" smooth="yes"/>
			<point x="574" y="293"/>
			<point x="578" y="289"/>
			<point x="578" y="281" type="curve" smooth="yes"/>
			<point x="578" y="118" type="line"/>
			<point x="525" y="90"/>
			<point x="470" y="75"/>
			<point x="408" y="75" type="curve" smooth="yes"/>
			<point x="302" y="75"/>
			<point x="219" y="122"/>
			<point x="176" y="204" type="curve" smooth="yes"/>
			<point x="154" y="244"/>
			<point x="144" y="289"/>
			<point x="144" y="340" type="curve" smooth="yes"/>
			<point x="144" y="447"/>
			<point x="189" y="530"/>
			<point x="270" y="573" type="curve" smooth="yes"/>
			<point x="311" y="594"/>
			<point x="354" y="604"/>
			<point x="403" y="604" type="curve" smooth="yes"/>
			<point x="475" y="604"/>
			<point x="533" y="586"/>
			<point x="595" y="550" type="curve"/>
			<point x="602" y="547"/>
			<point x="608" y="545"/>
			<point x="615" y="545" type="curve" smooth="yes"/>
			<point x="640" y="545"/>
			<point x="657" y="563"/>
			<point x="657" y="586" type="curve" smooth="yes"/>
			<point x="657" y="601"/>
			<point x="649" y="616"/>
			<point x="637" y="622" type="curve"/>
			<point x="566" y="666"/>
			<point x="495" y="692"/>
			<point x="394" y="692" type="curve" smooth="yes"/>
			<point x="268" y="692"/>
			<point x="157" y="631"/>
			<point x="98" y="523" type="curve" smooth="yes"/>
			<point x="67" y="470"/>
			<point x="53" y="409"/>
			<point x="53" y="340" type="curve" smooth="yes"/>
			<point x="53" y="205"/>
			<point x="112" y="94"/>
			<point x="218" y="34" type="curve" smooth="yes"/>
			<point x="270" y="4"/>
			<point x="329" y="-11"/>
		</contour>
		<contour>
			<point x="396" y="729" type="curve" smooth="yes"/>
			<point x="424" y="729"/>
			<point x="447" y="752"/>
			<point x="447" y="779" type="curve" smooth="yes"/>
			<point x="447" y="807"/>
			<point x="424" y="830"/>
			<point x="396" y="830" type="curve" smooth="yes"/>
			<point x="369" y="830"/>
			<point x="346" y="807"/>
			<point x="346" y="779" type="curve" smooth="yes"/>
			<point x="346" y="752"/>
			<point x="369" y="729"/>
		</contour>
	</outline>
</glyph>
<glyph name="Hcircumflex" format="2">
	<advance width="737"/>
	<unicode hex="0124"/>
	<anchor x="368" y="857" name="top"/>
	<note>
		Hcircumflex
	</note>
	<outline>
		<contour>
			<point x="139" y="-6" type="curve" smooth="yes"/>
			<point x="163" y="-6"/>
			<point x="185" y="14"/>
			<point x="185" y="39" type="curve" smooth="yes"/>
			<point x="185" y="298" type="line"/>
			<point x="553" y="298" type="line"/>
			<point x="553" y="39" type="line" smooth="yes"/>
			<point x="553" y="15"/>
			<point x="573" y="-6"/>
			<point x="598" y="-6" type="curve" smooth="yes"/>
			<point x="622" y="-6"/>
			<point x="644" y="14"/>
			<point x="644" y="39" type="curve" smooth="yes"/>
			<point x="644" y="642" type="line" smooth="yes"/>
			<point x="644" y="666"/>
			<point x="622" y="688"/>
			<point x="598" y="688" type="curve" smooth="yes"/>
			<point x="572" y="688"/>
			<point x="553" y="666"/>
			<point x="553" y="642" type="curve" smooth="yes"/>
			<point x="553" y="383" type="line"/>
			<point x="185" y="383" type="line"/>
			<point x="185" y="642" type="line" smooth="yes"/>
			<point x="185" y="666"/>
			<point x="163" y="688"/>
			<point x="139" y="688" type="curve" smooth="yes"/>
			<point x="113" y="688"/>
			<point x="94" y="666"/>
			<point x="94" y="642" type="curve" smooth="yes"/>
			<point x="94" y="39" type="line" smooth="yes"/>
			<point x="94" y="15"/>
			<point x="114" y="-6"/>
		</contour>
		<contour>
			<point x="267" y="720" type="curve" smooth="yes"/>
			<point x="273" y="720"/>
			<point x="279" y="722"/>
			<point x="285" y="727" type="curve" smooth="yes"/>
			<point x="361" y="791" type="line" smooth="yes"/>
			<point x="366" y="796"/>
			<point x="372" y="796"/>
			<point x="377" y="791" type="curve" smooth="yes"/>
			<point x="453" y="727" type="line" smooth="yes"/>
			<point x="459" y="722"/>
			<point x="465" y="720"/>
			<point x="472" y="720" type="curve" smooth="yes"/>
			<point x="488" y="720"/>
			<point x="503" y="735"/>
			<point x="502" y="750" type="curve" smooth="yes"/>
			<point x="502" y="758"/>
			<point x="498" y="765"/>
			<point x="494" y="770" type="curve" smooth="yes"/>
			<point x="428" y="838" type="line" smooth="yes"/>
			<point x="415" y="852"/>
			<point x="403" y="857"/>
			<point x="388" y="857" type="curve" smooth="yes"/>
			<point x="351" y="857" type="line" smooth="yes"/>
			<point x="335" y="857"/>
			<point x="323" y="852"/>
			<point x="311" y="838" type="curve" smooth="yes"/>
			<point x="244" y="770" type="line" smooth="yes"/>
			<point x="240" y="765"/>
			<point x="236" y="758"/>
			<point x="236" y="750" type="curve" smooth="yes"/>
			<point x="235" y="735"/>
			<point x="250" y="720"/>
		</contour>
	</outline>
</glyph>
<glyph name="hcircumflex" format="2">
	<advance width="595"/>
	<unicode hex="0125"/>
	<note>
		hcircumflex
	</note>
	<outline>
		<contour>
			<point x="121" y="-6" type="curve" smooth="yes"/>
			<point x="146" y="-6"/>
			<point x="167" y="14"/>
			<point x="167" y="39" type="curve" smooth="yes"/>
			<point x="167" y="332" type="line"/>
			<point x="213" y="389"/>
			<point x="261" y="425"/>
			<point x="326" y="425" type="curve" smooth="yes"/>
			<point x="396" y="425"/>
			<point x="433" y="386"/>
			<point x="433" y="307" type="curve" smooth="yes"/>
			<point x="433" y="39" type="line" smooth="yes"/>
			<point x="433" y="15"/>
			<point x="453" y="-6"/>
			<point x="478" y="-6" type="curve" smooth="yes"/>
			<point x="502" y="-6"/>
			<point x="523" y="14"/>
			<point x="523" y="39" type="curve" smooth="yes"/>
			<point x="523" y="316" type="line" smooth="yes"/>
			<point x="523" y="388"/>
			<point x="494" y="449"/>
			<point x="442" y="483" type="curve" smooth="yes"/>
			<point x="414" y="501"/>
			<point x="383" y="509"/>
			<point x="348" y="509" type="curve" smooth="yes"/>
			<point x="271" y="509"/>
			<point x="217" y="475"/>
			<point x="167" y="421" type="curve"/>
			<point x="167" y="673" type="line" smooth="yes"/>
			<point x="167" y="697"/>
			<point x="146" y="719"/>
			<point x="121" y="719" type="curve" smooth="yes"/>
			<point x="96" y="719"/>
			<point x="76" y="697"/>
			<point x="76" y="673" type="curve" smooth="yes"/>
			<point x="76" y="39" type="line" smooth="yes"/>
			<point x="76" y="15"/>
			<point x="97" y="-6"/>
		</contour>
		<contour>
			<point x="197" y="753" type="curve" smooth="yes"/>
			<point x="204" y="753"/>
			<point x="210" y="755"/>
			<point x="216" y="760" type="curve" smooth="yes"/>
			<point x="292" y="824" type="line" smooth="yes"/>
			<point x="297" y="829"/>
			<point x="303" y="829"/>
			<point x="308" y="824" type="curve" smooth="yes"/>
			<point x="384" y="760" type="line" smooth="yes"/>
			<point x="390" y="755"/>
			<point x="396" y="753"/>
			<point x="402" y="753" type="curve" smooth="yes"/>
			<point x="419" y="753"/>
			<point x="434" y="769"/>
			<point x="433" y="783" type="curve" smooth="yes"/>
			<point x="433" y="791"/>
			<point x="429" y="798"/>
			<point x="425" y="803" type="curve" smooth="yes"/>
			<point x="358" y="871" type="line" smooth="yes"/>
			<point x="346" y="885"/>
			<point x="334" y="891"/>
			<point x="318" y="891" type="curve" smooth="yes"/>
			<point x="281" y="891" type="line" smooth="yes"/>
			<point x="266" y="891"/>
			<point x="254" y="885"/>
			<point x="241" y="871" type="curve" smooth="yes"/>
			<point x="175" y="803" type="line" smooth="yes"/>
			<point x="171" y="798"/>
			<point x="167" y="791"/>
			<point x="167" y="783" type="curve" smooth="yes"/>
			<point x="166" y="769"/>
			<point x="181" y="753"/>
		</contour>
	</outline>
</glyph>
<glyph name="imacron" format="2">
	<advance width="243"/>
	<unicode hex="012B"/>
	<anchor x="255" y="464" name="odot"/>
	<note>
		imacron
	</note>
	<outline>
		<contour>
			<point x="121" y="-6" type="curve" smooth="yes"/>
			<point x="146" y="-6"/>
			<point x="167" y="14"/>
			<point x="167" y="39" type="curve" smooth="yes"/>
			<point x="167" y="458" type="line" smooth="yes"/>
			<point x="167" y="484"/>
			<point x="147" y="504"/>
			<point x="121" y="504" type="curve" smooth="yes"/>
			<point x="96" y="504"/>
			<point x="76" y="482"/>
			<point x="76" y="458" type="curve" smooth="yes"/>
			<point x="76" y="39" type="line" smooth="yes"/>
			<point x="76" y="15"/>
			<point x="97" y="-6"/>
		</contour>
		<contour>
			<point x="37" y="573" type="curve" smooth="yes"/>
			<point x="207" y="573" type="line" smooth="yes"/>
			<point x="224" y="573"/>
			<point x="237" y="587"/>
			<point x="237" y="604" type="curve" smooth="yes"/>
			<point x="237" y="620"/>
			<point x="224" y="634"/>
			<point x="207" y="634" type="curve" smooth="yes"/>
			<point x="37" y="634" type="line" smooth="yes"/>
			<point x="21" y="634"/>
			<point x="7" y="620"/>
			<point x="7" y="604" type="curve" smooth="yes"/>
			<point x="7" y="587"/>
			<point x="21" y="573"/>
		</contour>
	</outline>
</glyph>
<glyph name="Ibreve" format="2">
	<advance width="278"/>
	<unicode hex="012C"/>
	<anchor x="275" y="692" name="odot"/>
	<anchor x="140" y="857" name="top"/>
	<note>
		Ibreve
	</note>
	<outline>
		<contour>
			<point x="139" y="-6" type="curve" smooth="yes"/>
			<point x="163" y="-6"/>
			<point x="185" y="14"/>
			<point x="185" y="39" type="curve" smooth="yes"/>
			<point x="185" y="642" type="line" smooth="yes"/>
			<point x="185" y="666"/>
			<point x="163" y="688"/>
			<point x="139" y="688" type="curve" smooth="yes"/>
			<point x="113" y="688"/>
			<point x="94" y="666"/>
			<point x="94" y="642" type="curve" smooth="yes"/>
			<point x="94" y="39" type="line" smooth="yes"/>
			<point x="94" y="15"/>
			<point x="114" y="-6"/>
		</contour>
		<contour>
			<point x="140" y="729" type="curve" smooth="yes"/>
			<point x="201" y="729"/>
			<point x="253" y="761"/>
			<point x="277" y="810" type="curve" smooth="yes"/>
			<point x="279" y="813"/>
			<point x="280" y="818"/>
			<point x="280" y="823" type="curve" smooth="yes"/>
			<point x="280" y="840"/>
			<point x="268" y="854"/>
			<point x="249" y="854" type="curve" smooth="yes"/>
			<point x="235" y="854"/>
			<point x="227" y="848"/>
			<point x="221" y="835" type="curve" smooth="yes"/>
			<point x="206" y="806"/>
			<point x="178" y="788"/>
			<point x="140" y="788" type="curve" smooth="yes"/>
			<point x="102" y="788"/>
			<point x="73" y="806"/>
			<point x="59" y="835" type="curve" smooth="yes"/>
			<point x="53" y="848"/>
			<point x="44" y="854"/>
			<point x="30" y="854" type="curve" smooth="yes"/>
			<point x="12" y="854"/>
			<point x="-1" y="840"/>
			<point x="-1" y="823" type="curve" smooth="yes"/>
			<point x="-1" y="818"/>
			<point x="0" y="813"/>
			<point x="2" y="810" type="curve" smooth="yes"/>
			<point x="26" y="761"/>
			<point x="78" y="729"/>
		</contour>
	</outline>
</glyph>
<glyph name="ibreve" format="2">
	<advance width="243"/>
	<unicode hex="012D"/>
	<anchor x="255" y="493" name="odot"/>
	<note>
		ibreve
	</note>
	<outline>
		<contour>
			<point x="121" y="-6" type="curve" smooth="yes"/>
			<point x="146" y="-6"/>
			<point x="167" y="14"/>
			<point x="167" y="39" type="curve" smooth="yes"/>
			<point x="167" y="458" type="line" smooth="yes"/>
			<point x="167" y="484"/>
			<point x="147" y="504"/>
			<point x="121" y="504" type="curve" smooth="yes"/>
			<point x="96" y="504"/>
			<point x="76" y="482"/>
			<point x="76" y="458" type="curve" smooth="yes"/>
			<point x="76" y="39" type="line" smooth="yes"/>
			<point x="76" y="15"/>
			<point x="97" y="-6"/>
		</contour>
		<contour>
			<point x="122" y="562" type="curve" smooth="yes"/>
			<point x="185" y="562"/>
			<point x="237" y="591"/>
			<point x="260" y="642" type="curve" smooth="yes"/>
			<point x="262" y="646"/>
			<point x="263" y="650"/>
			<point x="263" y="655" type="curve" smooth="yes"/>
			<point x="263" y="672"/>
			<point x="250" y="687"/>
			<point x="231" y="687" type="curve" smooth="yes"/>
			<point x="218" y="687"/>
			<point x="209" y="680"/>
			<point x="203" y="667" type="curve" smooth="yes"/>
			<point x="188" y="638"/>
			<point x="160" y="620"/>
			<point x="122" y="620" type="curve" smooth="yes"/>
			<point x="84" y="620"/>
			<point x="56" y="638"/>
			<point x="41" y="667" type="curve" smooth="yes"/>
			<point x="35" y="680"/>
			<point x="26" y="687"/>
			<point x="13" y="687" type="curve" smooth="yes"/>
			<point x="-6" y="687"/>
			<point x="-19" y="672"/>
			<point x="-19" y="655" type="curve" smooth="yes"/>
			<point x="-19" y="650"/>
			<point x="-18" y="646"/>
			<point x="-16" y="642" type="curve" smooth="yes"/>
			<point x="7" y="591"/>
			<point x="60" y="562"/>
		</contour>
	</outline>
</glyph>
<glyph name="jcircumflex" format="2">
	<advance width="248"/>
	<unicode hex="0135"/>
	<anchor x="255" y="464" name="odot"/>
	<note>
		jcircumflex
	</note>
	<outline>
		<contour>
			<point x="43" y="-235" type="curve" smooth="yes"/>
			<point x="127" y="-235"/>
			<point x="172" y="-188"/>
			<point x="172" y="-101" type="curve" smooth="yes"/>
			<point x="172" y="457" type="line" smooth="yes"/>
			<point x="172" y="483"/>
			<point x="152" y="503"/>
			<point x="126" y="503" type="curve" smooth="yes"/>
			<point x="101" y="503"/>
			<point x="81" y="481"/>
			<point x="81" y="457" type="curve" smooth="yes"/>
			<point x="81" y="-99" type="line" smooth="yes"/>
			<point x="81" y="-146"/>
			<point x="63" y="-155"/>
			<point x="22" y="-155" type="curve" smooth="yes"/>
			<point x="19" y="-155"/>
			<point x="14" y="-155"/>
			<point x="8" y="-154" type="curve" smooth="yes"/>
			<point x="5" y="-154" type="line" smooth="yes"/>
			<point x="0" y="-153"/>
			<point x="-4" y="-152"/>
			<point x="-7" y="-152" type="curve" smooth="yes"/>
			<point x="-28" y="-152"/>
			<point x="-45" y="-171"/>
			<point x="-45" y="-190" type="curve" smooth="yes"/>
			<point x="-45" y="-207"/>
			<point x="-35" y="-222"/>
			<point x="-19" y="-227" type="curve" smooth="yes"/>
			<point x="-1" y="-232"/>
			<point x="20" y="-235"/>
		</contour>
		<contour>
			<point x="24" y="552" type="curve" smooth="yes"/>
			<point x="31" y="552"/>
			<point x="37" y="554"/>
			<point x="43" y="559" type="curve" smooth="yes"/>
			<point x="119" y="623" type="line" smooth="yes"/>
			<point x="124" y="628"/>
			<point x="130" y="628"/>
			<point x="135" y="623" type="curve" smooth="yes"/>
			<point x="211" y="559" type="line" smooth="yes"/>
			<point x="217" y="554"/>
			<point x="223" y="552"/>
			<point x="229" y="552" type="curve" smooth="yes"/>
			<point x="246" y="552"/>
			<point x="261" y="567"/>
			<point x="260" y="582" type="curve" smooth="yes"/>
			<point x="260" y="590"/>
			<point x="256" y="597"/>
			<point x="252" y="602" type="curve" smooth="yes"/>
			<point x="186" y="670" type="line" smooth="yes"/>
			<point x="173" y="684"/>
			<point x="161" y="689"/>
			<point x="146" y="689" type="curve" smooth="yes"/>
			<point x="108" y="689" type="line" smooth="yes"/>
			<point x="93" y="689"/>
			<point x="81" y="684"/>
			<point x="68" y="670" type="curve" smooth="yes"/>
			<point x="2" y="602" type="line" smooth="yes"/>
			<point x="-2" y="597"/>
			<point x="-6" y="590"/>
			<point x="-6" y="582" type="curve" smooth="yes"/>
			<point x="-7" y="567"/>
			<point x="8" y="552"/>
		</contour>
	</outline>
</glyph>
<glyph name="Lcommaaccent" format="2">
	<advance width="563"/>
	<unicode hex="013B"/>
	<anchor x="139" y="687" name="top"/>
	<note>
		uni013B
	</note>
	<outline>
		<contour>
			<point x="156" y="-1" type="curve" smooth="yes"/>
			<point x="503" y="-1" type="line" smooth="yes"/>
			<point x="527" y="-1"/>
			<point x="549" y="19"/>
			<point x="549" y="44" type="curve" smooth="yes"/>
			<point x="549" y="68"/>
			<point x="527" y="90"/>
			<point x="503" y="90" type="curve" smooth="yes"/>
			<point x="196" y="90" type="line" smooth="yes"/>
			<point x="188" y="90"/>
			<point x="185" y="94"/>
			<point x="185" y="102" type="curve" smooth="yes"/>
			<point x="185" y="642" type="line" smooth="yes"/>
			<point x="185" y="666"/>
			<point x="163" y="688"/>
			<point x="139" y="688" type="curve" smooth="yes"/>
			<point x="113" y="688"/>
			<point x="94" y="666"/>
			<point x="94" y="642" type="curve" smooth="yes"/>
			<point x="94" y="62" type="line" smooth="yes"/>
			<point x="94" y="27"/>
			<point x="122" y="-1"/>
		</contour>
		<contour>
			<point x="292" y="-258" type="curve" smooth="yes"/>
			<point x="297" y="-258"/>
			<point x="303" y="-256"/>
			<point x="309" y="-253" type="curve" smooth="yes"/>
			<point x="348" y="-229"/>
			<point x="375" y="-197"/>
			<point x="375" y="-146" type="curve" smooth="yes"/>
			<point x="375" y="-114" type="line" smooth="yes"/>
			<point x="375" y="-84"/>
			<point x="354" y="-62"/>
			<point x="325" y="-62" type="curve" smooth="yes"/>
			<point x="297" y="-62"/>
			<point x="275" y="-85"/>
			<point x="275" y="-112" type="curve" smooth="yes"/>
			<point x="275" y="-141"/>
			<point x="296" y="-160"/>
			<point x="323" y="-160" type="curve"/>
			<point x="323" y="-183"/>
			<point x="309" y="-196"/>
			<point x="281" y="-213" type="curve" smooth="yes"/>
			<point x="274" y="-218"/>
			<point x="270" y="-225"/>
			<point x="270" y="-234" type="curve" smooth="yes"/>
			<point x="270" y="-247"/>
			<point x="279" y="-258"/>
		</contour>
	</outline>
</glyph>
<glyph name="ldot" format="2">
	<advance width="263"/>
	<unicode hex="0140"/>
	<note>
		ldot
	</note>
	<outline>
		<contour>
			<point x="121" y="-6" type="curve" smooth="yes"/>
			<point x="146" y="-6"/>
			<point x="167" y="14"/>
			<point x="167" y="39" type="curve" smooth="yes"/>
			<point x="167" y="673" type="line" smooth="yes"/>
			<point x="167" y="699"/>
			<point x="147" y="719"/>
			<point x="121" y="719" type="curve" smooth="yes"/>
			<point x="96" y="719"/>
			<point x="76" y="697"/>
			<point x="76" y="673" type="curve" smooth="yes"/>
			<point x="76" y="39" type="line" smooth="yes"/>
			<point x="76" y="15"/>
			<point x="97" y="-6"/>
		</contour>
		<contour>
			<point x="254" y="308" type="curve" smooth="yes"/>
			<point x="281" y="308"/>
			<point x="305" y="331"/>
			<point x="305" y="358" type="curve" smooth="yes"/>
			<point x="305" y="386"/>
			<point x="281" y="409"/>
			<point x="254" y="409" type="curve" smooth="yes"/>
			<point x="227" y="409"/>
			<point x="203" y="386"/>
			<point x="203" y="358" type="curve" smooth="yes"/>
			<point x="203" y="331"/>
			<point x="227" y="308"/>
		</contour>
	</outline>
</glyph>
<glyph name="Lslash" format="2">
	<advance width="567"/>
	<unicode hex="0141"/>
	<anchor x="145" y="688" name="top"/>
	<note>
		Lslash
	</note>
	<outline>
		<contour>
			<point x="161" y="-1" type="curve" smooth="yes"/>
			<point x="508" y="-1" type="line" smooth="yes"/>
			<point x="532" y="-1"/>
			<point x="554" y="19"/>
			<point x="554" y="44" type="curve" smooth="yes"/>
			<point x="554" y="68"/>
			<point x="532" y="90"/>
			<point x="508" y="90" type="curve" smooth="yes"/>
			<point x="201" y="90" type="line" smooth="yes"/>
			<point x="193" y="90"/>
			<point x="189" y="94"/>
			<point x="189" y="102" type="curve" smooth="yes"/>
			<point x="189" y="384" type="line"/>
			<point x="295" y="488" type="line" smooth="yes"/>
			<point x="304" y="497"/>
			<point x="309" y="507"/>
			<point x="309" y="518" type="curve" smooth="yes"/>
			<point x="309" y="536"/>
			<point x="292" y="553"/>
			<point x="273" y="553" type="curve" smooth="yes"/>
			<point x="263" y="553"/>
			<point x="254" y="548"/>
			<point x="246" y="541" type="curve" smooth="yes"/>
			<point x="189" y="483" type="line"/>
			<point x="189" y="642" type="line" smooth="yes"/>
			<point x="189" y="666"/>
			<point x="168" y="688"/>
			<point x="144" y="688" type="curve" smooth="yes"/>
			<point x="118" y="688"/>
			<point x="99" y="666"/>
			<point x="99" y="642" type="curve" smooth="yes"/>
			<point x="99" y="392" type="line"/>
			<point x="33" y="327" type="line" smooth="yes"/>
			<point x="24" y="318"/>
			<point x="20" y="309"/>
			<point x="20" y="297" type="curve" smooth="yes"/>
			<point x="20" y="277"/>
			<point x="35" y="264"/>
			<point x="54" y="264" type="curve" smooth="yes"/>
			<point x="65" y="264"/>
			<point x="75" y="269"/>
			<point x="84" y="277" type="curve" smooth="yes"/>
			<point x="99" y="293" type="line"/>
			<point x="99" y="62" type="line" smooth="yes"/>
			<point x="99" y="27"/>
			<point x="127" y="-1"/>
		</contour>
	</outline>
</glyph>
<glyph name="nacute" format="2">
	<advance width="595"/>
	<unicode hex="0144"/>
	<note>
		nacute
	</note>
	<outline>
		<contour>
			<point x="121" y="-6" type="curve" smooth="yes"/>
			<point x="146" y="-6"/>
			<point x="167" y="14"/>
			<point x="167" y="39" type="curve" smooth="yes"/>
			<point x="167" y="332" type="line"/>
			<point x="213" y="389"/>
			<point x="261" y="425"/>
			<point x="326" y="425" type="curve" smooth="yes"/>
			<point x="396" y="425"/>
			<point x="433" y="386"/>
			<point x="433" y="307" type="curve" smooth="yes"/>
			<point x="433" y="39" type="line" smooth="yes"/>
			<point x="433" y="15"/>
			<point x="453" y="-6"/>
			<point x="478" y="-6" type="curve" smooth="yes"/>
			<point x="502" y="-6"/>
			<point x="523" y="14"/>
			<point x="523" y="39" type="curve" smooth="yes"/>
			<point x="523" y="316" type="line" smooth="yes"/>
			<point x="523" y="388"/>
			<point x="494" y="449"/>
			<point x="442" y="483" type="curve" smooth="yes"/>
			<point x="414" y="501"/>
			<point x="383" y="509"/>
			<point x="348" y="509" type="curve" smooth="yes"/>
			<point x="271" y="509"/>
			<point x="217" y="475"/>
			<point x="167" y="421" type="curve"/>
			<point x="167" y="458" type="line" smooth="yes"/>
			<point x="167" y="482"/>
			<point x="146" y="504"/>
			<point x="121" y="504" type="curve" smooth="yes"/>
			<point x="96" y="504"/>
			<point x="76" y="482"/>
			<point x="76" y="458" type="curve" smooth="yes"/>
			<point x="76" y="39" type="line" smooth="yes"/>
			<point x="76" y="15"/>
			<point x="97" y="-6"/>
		</contour>
		<contour>
			<point x="298" y="553" type="curve" smooth="yes"/>
			<point x="307" y="553"/>
			<point x="314" y="557"/>
			<point x="320" y="563" type="curve" smooth="yes"/>
			<point x="388" y="644" type="line"/>
			<point x="395" y="650"/>
			<point x="397" y="660"/>
			<point x="397" y="669" type="curve" smooth="yes"/>
			<point x="397" y="691"/>
			<point x="381" y="706"/>
			<point x="360" y="706" type="curve" smooth="yes"/>
			<point x="346" y="706"/>
			<point x="334" y="700"/>
			<point x="327" y="687" type="curve" smooth="yes"/>
			<point x="277" y="600" type="line" smooth="yes"/>
			<point x="273" y="593"/>
			<point x="271" y="587"/>
			<point x="271" y="580" type="curve" smooth="yes"/>
			<point x="271" y="563"/>
			<point x="282" y="553"/>
		</contour>
	</outline>
</glyph>
<glyph name="ncommaaccent" format="2">
	<advance width="595"/>
	<unicode hex="0146"/>
	<note>
		uni0146
	</note>
	<outline>
		<contour>
			<point x="121" y="-6" type="curve" smooth="yes"/>
			<point x="146" y="-6"/>
			<point x="167" y="14"/>
			<point x="167" y="39" type="curve" smooth="yes"/>
			<point x="167" y="332" type="line"/>
			<point x="213" y="389"/>
			<point x="261" y="425"/>
			<point x="326" y="425" type="curve" smooth="yes"/>
			<point x="396" y="425"/>
			<point x="433" y="386"/>
			<point x="433" y="307" type="curve" smooth="yes"/>
			<point x="433" y="39" type="line" smooth="yes"/>
			<point x="433" y="15"/>
			<point x="453" y="-6"/>
			<point x="478" y="-6" type="curve" smooth="yes"/>
			<point x="502" y="-6"/>
			<point x="523" y="14"/>
			<point x="523" y="39" type="curve" smooth="yes"/>
			<point x="523" y="316" type="line" smooth="yes"/>
			<point x="523" y="388"/>
			<point x="494" y="449"/>
			<point x="442" y="483" type="curve" smooth="yes"/>
			<point x="414" y="501"/>
			<point x="383" y="509"/>
			<point x="348" y="509" type="curve" smooth="yes"/>
			<point x="271" y="509"/>
			<point x="217" y="475"/>
			<point x="167" y="421" type="curve"/>
			<point x="167" y="458" type="line" smooth="yes"/>
			<point x="167" y="482"/>
			<point x="146" y="504"/>
			<point x="121" y="504" type="curve" smooth="yes"/>
			<point x="96" y="504"/>
			<point x="76" y="482"/>
			<point x="76" y="458" type="curve" smooth="yes"/>
			<point x="76" y="39" type="line" smooth="yes"/>
			<point x="76" y="15"/>
			<point x="97" y="-6"/>
		</contour>
		<contour>
			<point x="269" y="-258" type="curve" smooth="yes"/>
			<point x="273" y="-258"/>
			<point x="279" y="-256"/>
			<point x="285" y="-253" type="curve" smooth="yes"/>
			<point x="324" y="-229"/>
			<point x="352" y="-197"/>
			<point x="352" y="-146" type="curve" smooth="yes"/>
			<point x="352" y="-114" type="line" smooth="yes"/>
			<point x="352" y="-84"/>
			<point x="331" y="-62"/>
			<point x="302" y="-62" type="curve" smooth="yes"/>
			<point x="273" y="-62"/>
			<point x="252" y="-85"/>
			<point x="252" y="-112" type="curve" smooth="yes"/>
			<point x="252" y="-141"/>
			<point x="272" y="-160"/>
			<point x="300" y="-160" type="curve"/>
			<point x="300" y="-183"/>
			<point x="285" y="-196"/>
			<point x="258" y="-213" type="curve" smooth="yes"/>
			<point x="251" y="-218"/>
			<point x="246" y="-225"/>
			<point x="246" y="-234" type="curve" smooth="yes"/>
			<point x="246" y="-247"/>
			<point x="256" y="-258"/>
		</contour>
	</outline>
</glyph>
<glyph name="Ncaron" format="2">
	<advance width="784"/>
	<unicode hex="0147"/>
	<anchor x="385" y="858" name="top"/>
	<note>
		Ncaron
	</note>
	<outline>
		<contour>
			<point x="139" y="-6" type="curve" smooth="yes"/>
			<point x="163" y="-6"/>
			<point x="185" y="14"/>
			<point x="185" y="39" type="curve" smooth="yes"/>
			<point x="185" y="540" type="line" smooth="yes"/>
			<point x="185" y="551"/>
			<point x="192" y="554"/>
			<point x="198" y="544" type="curve" smooth="yes"/>
			<point x="561" y="21" type="line" smooth="yes"/>
			<point x="572" y="5"/>
			<point x="593" y="-6"/>
			<point x="613" y="-6" type="curve" smooth="yes"/>
			<point x="625" y="-6" type="line" smooth="yes"/>
			<point x="660" y="-6"/>
			<point x="690" y="22"/>
			<point x="690" y="59" type="curve" smooth="yes"/>
			<point x="690" y="642" type="line" smooth="yes"/>
			<point x="690" y="666"/>
			<point x="669" y="688"/>
			<point x="645" y="688" type="curve" smooth="yes"/>
			<point x="619" y="688"/>
			<point x="600" y="666"/>
			<point x="600" y="642" type="curve" smooth="yes"/>
			<point x="600" y="142" type="line" smooth="yes"/>
			<point x="600" y="131"/>
			<point x="592" y="128"/>
			<point x="586" y="138" type="curve" smooth="yes"/>
			<point x="226" y="658" type="line"/>
			<point x="211" y="677"/>
			<point x="192" y="688"/>
			<point x="171" y="688" type="curve" smooth="yes"/>
			<point x="158" y="688" type="line" smooth="yes"/>
			<point x="122" y="688"/>
			<point x="94" y="657"/>
			<point x="94" y="622" type="curve" smooth="yes"/>
			<point x="94" y="39" type="line" smooth="yes"/>
			<point x="94" y="15"/>
			<point x="114" y="-6"/>
		</contour>
		<contour>
			<point x="374" y="721" type="curve" smooth="yes"/>
			<point x="411" y="721" type="line" smooth="yes"/>
			<point x="427" y="721"/>
			<point x="438" y="727"/>
			<point x="451" y="740" type="curve" smooth="yes"/>
			<point x="518" y="809" type="line"/>
			<point x="521" y="813"/>
			<point x="525" y="820"/>
			<point x="525" y="828" type="curve" smooth="yes"/>
			<point x="526" y="843"/>
			<point x="512" y="858"/>
			<point x="495" y="858" type="curve" smooth="yes"/>
			<point x="488" y="858"/>
			<point x="482" y="856"/>
			<point x="477" y="852" type="curve" smooth="yes"/>
			<point x="400" y="787" type="line"/>
			<point x="396" y="782"/>
			<point x="390" y="782"/>
			<point x="385" y="787" type="curve" smooth="yes"/>
			<point x="309" y="852" type="line"/>
			<point x="303" y="856"/>
			<point x="297" y="858"/>
			<point x="290" y="858" type="curve" smooth="yes"/>
			<point x="273" y="858"/>
			<point x="259" y="843"/>
			<point x="260" y="828" type="curve" smooth="yes"/>
			<point x="260" y="820"/>
			<point x="264" y="813"/>
			<point x="268" y="809" type="curve" smooth="yes"/>
			<point x="334" y="740" type="line" smooth="yes"/>
			<point x="347" y="727"/>
			<point x="358" y="721"/>
		</contour>
	</outline>
</glyph>
<glyph name="ncaron" format="2">
	<advance width="595"/>
	<unicode hex="0148"/>
	<note>
		ncaron
	</note>
	<outline>
		<contour>
			<point x="121" y="-6" type="curve" smooth="yes"/>
			<point x="146" y="-6"/>
			<point x="167" y="14"/>
			<point x="167" y="39" type="curve" smooth="yes"/>
			<point x="167" y="332" type="line"/>
			<point x="213" y="389"/>
			<point x="261" y="425"/>
			<point x="326" y="425" type="curve" smooth="yes"/>
			<point x="396" y="425"/>
			<point x="433" y="386"/>
			<point x="433" y="307" type="curve" smooth="yes"/>
			<point x="433" y="39" type="line" smooth="yes"/>
			<point x="433" y="15"/>
			<point x="453" y="-6"/>
			<point x="478" y="-6" type="curve" smooth="yes"/>
			<point x="502" y="-6"/>
			<point x="523" y="14"/>
			<point x="523" y="39" type="curve" smooth="yes"/>
			<point x="523" y="316" type="line" smooth="yes"/>
			<point x="523" y="388"/>
			<point x="494" y="449"/>
			<point x="442" y="483" type="curve" smooth="yes"/>
			<point x="414" y="501"/>
			<point x="383" y="509"/>
			<point x="348" y="509" type="curve" smooth="yes"/>
			<point x="271" y="509"/>
			<point x="217" y="475"/>
			<point x="167" y="421" type="curve"/>
			<point x="167" y="458" type="line" smooth="yes"/>
			<point x="167" y="482"/>
			<point x="146" y="504"/>
			<point x="121" y="504" type="curve" smooth="yes"/>
			<point x="96" y="504"/>
			<point x="76" y="482"/>
			<point x="76" y="458" type="curve" smooth="yes"/>
			<point x="76" y="39" type="line" smooth="yes"/>
			<point x="76" y="15"/>
			<point x="97" y="-6"/>
		</contour>
		<contour>
			<point x="279" y="553" type="curve" smooth="yes"/>
			<point x="316" y="553" type="line" smooth="yes"/>
			<point x="332" y="553"/>
			<point x="344" y="559"/>
			<point x="356" y="572" type="curve" smooth="yes"/>
			<point x="423" y="641" type="line" smooth="yes"/>
			<point x="427" y="646"/>
			<point x="431" y="652"/>
			<point x="431" y="660" type="curve" smooth="yes"/>
			<point x="432" y="675"/>
			<point x="417" y="690"/>
			<point x="400" y="690" type="curve" smooth="yes"/>
			<point x="394" y="690"/>
			<point x="388" y="688"/>
			<point x="382" y="684" type="curve"/>
			<point x="306" y="619" type="line" smooth="yes"/>
			<point x="301" y="614"/>
			<point x="295" y="614"/>
			<point x="290" y="619" type="curve" smooth="yes"/>
			<point x="214" y="684" type="line"/>
			<point x="208" y="688"/>
			<point x="202" y="690"/>
			<point x="195" y="690" type="curve" smooth="yes"/>
			<point x="179" y="690"/>
			<point x="164" y="675"/>
			<point x="165" y="660" type="curve" smooth="yes"/>
			<point x="165" y="652"/>
			<point x="169" y="646"/>
			<point x="173" y="641" type="curve" smooth="yes"/>
			<point x="239" y="572" type="line" smooth="yes"/>
			<point x="252" y="559"/>
			<point x="264" y="553"/>
		</contour>
	</outline>
</glyph>
<glyph name="napostrophe" format="2">
	<advance width="595"/>
	<unicode hex="0149"/>
	<note>
		napostrophe
	</note>
	<outline>
		<contour>
			<point x="121" y="-6" type="curve" smooth="yes"/>
			<point x="146" y="-6"/>
			<point x="167" y="14"/>
			<point x="167" y="39" type="curve" smooth="yes"/>
			<point x="167" y="332" type="line"/>
			<point x="213" y="389"/>
			<point x="261" y="425"/>
			<point x="326" y="425" type="curve" smooth="yes"/>
			<point x="396" y="425"/>
			<point x="433" y="386"/>
			<point x="433" y="307" type="curve" smooth="yes"/>
			<point x="433" y="39" type="line" smooth="yes"/>
			<point x="433" y="15"/>
			<point x="453" y="-6"/>
			<point x="478" y="-6" type="curve" smooth="yes"/>
			<point x="502" y="-6"/>
			<point x="523" y="14"/>
			<point x="523" y="39" type="curve" smooth="yes"/>
			<point x="523" y="316" type="line" smooth="yes"/>
			<point x="523" y="388"/>
			<point x="494" y="449"/>
			<point x="442" y="483" type="curve" smooth="yes"/>
			<point x="414" y="501"/>
			<point x="383" y="509"/>
			<point x="348" y="509" type="curve" smooth="yes"/>
			<point x="271" y="509"/>
			<point x="217" y="475"/>
			<point x="167" y="421" type="curve"/>
			<point x="167" y="458" type="line" smooth="yes"/>
			<point x="167" y="482"/>
			<point x="146" y="504"/>
			<point x="121" y="504" type="curve" smooth="yes"/>
			<point x="96" y="504"/>
			<point x="76" y="482"/>
			<point x="76" y="458" type="curve" smooth="yes"/>
			<point x="76" y="39" type="line" smooth="yes"/>
			<point x="76" y="15"/>
			<point x="97" y="-6"/>
		</contour>
		<contour>
			<point x="-1" y="540" type="curve" smooth="yes"/>
			<point x="5" y="540"/>
			<point x="11" y="542"/>
			<point x="16" y="546" type="curve" smooth="yes"/>
			<point x="55" y="574"/>
			<point x="72" y="600"/>
			<point x="72" y="640" type="curve" smooth="yes"/>
			<point x="72" y="670" type="line" smooth="yes"/>
			<point x="72" y="698"/>
			<point x="54" y="719"/>
			<point x="26" y="719" type="curve" smooth="yes"/>
			<point x="-1" y="719"/>
			<point x="-21" y="697"/>
			<point x="-21" y="671" type="curve" smooth="yes"/>
			<point x="-21" y="646"/>
			<point x="-1" y="627"/>
			<point x="24" y="627" type="curve"/>
			<point x="24" y="607"/>
			<point x="13" y="598"/>
			<point x="-8" y="582" type="curve" smooth="yes"/>
			<point x="-16" y="576"/>
			<point x="-21" y="570"/>
			<point x="-21" y="563" type="curve" smooth="yes"/>
			<point x="-21" y="550"/>
			<point x="-10" y="540"/>
		</contour>
	</outline>
</glyph>
<glyph name="Eng" format="2">
	<advance width="784"/>
	<unicode hex="014A"/>
	<anchor x="385" y="677" name="top"/>
	<note>
		Eng
	</note>
	<outline>
		<contour>
			<point x="562" y="-235" type="curve" smooth="yes"/>
			<point x="646" y="-235"/>
			<point x="690" y="-182"/>
			<point x="690" y="-81" type="curve" smooth="yes"/>
			<point x="690" y="642" type="line" smooth="yes"/>
			<point x="690" y="666"/>
			<point x="669" y="688"/>
			<point x="645" y="688" type="curve" smooth="yes"/>
			<point x="619" y="688"/>
			<point x="600" y="666"/>
			<point x="600" y="642" type="curve" smooth="yes"/>
			<point x="600" y="138" type="line"/>
			<point x="226" y="658" type="line" smooth="yes"/>
			<point x="211" y="677"/>
			<point x="192" y="688"/>
			<point x="171" y="688" type="curve" smooth="yes"/>
			<point x="158" y="688" type="line" smooth="yes"/>
			<point x="122" y="688"/>
			<point x="94" y="657"/>
			<point x="94" y="622" type="curve" smooth="yes"/>
			<point x="94" y="39" type="line" smooth="yes"/>
			<point x="94" y="15"/>
			<point x="114" y="-6"/>
			<point x="139" y="-6" type="curve" smooth="yes"/>
			<point x="163" y="-6"/>
			<point x="185" y="14"/>
			<point x="185" y="39" type="curve" smooth="yes"/>
			<point x="185" y="541" type="line" smooth="yes"/>
			<point x="185" y="552"/>
			<point x="192" y="555"/>
			<point x="198" y="545" type="curve"/>
			<point x="600" y="-16" type="line"/>
			<point x="600" y="-79" type="line" smooth="yes"/>
			<point x="600" y="-134"/>
			<point x="582" y="-155"/>
			<point x="541" y="-155" type="curve" smooth="yes"/>
			<point x="537" y="-155"/>
			<point x="532" y="-155"/>
			<point x="526" y="-154" type="curve" smooth="yes"/>
			<point x="523" y="-154" type="line" smooth="yes"/>
			<point x="519" y="-153"/>
			<point x="515" y="-152"/>
			<point x="512" y="-152" type="curve" smooth="yes"/>
			<point x="490" y="-152"/>
			<point x="474" y="-171"/>
			<point x="474" y="-190" type="curve" smooth="yes"/>
			<point x="474" y="-207"/>
			<point x="483" y="-222"/>
			<point x="500" y="-227" type="curve" smooth="yes"/>
			<point x="518" y="-232"/>
			<point x="538" y="-235"/>
		</contour>
	</outline>
</glyph>
<glyph name="Obreve" format="2">
	<advance width="793"/>
	<unicode hex="014E"/>
	<anchor x="727" y="702" name="odot"/>
	<anchor x="398" y="857" name="top"/>
	<note>
		Obreve
	</note>
	<outline>
		<contour>
			<point x="396" y="-11" type="curve" smooth="yes"/>
			<point x="533" y="-11"/>
			<point x="640" y="53"/>
			<point x="696" y="160" type="curve" smooth="yes"/>
			<point x="725" y="213"/>
			<point x="739" y="273"/>
			<point x="740" y="341" type="curve" smooth="yes"/>
			<point x="737" y="477"/>
			<point x="679" y="588"/>
			<point x="577" y="647" type="curve" smooth="yes"/>
			<point x="524" y="678"/>
			<point x="465" y="692"/>
			<point x="396" y="692" type="curve" smooth="yes"/>
			<point x="260" y="692"/>
			<point x="152" y="629"/>
			<point x="97" y="522" type="curve" smooth="yes"/>
			<point x="68" y="470"/>
			<point x="54" y="408"/>
			<point x="53" y="341" type="curve" smooth="yes"/>
			<point x="56" y="204"/>
			<point x="113" y="94"/>
			<point x="216" y="34" type="curve" smooth="yes"/>
			<point x="269" y="4"/>
			<point x="328" y="-11"/>
		</contour>
		<contour>
			<point x="396" y="74" type="curve" smooth="yes"/>
			<point x="294" y="74"/>
			<point x="215" y="121"/>
			<point x="174" y="204" type="curve" smooth="yes"/>
			<point x="154" y="243"/>
			<point x="144" y="289"/>
			<point x="144" y="341" type="curve" smooth="yes"/>
			<point x="144" y="443"/>
			<point x="187" y="526"/>
			<point x="262" y="572" type="curve" smooth="yes"/>
			<point x="299" y="596"/>
			<point x="344" y="607"/>
			<point x="396" y="607" type="curve" smooth="yes"/>
			<point x="498" y="607"/>
			<point x="578" y="560"/>
			<point x="619" y="478" type="curve" smooth="yes"/>
			<point x="639" y="438"/>
			<point x="649" y="393"/>
			<point x="649" y="341" type="curve" smooth="yes"/>
			<point x="649" y="237"/>
			<point x="606" y="155"/>
			<point x="531" y="109" type="curve" smooth="yes"/>
			<point x="494" y="86"/>
			<point x="449" y="74"/>
		</contour>
		<contour>
			<point x="396" y="729" type="curve" smooth="yes"/>
			<point x="458" y="729"/>
			<point x="510" y="761"/>
			<point x="534" y="810" type="curve" smooth="yes"/>
			<point x="536" y="813"/>
			<point x="537" y="818"/>
			<point x="537" y="823" type="curve" smooth="yes"/>
			<point x="537" y="840"/>
			<point x="524" y="854"/>
			<point x="506" y="854" type="curve" smooth="yes"/>
			<point x="492" y="854"/>
			<point x="483" y="848"/>
			<point x="478" y="835" type="curve"/>
			<point x="463" y="806"/>
			<point x="435" y="788"/>
			<point x="396" y="788" type="curve" smooth="yes"/>
			<point x="358" y="788"/>
			<point x="330" y="806"/>
			<point x="315" y="835" type="curve"/>
			<point x="310" y="848"/>
			<point x="301" y="854"/>
			<point x="287" y="854" type="curve" smooth="yes"/>
			<point x="269" y="854"/>
			<point x="256" y="840"/>
			<point x="256" y="823" type="curve" smooth="yes"/>
			<point x="256" y="818"/>
			<point x="257" y="813"/>
			<point x="259" y="810" type="curve" smooth="yes"/>
			<point x="283" y="761"/>
			<point x="335" y="729"/>
		</contour>
	</outline>
</glyph>
<glyph name="racute" format="2">
	<advance width="374"/>
	<unicode hex="0155"/>
	<note>
		racute
	</note>
	<outline>
		<contour>
			<point x="121" y="-6" type="curve" smooth="yes"/>
			<point x="146" y="-6"/>
			<point x="167" y="14"/>
			<point x="167" y="39" type="curve" smooth="yes"/>
			<point x="167" y="336" type="line"/>
			<point x="203" y="391"/>
			<point x="257" y="421"/>
			<point x="317" y="421" type="curve" smooth="yes"/>
			<point x="322" y="421" type="line" smooth="yes"/>
			<point x="349" y="421"/>
			<point x="368" y="438"/>
			<point x="368" y="464" type="curve" smooth="yes"/>
			<point x="368" y="488"/>
			<point x="350" y="509"/>
			<point x="324" y="509" type="curve" smooth="yes"/>
			<point x="319" y="509" type="line" smooth="yes"/>
			<point x="263" y="509"/>
			<point x="212" y="479"/>
			<point x="167" y="419" type="curve"/>
			<point x="167" y="458" type="line" smooth="yes"/>
			<point x="167" y="482"/>
			<point x="146" y="504"/>
			<point x="121" y="504" type="curve" smooth="yes"/>
			<point x="96" y="504"/>
			<point x="76" y="482"/>
			<point x="76" y="458" type="curve" smooth="yes"/>
			<point x="76" y="39" type="line" smooth="yes"/>
			<point x="76" y="15"/>
			<point x="97" y="-6"/>
		</contour>
		<contour>
			<point x="203" y="553" type="curve" smooth="yes"/>
			<point x="212" y="553"/>
			<point x="220" y="557"/>
			<point x="226" y="563" type="curve"/>
			<point x="293" y="644" type="line"/>
			<point x="300" y="650"/>
			<point x="303" y="660"/>
			<point x="303" y="669" type="curve" smooth="yes"/>
			<point x="303" y="691"/>
			<point x="286" y="706"/>
			<point x="266" y="706" type="curve" smooth="yes"/>
			<point x="251" y="706"/>
			<point x="239" y="700"/>
			<point x="232" y="687" type="curve" smooth="yes"/>
			<point x="183" y="600" type="line" smooth="yes"/>
			<point x="179" y="593"/>
			<point x="176" y="587"/>
			<point x="176" y="580" type="curve" smooth="yes"/>
			<point x="176" y="563"/>
			<point x="188" y="553"/>
		</contour>
	</outline>
</glyph>
<glyph name="rcommaaccent" format="2">
	<advance width="374"/>
	<unicode hex="0157"/>
	<note>
		uni0157
	</note>
	<outline>
		<contour>
			<point x="121" y="-6" type="curve" smooth="yes"/>
			<point x="146" y="-6"/>
			<point x="167" y="14"/>
			<point x="167" y="39" type="curve" smooth="yes"/>
			<point x="167" y="336" type="line"/>
			<point x="203" y="391"/>
			<point x="257" y="421"/>
			<point x="317" y="421" type="curve" smooth="yes"/>
			<point x="322" y="421" type="line" smooth="yes"/>
			<point x="349" y="421"/>
			<point x="368" y="438"/>
			<point x="368" y="464" type="curve" smooth="yes"/>
			<point x="368" y="488"/>
			<point x="350" y="509"/>
			<point x="324" y="509" type="curve" smooth="yes"/>
			<point x="319" y="509" type="line" smooth="yes"/>
			<point x="263" y="509"/>
			<point x="212" y="479"/>
			<point x="167" y="419" type="curve"/>
			<point x="167" y="458" type="line" smooth="yes"/>
			<point x="167" y="482"/>
			<point x="146" y="504"/>
			<point x="121" y="504" type="curve" smooth="yes"/>
			<point x="96" y="504"/>
			<point x="76" y="482"/>
			<point x="76" y="458" type="curve" smooth="yes"/>
			<point x="76" y="39" type="line" smooth="yes"/>
			<point x="76" y="15"/>
			<point x="97" y="-6"/>
		</contour>
		<contour>
			<point x="92" y="-258" type="curve" smooth="yes"/>
			<point x="97" y="-258"/>
			<point x="103" y="-256"/>
			<point x="108" y="-253" type="curve" smooth="yes"/>
			<point x="147" y="-229"/>
			<point x="175" y="-197"/>
			<point x="175" y="-146" type="curve" smooth="yes"/>
			<point x="175" y="-114" type="line" smooth="yes"/>
			<point x="175" y="-84"/>
			<point x="154" y="-62"/>
			<point x="125" y="-62" type="curve" smooth="yes"/>
			<point x="97" y="-62"/>
			<point x="75" y="-85"/>
			<point x="75" y="-112" type="curve" smooth="yes"/>
			<point x="75" y="-141"/>
			<point x="96" y="-160"/>
			<point x="123" y="-160" type="curve"/>
			<point x="123" y="-183"/>
			<point x="108" y="-196"/>
			<point x="81" y="-213" type="curve" smooth="yes"/>
			<point x="74" y="-218"/>
			<point x="69" y="-225"/>
			<point x="69" y="-234" type="curve" smooth="yes"/>
			<point x="69" y="-247"/>
			<point x="79" y="-258"/>
		</contour>
	</outline>
</glyph>
<glyph name="Ubreve" format="2">
	<advance width="740"/>
	<unicode hex="016C"/>
	<anchor x="724" y="740" name="odot"/>
	<anchor x="370" y="857" name="top"/>
	<note>
		Ubreve
	</note>
	<outline>
		<contour>
			<point x="370" y="-11" type="curve" smooth="yes"/>
			<point x="463" y="-11"/>
			<point x="556" y="28"/>
			<point x="610" y="108" type="curve" smooth="yes"/>
			<point x="638" y="149"/>
			<point x="651" y="199"/>
			<point x="651" y="256" type="curve" smooth="yes"/>
			<point x="651" y="642" type="line" smooth="yes"/>
			<point x="651" y="666"/>
			<point x="630" y="688"/>
			<point x="605" y="688" type="curve" smooth="yes"/>
			<point x="580" y="688"/>
			<point x="561" y="666"/>
			<point x="561" y="642" type="curve" smooth="yes"/>
			<point x="561" y="253" type="line" smooth="yes"/>
			<point x="561" y="179"/>
			<point x="525" y="121"/>
			<point x="464" y="93" type="curve" smooth="yes"/>
			<point x="435" y="79"/>
			<point x="404" y="72"/>
			<point x="370" y="72" type="curve" smooth="yes"/>
			<point x="304" y="72"/>
			<point x="242" y="100"/>
			<point x="207" y="154" type="curve" smooth="yes"/>
			<point x="189" y="180"/>
			<point x="180" y="213"/>
			<point x="180" y="253" type="curve" smooth="yes"/>
			<point x="180" y="642" type="line" smooth="yes"/>
			<point x="180" y="666"/>
			<point x="158" y="688"/>
			<point x="134" y="688" type="curve" smooth="yes"/>
			<point x="108" y="688"/>
			<point x="89" y="666"/>
			<point x="89" y="642" type="curve" smooth="yes"/>
			<point x="89" y="256" type="line" smooth="yes"/>
			<point x="89" y="140"/>
			<point x="149" y="58"/>
			<point x="236" y="19" type="curve" smooth="yes"/>
			<point x="278" y="-1"/>
			<point x="323" y="-11"/>
		</contour>
		<contour>
			<point x="370" y="729" type="curve" smooth="yes"/>
			<point x="432" y="729"/>
			<point x="483" y="761"/>
			<point x="508" y="810" type="curve" smooth="yes"/>
			<point x="510" y="813"/>
			<point x="511" y="818"/>
			<point x="511" y="823" type="curve" smooth="yes"/>
			<point x="511" y="840"/>
			<point x="498" y="854"/>
			<point x="479" y="854" type="curve" smooth="yes"/>
			<point x="466" y="854"/>
			<point x="457" y="848"/>
			<point x="451" y="835" type="curve" smooth="yes"/>
			<point x="437" y="806"/>
			<point x="408" y="788"/>
			<point x="370" y="788" type="curve" smooth="yes"/>
			<point x="332" y="788"/>
			<point x="304" y="806"/>
			<point x="289" y="835" type="curve" smooth="yes"/>
			<point x="283" y="848"/>
			<point x="274" y="854"/>
			<point x="261" y="854" type="curve" smooth="yes"/>
			<point x="242" y="854"/>
			<point x="229" y="840"/>
			<point x="229" y="823" type="curve" smooth="yes"/>
			<point x="229" y="818"/>
			<point x="230" y="813"/>
			<point x="232" y="810" type="curve" smooth="yes"/>
			<point x="257" y="761"/>
			<point x="309" y="729"/>
		</contour>
	</outline>
</glyph>
<glyph name="uogonek" format="2">
	<advance width="595"/>
	<unicode hex="0173"/>
	<anchor x="577" y="552" name="odot"/>
	<note>
		uogonek
	</note>
	<outline>
		<contour>
			<point x="415" y="-199" type="curve" smooth="yes"/>
			<point x="448" y="-199"/>
			<point x="477" y="-191"/>
			<point x="500" y="-176" type="curve" smooth="yes"/>
			<point x="507" y="-171"/>
			<point x="511" y="-165"/>
			<point x="511" y="-157" type="curve" smooth="yes"/>
			<point x="511" y="-144"/>
			<point x="501" y="-135"/>
			<point x="488" y="-135" type="curve" smooth="yes"/>
			<point x="486" y="-135"/>
			<point x="484" y="-136"/>
			<point x="482" y="-136" type="curve" smooth="yes"/>
			<point x="481" y="-136"/>
			<point x="480" y="-137"/>
			<point x="479" y="-137" type="curve"/>
			<point x="467" y="-141"/>
			<point x="455" y="-143"/>
			<point x="445" y="-143" type="curve" smooth="yes"/>
			<point x="412" y="-143"/>
			<point x="396" y="-127"/>
			<point x="396" y="-98" type="curve" smooth="yes"/>
			<point x="396" y="-63"/>
			<point x="431" y="-26"/>
			<point x="484" y="-5" type="curve" smooth="yes"/>
			<point x="505" y="3"/>
			<point x="519" y="19"/>
			<point x="519" y="39" type="curve" smooth="yes"/>
			<point x="519" y="459" type="line" smooth="yes"/>
			<point x="519" y="483"/>
			<point x="498" y="504"/>
			<point x="474" y="504" type="curve" smooth="yes"/>
			<point x="449" y="504"/>
			<point x="428" y="484"/>
			<point x="428" y="459" type="curve" smooth="yes"/>
			<point x="428" y="166" type="line"/>
			<point x="382" y="109"/>
			<point x="334" y="73"/>
			<point x="269" y="73" type="curve" smooth="yes"/>
			<point x="198" y="73"/>
			<point x="162" y="112"/>
			<point x="162" y="191" type="curve" smooth="yes"/>
			<point x="162" y="459" type="line" smooth="yes"/>
			<point x="162" y="483"/>
			<point x="142" y="504"/>
			<point x="117" y="504" type="curve" smooth="yes"/>
			<point x="93" y="504"/>
			<point x="71" y="484"/>
			<point x="71" y="459" type="curve" smooth="yes"/>
			<point x="71" y="182" type="line" smooth="yes"/>
			<point x="71" y="110"/>
			<point x="102" y="49"/>
			<point x="153" y="15" type="curve" smooth="yes"/>
			<point x="182" y="-3"/>
			<point x="212" y="-11"/>
			<point x="247" y="-11" type="curve" smooth="yes"/>
			<point x="324" y="-11"/>
			<point x="378" y="23"/>
			<point x="428" y="77" type="curve"/>
			<point x="428" y="16" type="line"/>
			<point x="359" y="-21"/>
			<point x="323" y="-64"/>
			<point x="323" y="-116" type="curve" smooth="yes"/>
			<point x="323" y="-166"/>
			<point x="365" y="-199"/>
		</contour>
	</outline>
</glyph>
<glyph name="wcircumflex" format="2">
	<advance width="773"/>
	<unicode hex="0175"/>
	<note>
		wcircumflex
	</note>
	<outline>
		<contour>
			<point x="226" y="-6" type="curve" smooth="yes"/>
			<point x="252" y="-6"/>
			<point x="275" y="12"/>
			<point x="284" y="37" type="curve" smooth="yes"/>
			<point x="380" y="335" type="line" smooth="yes"/>
			<point x="384" y="346"/>
			<point x="390" y="345"/>
			<point x="394" y="335" type="curve" smooth="yes"/>
			<point x="489" y="37" type="line" smooth="yes"/>
			<point x="498" y="12"/>
			<point x="521" y="-6"/>
			<point x="548" y="-6" type="curve" smooth="yes"/>
			<point x="574" y="-6"/>
			<point x="598" y="12"/>
			<point x="605" y="36" type="curve" smooth="yes"/>
			<point x="744" y="442" type="line" smooth="yes"/>
			<point x="746" y="448"/>
			<point x="747" y="454"/>
			<point x="747" y="459" type="curve" smooth="yes"/>
			<point x="747" y="483"/>
			<point x="727" y="504"/>
			<point x="702" y="504" type="curve" smooth="yes"/>
			<point x="684" y="504"/>
			<point x="666" y="493"/>
			<point x="661" y="477" type="curve" smooth="yes"/>
			<point x="555" y="127" type="line" smooth="yes"/>
			<point x="551" y="116"/>
			<point x="545" y="117"/>
			<point x="541" y="127" type="curve"/>
			<point x="436" y="468" type="line" smooth="yes"/>
			<point x="429" y="489"/>
			<point x="409" y="504"/>
			<point x="387" y="504" type="curve" smooth="yes"/>
			<point x="364" y="504"/>
			<point x="345" y="489"/>
			<point x="338" y="468" type="curve" smooth="yes"/>
			<point x="232" y="127" type="line" smooth="yes"/>
			<point x="229" y="116"/>
			<point x="223" y="117"/>
			<point x="219" y="127" type="curve"/>
			<point x="112" y="477" type="line" smooth="yes"/>
			<point x="107" y="493"/>
			<point x="90" y="504"/>
			<point x="71" y="504" type="curve" smooth="yes"/>
			<point x="47" y="504"/>
			<point x="26" y="483"/>
			<point x="26" y="459" type="curve" smooth="yes"/>
			<point x="26" y="454"/>
			<point x="27" y="448"/>
			<point x="29" y="442" type="curve" smooth="yes"/>
			<point x="168" y="36" type="line" smooth="yes"/>
			<point x="176" y="12"/>
			<point x="199" y="-6"/>
		</contour>
		<contour>
			<point x="284" y="552" type="curve" smooth="yes"/>
			<point x="291" y="552"/>
			<point x="297" y="554"/>
			<point x="303" y="559" type="curve" smooth="yes"/>
			<point x="379" y="623" type="line" smooth="yes"/>
			<point x="384" y="628"/>
			<point x="390" y="628"/>
			<point x="395" y="623" type="curve" smooth="yes"/>
			<point x="471" y="559" type="line" smooth="yes"/>
			<point x="477" y="554"/>
			<point x="482" y="552"/>
			<point x="489" y="552" type="curve" smooth="yes"/>
			<point x="506" y="552"/>
			<point x="521" y="567"/>
			<point x="520" y="582" type="curve" smooth="yes"/>
			<point x="520" y="590"/>
			<point x="516" y="597"/>
			<point x="512" y="602" type="curve" smooth="yes"/>
			<point x="445" y="670" type="line" smooth="yes"/>
			<point x="433" y="684"/>
			<point x="421" y="689"/>
			<point x="405" y="689" type="curve" smooth="yes"/>
			<point x="368" y="689" type="line" smooth="yes"/>
			<point x="353" y="689"/>
			<point x="341" y="684"/>
			<point x="328" y="670" type="curve" smooth="yes"/>
			<point x="262" y="602" type="line" smooth="yes"/>
			<point x="258" y="597"/>
			<point x="254" y="590"/>
			<point x="254" y="582" type="curve" smooth="yes"/>
			<point x="253" y="567"/>
			<point x="268" y="552"/>
		</contour>
	</outline>
</glyph>
<glyph name="Ydieresis" format="2">
	<advance width="624"/>
	<unicode hex="0178"/>
	<anchor x="312" y="857" name="top"/>
	<note>
		Ydieresis
	</note>
	<outline>
		<contour>
			<point x="313" y="-6" type="curve" smooth="yes"/>
			<point x="337" y="-6"/>
			<point x="357" y="15"/>
			<point x="357" y="39" type="curve" smooth="yes"/>
			<point x="357" y="288" type="line"/>
			<point x="592" y="614" type="line"/>
			<point x="597" y="624"/>
			<point x="600" y="633"/>
			<point x="600" y="642" type="curve" smooth="yes"/>
			<point x="601" y="666"/>
			<point x="580" y="688"/>
			<point x="556" y="688" type="curve" smooth="yes"/>
			<point x="539" y="688"/>
			<point x="525" y="680"/>
			<point x="516" y="665" type="curve" smooth="yes"/>
			<point x="313" y="369" type="line"/>
			<point x="109" y="665" type="line"/>
			<point x="100" y="680"/>
			<point x="86" y="688"/>
			<point x="69" y="688" type="curve" smooth="yes"/>
			<point x="44" y="688"/>
			<point x="25" y="666"/>
			<point x="25" y="642" type="curve" smooth="yes"/>
			<point x="25" y="633"/>
			<point x="28" y="624"/>
			<point x="33" y="614" type="curve"/>
			<point x="267" y="288" type="line"/>
			<point x="267" y="39" type="line" smooth="yes"/>
			<point x="267" y="14"/>
			<point x="288" y="-6"/>
		</contour>
		<contour>
			<point x="230" y="729" type="curve" smooth="yes"/>
			<point x="258" y="729"/>
			<point x="281" y="752"/>
			<point x="281" y="779" type="curve" smooth="yes"/>
			<point x="281" y="807"/>
			<point x="258" y="830"/>
			<point x="230" y="830" type="curve" smooth="yes"/>
			<point x="203" y="830"/>
			<point x="180" y="807"/>
			<point x="180" y="779" type="curve" smooth="yes"/>
			<point x="180" y="752"/>
			<point x="203" y="729"/>
		</contour>
		<contour>
			<point x="395" y="729" type="curve" smooth="yes"/>
			<point x="422" y="729"/>
			<point x="445" y="752"/>
			<point x="445" y="779" type="curve" smooth="yes"/>
			<point x="445" y="807"/>
			<point x="422" y="830"/>
			<point x="395" y="830" type="curve" smooth="yes"/>
			<point x="367" y="830"/>
			<point x="344" y="807"/>
			<point x="344" y="779" type="curve" smooth="yes"/>
			<point x="344" y="752"/>
			<point x="367" y="729"/>
		</contour>
	</outline>
</glyph>
<glyph name="zacute" format="2">
	<advance width="486"/>
	<unicode hex="017A"/>
	<note>
		zacute
	</note>
	<outline>
		<contour>
			<point x="101" y="-1" type="curve" smooth="yes"/>
			<point x="405" y="-1" type="line" smooth="yes"/>
			<point x="429" y="-1"/>
			<point x="448" y="17"/>
			<point x="448" y="41" type="curve" smooth="yes"/>
			<point x="448" y="64"/>
			<point x="429" y="84"/>
			<point x="405" y="84" type="curve" smooth="yes"/>
			<point x="175" y="84" type="line" smooth="yes"/>
			<point x="165" y="84"/>
			<point x="163" y="90"/>
			<point x="169" y="98" type="curve" smooth="yes"/>
			<point x="429" y="402" type="line" smooth="yes"/>
			<point x="438" y="414"/>
			<point x="442" y="429"/>
			<point x="442" y="442" type="curve" smooth="yes"/>
			<point x="442" y="475"/>
			<point x="419" y="499"/>
			<point x="385" y="499" type="curve" smooth="yes"/>
			<point x="89" y="499" type="line" smooth="yes"/>
			<point x="64" y="499"/>
			<point x="47" y="479"/>
			<point x="47" y="456" type="curve" smooth="yes"/>
			<point x="47" y="433"/>
			<point x="65" y="414"/>
			<point x="89" y="414" type="curve" smooth="yes"/>
			<point x="315" y="414" type="line" smooth="yes"/>
			<point x="325" y="414"/>
			<point x="327" y="408"/>
			<point x="321" y="400" type="curve" smooth="yes"/>
			<point x="54" y="93" type="line" smooth="yes"/>
			<point x="44" y="81"/>
			<point x="38" y="67"/>
			<point x="38" y="52" type="curve" smooth="yes"/>
			<point x="38" y="20"/>
			<point x="64" y="-1"/>
		</contour>
		<contour>
			<point x="245" y="553" type="curve" smooth="yes"/>
			<point x="254" y="553"/>
			<point x="262" y="557"/>
			<point x="268" y="563" type="curve"/>
			<point x="335" y="644" type="line"/>
			<point x="342" y="650"/>
			<point x="345" y="660"/>
			<point x="345" y="669" type="curve" smooth="yes"/>
			<point x="345" y="691"/>
			<point x="328" y="706"/>
			<point x="308" y="706" type="curve" smooth="yes"/>
			<point x="293" y="706"/>
			<point x="281" y="700"/>
			<point x="274" y="687" type="curve" smooth="yes"/>
			<point x="225" y="600" type="line" smooth="yes"/>
			<point x="221" y="593"/>
			<point x="218" y="587"/>
			<point x="218" y="580" type="curve" smooth="yes"/>
			<point x="218" y="563"/>
			<point x="229" y="553"/>
		</contour>
	</outline>
</glyph>
<glyph name="Zdotaccent" format="2">
	<advance width="623"/>
	<unicode hex="017B"/>
	<anchor x="312" y="857" name="top"/>
	<note>
		Zdotaccent
	</note>
	<outline>
		<contour>
			<point x="103" y="-1" type="curve" smooth="yes"/>
			<point x="537" y="-1" type="line" smooth="yes"/>
			<point x="561" y="-1"/>
			<point x="580" y="17"/>
			<point x="580" y="41" type="curve" smooth="yes"/>
			<point x="580" y="64"/>
			<point x="561" y="84"/>
			<point x="537" y="84" type="curve" smooth="yes"/>
			<point x="174" y="84" type="line" smooth="yes"/>
			<point x="164" y="84"/>
			<point x="161" y="91"/>
			<point x="168" y="98" type="curve"/>
			<point x="559" y="581" type="line"/>
			<point x="567" y="593"/>
			<point x="574" y="608"/>
			<point x="574" y="621" type="curve" smooth="yes"/>
			<point x="574" y="655"/>
			<point x="550" y="683"/>
			<point x="514" y="683" type="curve" smooth="yes"/>
			<point x="90" y="683" type="line" smooth="yes"/>
			<point x="65" y="683"/>
			<point x="47" y="662"/>
			<point x="47" y="639" type="curve" smooth="yes"/>
			<point x="47" y="615"/>
			<point x="66" y="596"/>
			<point x="90" y="596" type="curve" smooth="yes"/>
			<point x="446" y="596" type="line" smooth="yes"/>
			<point x="456" y="596"/>
			<point x="459" y="589"/>
			<point x="452" y="582" type="curve"/>
			<point x="57" y="94" type="line" smooth="yes"/>
			<point x="49" y="83"/>
			<point x="45" y="70"/>
			<point x="45" y="57" type="curve" smooth="yes"/>
			<point x="45" y="25"/>
			<point x="71" y="-1"/>
		</contour>
		<contour>
			<point x="312" y="729" type="curve" smooth="yes"/>
			<point x="339" y="729"/>
			<point x="362" y="752"/>
			<point x="362" y="779" type="curve" smooth="yes"/>
			<point x="362" y="807"/>
			<point x="339" y="830"/>
			<point x="312" y="830" type="curve" smooth="yes"/>
			<point x="284" y="830"/>
			<point x="261" y="807"/>
			<point x="261" y="779" type="curve" smooth="yes"/>
			<point x="261" y="752"/>
			<point x="284" y="729"/>
		</contour>
	</outline>
</glyph>
<glyph name="longs" format="2">
	<advance width="280"/>
	<unicode hex="017F"/>
	<note>
		longs
	</note>
	<outline>
		<contour>
			<point x="158" y="-6" type="curve" smooth="yes"/>
			<point x="183" y="-6"/>
			<point x="204" y="14"/>
			<point x="204" y="39" type="curve" smooth="yes"/>
			<point x="204" y="552" type="line" smooth="yes"/>
			<point x="204" y="613"/>
			<point x="227" y="637"/>
			<point x="283" y="637" type="curve"/>
			<point x="310" y="634" type="line"/>
			<point x="317" y="632"/>
			<point x="325" y="631"/>
			<point x="332" y="631" type="curve" smooth="yes"/>
			<point x="353" y="631"/>
			<point x="369" y="649"/>
			<point x="369" y="669" type="curve" smooth="yes"/>
			<point x="369" y="684"/>
			<point x="359" y="696"/>
			<point x="346" y="704" type="curve"/>
			<point x="319" y="717"/>
			<point x="291" y="724"/>
			<point x="261" y="724" type="curve" smooth="yes"/>
			<point x="211" y="724"/>
			<point x="162" y="702"/>
			<point x="135" y="651" type="curve" smooth="yes"/>
			<point x="120" y="626"/>
			<point x="113" y="594"/>
			<point x="113" y="555" type="curve" smooth="yes"/>
			<point x="113" y="499" type="line"/>
			<point x="57" y="499" type="line" smooth="yes"/>
			<point x="36" y="499"/>
			<point x="18" y="482"/>
			<point x="18" y="460" type="curve" smooth="yes"/>
			<point x="18" y="439"/>
			<point x="36" y="421"/>
			<point x="57" y="421" type="curve" smooth="yes"/>
			<point x="113" y="421" type="line"/>
			<point x="113" y="39" type="line" smooth="yes"/>
			<point x="113" y="15"/>
			<point x="134" y="-6"/>
		</contour>
	</outline>
</glyph>
<glyph name="florin" format="2">
	<advance width="394"/>
	<unicode hex="0192"/>
	<note>
		florin
	</note>
	<outline>
		<contour>
			<point x="-12" y="-153" type="curve" smooth="yes"/>
			<point x="6" y="-153" type="line" smooth="yes"/>
			<point x="87" y="-153"/>
			<point x="161" y="-103"/>
			<point x="177" y="12" type="curve" smooth="yes"/>
			<point x="225" y="351" type="line"/>
			<point x="341" y="351" type="line" smooth="yes"/>
			<point x="361" y="351"/>
			<point x="378" y="365"/>
			<point x="378" y="387" type="curve" smooth="yes"/>
			<point x="378" y="406"/>
			<point x="360" y="424"/>
			<point x="341" y="424" type="curve" smooth="yes"/>
			<point x="234" y="424" type="line"/>
			<point x="254" y="562" type="line" smooth="yes"/>
			<point x="262" y="623"/>
			<point x="288" y="646"/>
			<point x="345" y="646" type="curve" smooth="yes"/>
			<point x="354" y="646"/>
			<point x="363" y="646"/>
			<point x="374" y="644" type="curve" smooth="yes"/>
			<point x="385" y="642"/>
			<point x="392" y="641"/>
			<point x="395" y="641" type="curve" smooth="yes"/>
			<point x="417" y="641"/>
			<point x="435" y="658"/>
			<point x="435" y="681" type="curve" smooth="yes"/>
			<point x="435" y="696"/>
			<point x="425" y="709"/>
			<point x="411" y="717" type="curve" smooth="yes"/>
			<point x="394" y="726"/>
			<point x="368" y="729"/>
			<point x="335" y="729" type="curve" smooth="yes"/>
			<point x="254" y="729"/>
			<point x="179" y="679"/>
			<point x="163" y="564" type="curve" smooth="yes"/>
			<point x="144" y="424" type="line"/>
			<point x="63" y="424" type="line" smooth="yes"/>
			<point x="43" y="424"/>
			<point x="27" y="406"/>
			<point x="27" y="387" type="curve" smooth="yes"/>
			<point x="27" y="367"/>
			<point x="44" y="351"/>
			<point x="63" y="351" type="curve" smooth="yes"/>
			<point x="133" y="351" type="line"/>
			<point x="86" y="15" type="line" smooth="yes"/>
			<point x="78" y="-47"/>
			<point x="52" y="-70"/>
			<point x="-5" y="-70" type="curve" smooth="yes"/>
			<point x="-12" y="-70" type="line" smooth="yes"/>
			<point x="-35" y="-70"/>
			<point x="-53" y="-90"/>
			<point x="-53" y="-112" type="curve" smooth="yes"/>
			<point x="-53" y="-135"/>
			<point x="-34" y="-153"/>
		</contour>
	</outline>
</glyph>
<glyph name="Uhorn" format="2">
	<advance width="745"/>
	<unicode hex="01AF"/>
	<anchor x="771" y="543" name="odot"/>
	<anchor x="370" y="677" name="top"/>
	<note>
		Uhorn
	</note>
	<outline>
		<contour>
			<point x="370" y="-11" type="curve" smooth="yes"/>
			<point x="463" y="-11"/>
			<point x="556" y="28"/>
			<point x="610" y="108" type="curve" smooth="yes"/>
			<point x="638" y="149"/>
			<point x="651" y="199"/>
			<point x="651" y="256" type="curve" smooth="yes"/>
			<point x="651" y="610" type="line"/>
			<point x="662" y="610" type="line" smooth="yes"/>
			<point x="752" y="610"/>
			<point x="801" y="665"/>
			<point x="801" y="735" type="curve" smooth="yes"/>
			<point x="801" y="798"/>
			<point x="782" y="834"/>
			<point x="751" y="834" type="curve" smooth="yes"/>
			<point x="732" y="834"/>
			<point x="718" y="819"/>
			<point x="718" y="801" type="curve" smooth="yes"/>
			<point x="718" y="795"/>
			<point x="719" y="788"/>
			<point x="721" y="780" type="curve" smooth="yes"/>
			<point x="724" y="770"/>
			<point x="725" y="761"/>
			<point x="725" y="751" type="curve" smooth="yes"/>
			<point x="725" y="706"/>
			<point x="701" y="683"/>
			<point x="660" y="683" type="curve" smooth="yes"/>
			<point x="648" y="683"/>
			<point x="639" y="684"/>
			<point x="630" y="686" type="curve"/>
			<point x="627" y="686"/>
			<point x="624" y="687"/>
			<point x="622" y="687" type="curve" smooth="yes"/>
			<point x="615" y="687"/>
			<point x="609" y="688"/>
			<point x="605" y="688" type="curve" smooth="yes"/>
			<point x="580" y="688"/>
			<point x="561" y="666"/>
			<point x="561" y="642" type="curve" smooth="yes"/>
			<point x="561" y="253" type="line" smooth="yes"/>
			<point x="561" y="179"/>
			<point x="525" y="121"/>
			<point x="464" y="93" type="curve" smooth="yes"/>
			<point x="435" y="79"/>
			<point x="404" y="72"/>
			<point x="370" y="72" type="curve" smooth="yes"/>
			<point x="304" y="72"/>
			<point x="242" y="100"/>
			<point x="207" y="154" type="curve" smooth="yes"/>
			<point x="189" y="180"/>
			<point x="180" y="213"/>
			<point x="180" y="253" type="curve" smooth="yes"/>
			<point x="180" y="642" type="line" smooth="yes"/>
			<point x="180" y="666"/>
			<point x="158" y="688"/>
			<point x="134" y="688" type="curve" smooth="yes"/>
			<point x="108" y="688"/>
			<point x="89" y="666"/>
			<point x="89" y="642" type="curve" smooth="yes"/>
			<point x="89" y="256" type="line" smooth="yes"/>
			<point x="89" y="140"/>
			<point x="149" y="58"/>
			<point x="236" y="19" type="curve" smooth="yes"/>
			<point x="278" y="-1"/>
			<point x="323" y="-11"/>
		</contour>
	</outline>
</glyph>
<glyph name="uhorn" format="2">
	<advance width="604"/>
	<unicode hex="01B0"/>
	<anchor x="500" y="587" name="odot"/>
	<note>
		uhorn
	</note>
	<outline>
		<contour>
			<point x="247" y="-11" type="curve" smooth="yes"/>
			<point x="324" y="-11"/>
			<point x="378" y="23"/>
			<point x="428" y="77" type="curve"/>
			<point x="428" y="40" type="line" smooth="yes"/>
			<point x="428" y="16"/>
			<point x="449" y="-6"/>
			<point x="474" y="-6" type="curve" smooth="yes"/>
			<point x="499" y="-6"/>
			<point x="519" y="16"/>
			<point x="519" y="40" type="curve" smooth="yes"/>
			<point x="519" y="427" type="line"/>
			<point x="523" y="427" type="line" smooth="yes"/>
			<point x="608" y="427"/>
			<point x="655" y="482"/>
			<point x="655" y="552" type="curve" smooth="yes"/>
			<point x="655" y="614"/>
			<point x="637" y="650"/>
			<point x="605" y="650" type="curve" smooth="yes"/>
			<point x="587" y="650"/>
			<point x="572" y="636"/>
			<point x="572" y="617" type="curve" smooth="yes"/>
			<point x="572" y="611"/>
			<point x="573" y="604"/>
			<point x="575" y="598" type="curve" smooth="yes"/>
			<point x="577" y="588"/>
			<point x="579" y="577"/>
			<point x="579" y="566" type="curve" smooth="yes"/>
			<point x="579" y="523"/>
			<point x="557" y="499"/>
			<point x="521" y="499" type="curve" smooth="yes"/>
			<point x="516" y="499"/>
			<point x="508" y="500"/>
			<point x="499" y="501" type="curve" smooth="yes"/>
			<point x="491" y="503"/>
			<point x="482" y="504"/>
			<point x="474" y="504" type="curve" smooth="yes"/>
			<point x="449" y="504"/>
			<point x="428" y="484"/>
			<point x="428" y="459" type="curve" smooth="yes"/>
			<point x="428" y="166" type="line"/>
			<point x="382" y="109"/>
			<point x="334" y="73"/>
			<point x="269" y="73" type="curve" smooth="yes"/>
			<point x="198" y="73"/>
			<point x="162" y="112"/>
			<point x="162" y="191" type="curve" smooth="yes"/>
			<point x="162" y="459" type="line" smooth="yes"/>
			<point x="162" y="483"/>
			<point x="142" y="504"/>
			<point x="117" y="504" type="curve" smooth="yes"/>
			<point x="93" y="504"/>
			<point x="71" y="484"/>
			<point x="71" y="459" type="curve" smooth="yes"/>
			<point x="71" y="182" type="line" smooth="yes"/>
			<point x="71" y="110"/>
			<point x="102" y="49"/>
			<point x="153" y="15" type="curve" smooth="yes"/>
			<point x="182" y="-3"/>
			<point x="212" y="-11"/>
		</contour>
	</outline>
</glyph>
<glyph name="Dzcaron" format="2">
	<advance width="1199"/>
	<unicode hex="01C5"/>
	<note>
		uni01C5
	</note>
	<outline>
		<contour>
			<point x="139" y="-1" type="curve" smooth="yes"/>
			<point x="335" y="-1" type="line" smooth="yes"/>
			<point x="483" y="-1"/>
			<point x="590" y="71"/>
			<point x="642" y="177" type="curve" smooth="yes"/>
			<point x="668" y="229"/>
			<point x="681" y="283"/>
			<point x="681" y="341" type="curve" smooth="yes"/>
			<point x="681" y="455"/>
			<point x="629" y="567"/>
			<point x="525" y="634" type="curve" smooth="yes"/>
			<point x="473" y="666"/>
			<point x="408" y="683"/>
			<point x="335" y="683" type="curve" smooth="yes"/>
			<point x="139" y="683" type="line" smooth="yes"/>
			<point x="113" y="683"/>
			<point x="94" y="661"/>
			<point x="94" y="637" type="curve" smooth="yes"/>
			<point x="94" y="44" type="line" smooth="yes"/>
			<point x="94" y="20"/>
			<point x="114" y="-1"/>
		</contour>
		<contour>
			<point x="196" y="84" type="line" smooth="yes"/>
			<point x="188" y="84"/>
			<point x="185" y="88"/>
			<point x="185" y="96" type="curve" smooth="yes"/>
			<point x="185" y="586" type="line" smooth="yes"/>
			<point x="185" y="594"/>
			<point x="188" y="598"/>
			<point x="196" y="598" type="curve" smooth="yes"/>
			<point x="324" y="598" type="line" smooth="yes"/>
			<point x="430" y="598"/>
			<point x="514" y="553"/>
			<point x="558" y="476" type="curve" smooth="yes"/>
			<point x="579" y="438"/>
			<point x="591" y="393"/>
			<point x="591" y="341" type="curve" smooth="yes"/>
			<point x="591" y="239"/>
			<point x="545" y="160"/>
			<point x="465" y="117" type="curve" smooth="yes"/>
			<point x="426" y="96"/>
			<point x="379" y="84"/>
			<point x="324" y="84" type="curve" smooth="yes"/>
		</contour>
		<contour>
			<point x="813" y="-1" type="curve" smooth="yes"/>
			<point x="1118" y="-1" type="line" smooth="yes"/>
			<point x="1142" y="-1"/>
			<point x="1161" y="17"/>
			<point x="1161" y="41" type="curve" smooth="yes"/>
			<point x="1161" y="64"/>
			<point x="1142" y="84"/>
			<point x="1118" y="84" type="curve" smooth="yes"/>
			<point x="888" y="84" type="line" smooth="yes"/>
			<point x="878" y="84"/>
			<point x="876" y="90"/>
			<point x="882" y="98" type="curve" smooth="yes"/>
			<point x="1142" y="402" type="line"/>
			<point x="1150" y="414"/>
			<point x="1155" y="429"/>
			<point x="1155" y="442" type="curve" smooth="yes"/>
			<point x="1155" y="475"/>
			<point x="1132" y="499"/>
			<point x="1098" y="499" type="curve" smooth="yes"/>
			<point x="802" y="499" type="line" smooth="yes"/>
			<point x="777" y="499"/>
			<point x="760" y="479"/>
			<point x="760" y="456" type="curve" smooth="yes"/>
			<point x="760" y="433"/>
			<point x="778" y="414"/>
			<point x="802" y="414" type="curve" smooth="yes"/>
			<point x="1028" y="414" type="line" smooth="yes"/>
			<point x="1038" y="414"/>
			<point x="1040" y="408"/>
			<point x="1034" y="400" type="curve" smooth="yes"/>
			<point x="767" y="93" type="line" smooth="yes"/>
			<point x="757" y="81"/>
			<point x="751" y="67"/>
			<point x="751" y="52" type="curve" smooth="yes"/>
			<point x="751" y="20"/>
			<point x="777" y="-1"/>
		</contour>
		<contour>
			<point x="939" y="553" type="curve" smooth="yes"/>
			<point x="977" y="553" type="line" smooth="yes"/>
			<point x="992" y="553"/>
			<point x="1004" y="559"/>
			<point x="1017" y="572" type="curve" smooth="yes"/>
			<point x="1083" y="641" type="line" smooth="yes"/>
			<point x="1087" y="646"/>
			<point x="1091" y="652"/>
			<point x="1091" y="660" type="curve" smooth="yes"/>
			<point x="1092" y="675"/>
			<point x="1077" y="690"/>
			<point x="1061" y="690" type="curve" smooth="yes"/>
			<point x="1054" y="690"/>
			<point x="1048" y="688"/>
			<point x="1042" y="684" type="curve"/>
			<point x="966" y="619" type="line" smooth="yes"/>
			<point x="961" y="614"/>
			<point x="955" y="614"/>
			<point x="950" y="619" type="curve" smooth="yes"/>
			<point x="874" y="684" type="line"/>
			<point x="868" y="688"/>
			<point x="862" y="690"/>
			<point x="855" y="690" type="curve" smooth="yes"/>
			<point x="839" y="690"/>
			<point x="824" y="675"/>
			<point x="825" y="660" type="curve" smooth="yes"/>
			<point x="825" y="652"/>
			<point x="829" y="646"/>
			<point x="833" y="641" type="curve" smooth="yes"/>
			<point x="899" y="572" type="line" smooth="yes"/>
			<point x="912" y="559"/>
			<point x="924" y="553"/>
		</contour>
	</outline>
</glyph>
<glyph name="NJ" format="2">
	<advance width="1239"/>
	<unicode hex="01CA"/>
	<anchor x="1104" y="687" name="top"/>
	<note>
		uni01CA
	</note>
	<outline>
		<contour>
			<point x="139" y="-6" type="curve" smooth="yes"/>
			<point x="163" y="-6"/>
			<point x="185" y="14"/>
			<point x="185" y="39" type="curve" smooth="yes"/>
			<point x="185" y="540" type="line" smooth="yes"/>
			<point x="185" y="551"/>
			<point x="192" y="554"/>
			<point x="198" y="544" type="curve" smooth="yes"/>
			<point x="561" y="21" type="line" smooth="yes"/>
			<point x="572" y="5"/>
			<point x="593" y="-6"/>
			<point x="613" y="-6" type="curve" smooth="yes"/>
			<point x="625" y="-6" type="line" smooth="yes"/>
			<point x="660" y="-6"/>
			<point x="690" y="22"/>
			<point x="690" y="59" type="curve" smooth="yes"/>
			<point x="690" y="642" type="line" smooth="yes"/>
			<point x="690" y="666"/>
			<point x="669" y="688"/>
			<point x="645" y="688" type="curve" smooth="yes"/>
			<point x="619" y="688"/>
			<point x="600" y="666"/>
			<point x="600" y="642" type="curve" smooth="yes"/>
			<point x="600" y="142" type="line" smooth="yes"/>
			<point x="600" y="131"/>
			<point x="592" y="128"/>
			<point x="586" y="138" type="curve" smooth="yes"/>
			<point x="226" y="658" type="line"/>
			<point x="211" y="677"/>
			<point x="192" y="688"/>
			<point x="171" y="688" type="curve" smooth="yes"/>
			<point x="158" y="688" type="line" smooth="yes"/>
			<point x="122" y="688"/>
			<point x="94" y="657"/>
			<point x="94" y="622" type="curve" smooth="yes"/>
			<point x="94" y="39" type="line" smooth="yes"/>
			<point x="94" y="15"/>
			<point x="114" y="-6"/>
		</contour>
		<contour>
			<point x="948" y="-11" type="curve" smooth="yes"/>
			<point x="1081" y="-11"/>
			<point x="1150" y="70"/>
			<point x="1150" y="225" type="curve" smooth="yes"/>
			<point x="1150" y="642" type="line" smooth="yes"/>
			<point x="1150" y="666"/>
			<point x="1129" y="688"/>
			<point x="1104" y="688" type="curve" smooth="yes"/>
			<point x="1079" y="688"/>
			<point x="1060" y="666"/>
			<point x="1060" y="642" type="curve" smooth="yes"/>
			<point x="1060" y="219" type="line" smooth="yes"/>
			<point x="1060" y="107"/>
			<point x="1013" y="75"/>
			<point x="942" y="75" type="curve" smooth="yes"/>
			<point x="912" y="75"/>
			<point x="882" y="82"/>
			<point x="852" y="97" type="curve" smooth="yes"/>
			<point x="847" y="100"/>
			<point x="841" y="101"/>
			<point x="834" y="101" type="curve" smooth="yes"/>
			<point x="812" y="101"/>
			<point x="796" y="80"/>
			<point x="796" y="60" type="curve" smooth="yes"/>
			<point x="796" y="43"/>
			<point x="804" y="31"/>
			<point x="817" y="22" type="curve"/>
			<point x="857" y="0"/>
			<point x="900" y="-11"/>
		</contour>
	</outline>
</glyph>
<glyph name="Nj" format="2">
	<advance width="1022"/>
	<unicode hex="01CB"/>
	<note>
		uni01CB
	</note>
	<outline>
		<contour>
			<point x="139" y="-6" type="curve" smooth="yes"/>
			<point x="163" y="-6"/>
			<point x="185" y="14"/>
			<point x="185" y="39" type="curve" smooth="yes"/>
			<point x="185" y="540" type="line" smooth="yes"/>
			<point x="185" y="551"/>
			<point x="192" y="554"/>
			<point x="198" y="544" type="curve" smooth="yes"/>
			<point x="561" y="21" type="line" smooth="yes"/>
			<point x="572" y="5"/>
			<point x="593" y="-6"/>
			<point x="613" y="-6" type="curve" smooth="yes"/>
			<point x="625" y="-6" type="line" smooth="yes"/>
			<point x="660" y="-6"/>
			<point x="690" y="22"/>
			<point x="690" y="59" type="curve" smooth="yes"/>
			<point x="690" y="642" type="line" smooth="yes"/>
			<point x="690" y="666"/>
			<point x="669" y="688"/>
			<point x="645" y="688" type="curve" smooth="yes"/>
			<point x="619" y="688"/>
			<point x="600" y="666"/>
			<point x="600" y="642" type="curve" smooth="yes"/>
			<point x="600" y="142" type="line" smooth="yes"/>
			<point x="600" y="131"/>
			<point x="592" y="128"/>
			<point x="586" y="138" type="curve" smooth="yes"/>
			<point x="226" y="658" type="line"/>
			<point x="211" y="677"/>
			<point x="192" y="688"/>
			<point x="171" y="688" type="curve" smooth="yes"/>
			<point x="158" y="688" type="line" smooth="yes"/>
			<point x="122" y="688"/>
			<point x="94" y="657"/>
			<point x="94" y="622" type="curve" smooth="yes"/>
			<point x="94" y="39" type="line" smooth="yes"/>
			<point x="94" y="15"/>
			<point x="114" y="-6"/>
		</contour>
		<contour>
			<point x="817" y="-235" type="curve" smooth="yes"/>
			<point x="901" y="-235"/>
			<point x="946" y="-188"/>
			<point x="946" y="-101" type="curve" smooth="yes"/>
			<point x="946" y="457" type="line" smooth="yes"/>
			<point x="946" y="483"/>
			<point x="927" y="503"/>
			<point x="900" y="503" type="curve" smooth="yes"/>
			<point x="875" y="503"/>
			<point x="855" y="481"/>
			<point x="855" y="457" type="curve" smooth="yes"/>
			<point x="855" y="-99" type="line" smooth="yes"/>
			<point x="855" y="-146"/>
			<point x="837" y="-155"/>
			<point x="797" y="-155" type="curve" smooth="yes"/>
			<point x="793" y="-155"/>
			<point x="788" y="-155"/>
			<point x="782" y="-154" type="curve" smooth="yes"/>
			<point x="779" y="-154" type="line" smooth="yes"/>
			<point x="774" y="-153"/>
			<point x="771" y="-152"/>
			<point x="768" y="-152" type="curve" smooth="yes"/>
			<point x="746" y="-152"/>
			<point x="729" y="-171"/>
			<point x="729" y="-190" type="curve" smooth="yes"/>
			<point x="729" y="-207"/>
			<point x="739" y="-222"/>
			<point x="756" y="-227" type="curve" smooth="yes"/>
			<point x="773" y="-232"/>
			<point x="794" y="-235"/>
		</contour>
		<contour>
			<point x="898" y="599" type="curve" smooth="yes"/>
			<point x="904" y="599" type="line" smooth="yes"/>
			<point x="932" y="599"/>
			<point x="955" y="622"/>
			<point x="955" y="649" type="curve" smooth="yes"/>
			<point x="955" y="653" type="line" smooth="yes"/>
			<point x="955" y="681"/>
			<point x="932" y="704"/>
			<point x="904" y="704" type="curve" smooth="yes"/>
			<point x="898" y="704" type="line" smooth="yes"/>
			<point x="871" y="704"/>
			<point x="848" y="681"/>
			<point x="848" y="653" type="curve" smooth="yes"/>
			<point x="848" y="649" type="line" smooth="yes"/>
			<point x="848" y="622"/>
			<point x="871" y="599"/>
		</contour>
	</outline>
</glyph>
<glyph name="Acaron" format="2">
	<advance width="729"/>
	<unicode hex="01CD"/>
	<anchor x="362" y="0" name="bottom"/>
	<anchor x="566" y="695" name="odot"/>
	<anchor x="636" y="39" name="ogonek"/>
	<anchor x="363" y="857" name="top"/>
	<outline>
		<contour>
			<point x="93" y="-6" type="curve" smooth="yes"/>
			<point x="112" y="-6"/>
			<point x="128" y="5"/>
			<point x="136" y="22" type="curve" smooth="yes"/>
			<point x="199" y="174" type="line"/>
			<point x="529" y="174" type="line"/>
			<point x="593" y="22" type="line" smooth="yes"/>
			<point x="601" y="5"/>
			<point x="616" y="-6"/>
			<point x="636" y="-6" type="curve" smooth="yes"/>
			<point x="662" y="-6"/>
			<point x="681" y="15"/>
			<point x="681" y="39" type="curve" smooth="yes"/>
			<point x="681" y="44"/>
			<point x="679" y="51"/>
			<point x="676" y="59" type="curve" smooth="yes"/>
			<point x="427" y="646" type="line" smooth="yes"/>
			<point x="416" y="671"/>
			<point x="396" y="688"/>
			<point x="369" y="688" type="curve" smooth="yes"/>
			<point x="359" y="688" type="line" smooth="yes"/>
			<point x="332" y="688"/>
			<point x="313" y="671"/>
			<point x="302" y="646" type="curve" smooth="yes"/>
			<point x="53" y="59" type="line" smooth="yes"/>
			<point x="50" y="51"/>
			<point x="48" y="44"/>
			<point x="48" y="39" type="curve" smooth="yes"/>
			<point x="48" y="15"/>
			<point x="66" y="-6"/>
		</contour>
		<contour>
			<point x="233" y="257" type="line"/>
			<point x="356" y="553" type="line" smooth="yes"/>
			<point x="359" y="562"/>
			<point x="368" y="563"/>
			<point x="372" y="553" type="curve" smooth="yes"/>
			<point x="495" y="257" type="line"/>
		</contour>
		<contour>
			<point x="347" y="734" type="curve" smooth="yes"/>
			<point x="384" y="734" type="line" smooth="yes"/>
			<point x="399" y="734"/>
			<point x="411" y="740"/>
			<point x="424" y="754" type="curve" smooth="yes"/>
			<point x="490" y="822" type="line" smooth="yes"/>
			<point x="494" y="827"/>
			<point x="498" y="834"/>
			<point x="498" y="842" type="curve" smooth="yes"/>
			<point x="499" y="856"/>
			<point x="484" y="872"/>
			<point x="468" y="872" type="curve" smooth="yes"/>
			<point x="461" y="872"/>
			<point x="455" y="870"/>
			<point x="449" y="865" type="curve" smooth="yes"/>
			<point x="373" y="801" type="line" smooth="yes"/>
			<point x="368" y="796"/>
			<point x="362" y="796"/>
			<point x="357" y="801" type="curve" smooth="yes"/>
			<point x="281" y="865" type="line" smooth="yes"/>
			<point x="275" y="870"/>
			<point x="270" y="872"/>
			<point x="263" y="872" type="curve" smooth="yes"/>
			<point x="246" y="872"/>
			<point x="231" y="856"/>
			<point x="232" y="842" type="curve" smooth="yes"/>
			<point x="232" y="834"/>
			<point x="236" y="827"/>
			<point x="240" y="822" type="curve" smooth="yes"/>
			<point x="307" y="754" type="line" smooth="yes"/>
			<point x="319" y="740"/>
			<point x="331" y="734"/>
		</contour>
	</outline>
</glyph>
<glyph name="udieresisgrave" format="2">
	<advance width="595"/>
	<unicode hex="01DC"/>
	<anchor x="301" y="0" name="bottom"/>
	<anchor x="577" y="552" name="odot"/>
	<anchor x="295" y="600" name="top"/>
	<outline>
		<contour>
			<point x="247" y="-11" type="curve" smooth="yes"/>
			<point x="324" y="-11"/>
			<point x="378" y="23"/>
			<point x="428" y="77" type="curve"/>
			<point x="428" y="40" type="line" smooth="yes"/>
			<point x="428" y="16"/>
			<point x="449" y="-6"/>
			<point x="474" y="-6" type="curve" smooth="yes"/>
			<point x="499" y="-6"/>
			<point x="519" y="16"/>
			<point x="519" y="40" type="curve" smooth="yes"/>
			<point x="519" y="459" type="line" smooth="yes"/>
			<point x="519" y="483"/>
			<point x="498" y="504"/>
			<point x="474" y="504" type="curve" smooth="yes"/>
			<point x="449" y="504"/>
			<point x="428" y="484"/>
			<point x="428" y="459" type="curve" smooth="yes"/>
			<point x="428" y="166" type="line"/>
			<point x="382" y="109"/>
			<point x="334" y="73"/>
			<point x="269" y="73" type="curve" smooth="yes"/>
			<point x="198" y="73"/>
			<point x="162" y="112"/>
			<point x="162" y="191" type="curve" smooth="yes"/>
			<point x="162" y="459" type="line" smooth="yes"/>
			<point x="162" y="483"/>
			<point x="142" y="504"/>
			<point x="117" y="504" type="curve" smooth="yes"/>
			<point x="93" y="504"/>
			<point x="71" y="484"/>
			<point x="71" y="459" type="curve" smooth="yes"/>
			<point x="71" y="182" type="line" smooth="yes"/>
			<point x="71" y="110"/>
			<point x="102" y="49"/>
			<point x="153" y="15" type="curve" smooth="yes"/>
			<point x="182" y="-3"/>
			<point x="212" y="-11"/>
		</contour>
		<contour>
			<point x="213" y="526" type="curve" smooth="yes"/>
			<point x="240" y="526"/>
			<point x="264" y="550"/>
			<point x="264" y="577" type="curve" smooth="yes"/>
			<point x="264" y="604"/>
			<point x="240" y="628"/>
			<point x="213" y="628" type="curve" smooth="yes"/>
			<point x="186" y="628"/>
			<point x="162" y="604"/>
			<point x="162" y="577" type="curve" smooth="yes"/>
			<point x="162" y="550"/>
			<point x="186" y="526"/>
		</contour>
		<contour>
			<point x="377" y="526" type="curve" smooth="yes"/>
			<point x="404" y="526"/>
			<point x="428" y="550"/>
			<point x="428" y="577" type="curve" smooth="yes"/>
			<point x="428" y="604"/>
			<point x="404" y="628"/>
			<point x="377" y="628" type="curve" smooth="yes"/>
			<point x="350" y="628"/>
			<point x="326" y="604"/>
			<point x="326" y="577" type="curve" smooth="yes"/>
			<point x="326" y="550"/>
			<point x="350" y="526"/>
		</contour>
		<contour>
			<point x="295" y="638" type="curve" smooth="yes"/>
			<point x="312" y="638"/>
			<point x="322" y="649"/>
			<point x="322" y="665" type="curve" smooth="yes"/>
			<point x="322" y="672"/>
			<point x="319" y="678"/>
			<point x="315" y="685" type="curve" smooth="yes"/>
			<point x="266" y="771" type="line" smooth="yes"/>
			<point x="259" y="785"/>
			<point x="247" y="791"/>
			<point x="232" y="791" type="curve" smooth="yes"/>
			<point x="210" y="791"/>
			<point x="195" y="777"/>
			<point x="195" y="754" type="curve" smooth="yes"/>
			<point x="195" y="745"/>
			<point x="199" y="737"/>
			<point x="205" y="729" type="curve" smooth="yes"/>
			<point x="272" y="648" type="line"/>
			<point x="278" y="642"/>
			<point x="286" y="638"/>
		</contour>
	</outline>
</glyph>
<glyph name="aeacute" format="2">
	<advance width="890"/>
	<unicode hex="01FD"/>
	<note>
		aeacute
	</note>
	<outline>
		<contour>
			<point x="236" y="-11" type="curve" smooth="yes"/>
			<point x="318" y="-11"/>
			<point x="396" y="11"/>
			<point x="438" y="73" type="curve"/>
			<point x="482" y="18"/>
			<point x="550" y="-11"/>
			<point x="636" y="-11" type="curve" smooth="yes"/>
			<point x="714" y="-11"/>
			<point x="756" y="4"/>
			<point x="807" y="32" type="curve" smooth="yes"/>
			<point x="824" y="42"/>
			<point x="833" y="54"/>
			<point x="833" y="69" type="curve" smooth="yes"/>
			<point x="833" y="92"/>
			<point x="813" y="108"/>
			<point x="793" y="108" type="curve" smooth="yes"/>
			<point x="786" y="108"/>
			<point x="780" y="107"/>
			<point x="775" y="104" type="curve" smooth="yes"/>
			<point x="736" y="85"/>
			<point x="698" y="74"/>
			<point x="644" y="74" type="curve" smooth="yes"/>
			<point x="540" y="74"/>
			<point x="483" y="124"/>
			<point x="472" y="220" type="curve"/>
			<point x="807" y="220" type="line" smooth="yes"/>
			<point x="833" y="220"/>
			<point x="851" y="240"/>
			<point x="851" y="263" type="curve" smooth="yes"/>
			<point x="851" y="356"/>
			<point x="812" y="435"/>
			<point x="741" y="478" type="curve" smooth="yes"/>
			<point x="704" y="499"/>
			<point x="663" y="509"/>
			<point x="616" y="509" type="curve" smooth="yes"/>
			<point x="540" y="509"/>
			<point x="481" y="482"/>
			<point x="439" y="428" type="curve"/>
			<point x="406" y="481"/>
			<point x="348" y="509"/>
			<point x="272" y="509" type="curve" smooth="yes"/>
			<point x="215" y="509"/>
			<point x="158" y="497"/>
			<point x="104" y="474" type="curve" smooth="yes"/>
			<point x="87" y="467"/>
			<point x="77" y="454"/>
			<point x="77" y="436" type="curve" smooth="yes"/>
			<point x="77" y="415"/>
			<point x="95" y="397"/>
			<point x="114" y="397" type="curve" smooth="yes"/>
			<point x="117" y="397"/>
			<point x="122" y="398"/>
			<point x="127" y="399" type="curve"/>
			<point x="174" y="415"/>
			<point x="207" y="423"/>
			<point x="257" y="423" type="curve" smooth="yes"/>
			<point x="349" y="423"/>
			<point x="387" y="386"/>
			<point x="387" y="303" type="curve" smooth="yes"/>
			<point x="387" y="293" type="line"/>
			<point x="270" y="293" type="line" smooth="yes"/>
			<point x="128" y="293"/>
			<point x="44" y="236"/>
			<point x="44" y="137" type="curve" smooth="yes"/>
			<point x="44" y="78"/>
			<point x="80" y="31"/>
			<point x="141" y="7" type="curve" smooth="yes"/>
			<point x="169" y="-5"/>
			<point x="201" y="-11"/>
		</contour>
		<contour>
			<point x="254" y="69" type="curve" smooth="yes"/>
			<point x="183" y="69"/>
			<point x="135" y="102"/>
			<point x="135" y="146" type="curve" smooth="yes"/>
			<point x="135" y="196"/>
			<point x="180" y="220"/>
			<point x="281" y="220" type="curve" smooth="yes"/>
			<point x="387" y="220" type="line"/>
			<point x="387" y="165" type="line" smooth="yes"/>
			<point x="387" y="95"/>
			<point x="328" y="69"/>
		</contour>
		<contour>
			<point x="472" y="293" type="line"/>
			<point x="476" y="352"/>
			<point x="505" y="396"/>
			<point x="550" y="417" type="curve" smooth="yes"/>
			<point x="572" y="427"/>
			<point x="595" y="432"/>
			<point x="616" y="432" type="curve" smooth="yes"/>
			<point x="666" y="432"/>
			<point x="709" y="410"/>
			<point x="736" y="371" type="curve" smooth="yes"/>
			<point x="749" y="354"/>
			<point x="757" y="332"/>
			<point x="760" y="306" type="curve" smooth="yes"/>
			<point x="761" y="297"/>
			<point x="756" y="293"/>
			<point x="748" y="293" type="curve" smooth="yes"/>
		</contour>
		<contour>
			<point x="444" y="553" type="curve" smooth="yes"/>
			<point x="453" y="553"/>
			<point x="461" y="557"/>
			<point x="467" y="563" type="curve"/>
			<point x="534" y="644" type="line"/>
			<point x="541" y="650"/>
			<point x="544" y="660"/>
			<point x="544" y="669" type="curve" smooth="yes"/>
			<point x="544" y="691"/>
			<point x="527" y="706"/>
			<point x="507" y="706" type="curve" smooth="yes"/>
			<point x="492" y="706"/>
			<point x="480" y="700"/>
			<point x="474" y="687" type="curve"/>
			<point x="424" y="600" type="line" smooth="yes"/>
			<point x="420" y="593"/>
			<point x="417" y="587"/>
			<point x="417" y="580" type="curve" smooth="yes"/>
			<point x="417" y="563"/>
			<point x="429" y="553"/>
		</contour>
	</outline>
</glyph>
<glyph name="Oslashacute" format="2">
	<advance width="793"/>
	<unicode hex="01FE"/>
	<anchor x="727" y="702" name="odot"/>
	<anchor x="398" y="857" name="top"/>
	<note>
		Oslashacute
	</note>
	<outline>
		<contour>
			<point x="154" y="-30" type="curve" smooth="yes"/>
			<point x="163" y="-30"/>
			<point x="170" y="-27"/>
			<point x="176" y="-21" type="curve"/>
			<point x="214" y="35" type="line"/>
			<point x="268" y="4"/>
			<point x="329" y="-11"/>
			<point x="396" y="-11" type="curve" smooth="yes"/>
			<point x="533" y="-11"/>
			<point x="640" y="53"/>
			<point x="696" y="160" type="curve" smooth="yes"/>
			<point x="725" y="213"/>
			<point x="739" y="273"/>
			<point x="740" y="341" type="curve" smooth="yes"/>
			<point x="737" y="455"/>
			<point x="695" y="553"/>
			<point x="621" y="615" type="curve"/>
			<point x="659" y="669" type="line" smooth="yes"/>
			<point x="663" y="676"/>
			<point x="665" y="682"/>
			<point x="665" y="687" type="curve" smooth="yes"/>
			<point x="665" y="699"/>
			<point x="654" y="711"/>
			<point x="640" y="711" type="curve" smooth="yes"/>
			<point x="631" y="711"/>
			<point x="624" y="708"/>
			<point x="618" y="701" type="curve"/>
			<point x="580" y="645" type="line"/>
			<point x="525" y="677"/>
			<point x="465" y="692"/>
			<point x="396" y="692" type="curve" smooth="yes"/>
			<point x="260" y="692"/>
			<point x="152" y="629"/>
			<point x="97" y="522" type="curve" smooth="yes"/>
			<point x="68" y="470"/>
			<point x="54" y="408"/>
			<point x="53" y="341" type="curve" smooth="yes"/>
			<point x="54" y="228"/>
			<point x="96" y="128"/>
			<point x="173" y="64" type="curve"/>
			<point x="135" y="12" type="line"/>
			<point x="131" y="5"/>
			<point x="129" y="-1"/>
			<point x="129" y="-6" type="curve" smooth="yes"/>
			<point x="129" y="-19"/>
			<point x="140" y="-30"/>
		</contour>
		<contour>
			<point x="224" y="138" type="line"/>
			<point x="172" y="185"/>
			<point x="144" y="257"/>
			<point x="144" y="341" type="curve" smooth="yes"/>
			<point x="144" y="443"/>
			<point x="187" y="526"/>
			<point x="262" y="572" type="curve" smooth="yes"/>
			<point x="299" y="596"/>
			<point x="344" y="607"/>
			<point x="396" y="607" type="curve" smooth="yes"/>
			<point x="446" y="607"/>
			<point x="490" y="596"/>
			<point x="529" y="574" type="curve"/>
		</contour>
		<contour>
			<point x="396" y="74" type="curve" smooth="yes"/>
			<point x="345" y="74"/>
			<point x="301" y="85"/>
			<point x="264" y="106" type="curve"/>
			<point x="570" y="543" type="line"/>
			<point x="620" y="497"/>
			<point x="649" y="424"/>
			<point x="649" y="341" type="curve" smooth="yes"/>
			<point x="649" y="237"/>
			<point x="606" y="155"/>
			<point x="531" y="109" type="curve" smooth="yes"/>
			<point x="494" y="86"/>
			<point x="449" y="74"/>
		</contour>
		<contour>
			<point x="396" y="721" type="curve" smooth="yes"/>
			<point x="405" y="721"/>
			<point x="413" y="725"/>
			<point x="419" y="731" type="curve"/>
			<point x="486" y="812" type="line"/>
			<point x="493" y="818"/>
			<point x="496" y="828"/>
			<point x="496" y="837" type="curve" smooth="yes"/>
			<point x="496" y="859"/>
			<point x="479" y="874"/>
			<point x="459" y="874" type="curve" smooth="yes"/>
			<point x="444" y="874"/>
			<point x="433" y="868"/>
			<point x="426" y="854" type="curve" smooth="yes"/>
			<point x="376" y="768" type="line" smooth="yes"/>
			<point x="372" y="761"/>
			<point x="369" y="755"/>
			<point x="369" y="748" type="curve" smooth="yes"/>
			<point x="369" y="731"/>
			<point x="381" y="721"/>
		</contour>
	</outline>
</glyph>
<glyph name="oslashacute" format="2">
	<advance width="594"/>
	<unicode hex="01FF"/>
	<anchor x="587" y="522" name="odot"/>
	<note>
		oslashacute
	</note>
	<outline>
		<contour>
			<point x="117" y="-31" type="curve" smooth="yes"/>
			<point x="126" y="-31"/>
			<point x="133" y="-28"/>
			<point x="139" y="-21" type="curve"/>
			<point x="167" y="21" type="line"/>
			<point x="206" y="-1"/>
			<point x="250" y="-11"/>
			<point x="297" y="-11" type="curve" smooth="yes"/>
			<point x="395" y="-11"/>
			<point x="474" y="33"/>
			<point x="517" y="114" type="curve" smooth="yes"/>
			<point x="538" y="154"/>
			<point x="548" y="199"/>
			<point x="548" y="249" type="curve" smooth="yes"/>
			<point x="548" y="330"/>
			<point x="520" y="400"/>
			<point x="467" y="447" type="curve"/>
			<point x="494" y="485" type="line" smooth="yes"/>
			<point x="498" y="492"/>
			<point x="500" y="498"/>
			<point x="500" y="503" type="curve" smooth="yes"/>
			<point x="500" y="516"/>
			<point x="489" y="527"/>
			<point x="475" y="527" type="curve" smooth="yes"/>
			<point x="466" y="527"/>
			<point x="459" y="524"/>
			<point x="453" y="518" type="curve"/>
			<point x="426" y="478" type="line"/>
			<point x="386" y="498"/>
			<point x="343" y="509"/>
			<point x="297" y="509" type="curve" smooth="yes"/>
			<point x="198" y="509"/>
			<point x="119" y="465"/>
			<point x="77" y="385" type="curve" smooth="yes"/>
			<point x="56" y="344"/>
			<point x="46" y="299"/>
			<point x="46" y="249" type="curve" smooth="yes"/>
			<point x="46" y="169"/>
			<point x="73" y="99"/>
			<point x="126" y="50" type="curve"/>
			<point x="98" y="11" type="line"/>
			<point x="94" y="4"/>
			<point x="92" y="-2"/>
			<point x="92" y="-7" type="curve" smooth="yes"/>
			<point x="92" y="-20"/>
			<point x="103" y="-31"/>
		</contour>
		<contour>
			<point x="178" y="124" type="line"/>
			<point x="150" y="154"/>
			<point x="137" y="195"/>
			<point x="137" y="250" type="curve" smooth="yes"/>
			<point x="137" y="331"/>
			<point x="172" y="384"/>
			<point x="220" y="408" type="curve" smooth="yes"/>
			<point x="244" y="420"/>
			<point x="270" y="426"/>
			<point x="297" y="426" type="curve" smooth="yes"/>
			<point x="324" y="426"/>
			<point x="350" y="420"/>
			<point x="376" y="406" type="curve"/>
		</contour>
		<contour>
			<point x="297" y="72" type="curve" smooth="yes"/>
			<point x="267" y="72"/>
			<point x="241" y="79"/>
			<point x="218" y="92" type="curve"/>
			<point x="416" y="374" type="line"/>
			<point x="443" y="343"/>
			<point x="457" y="302"/>
			<point x="457" y="250" type="curve" smooth="yes"/>
			<point x="457" y="168"/>
			<point x="422" y="115"/>
			<point x="374" y="91" type="curve" smooth="yes"/>
			<point x="351" y="79"/>
			<point x="325" y="72"/>
		</contour>
		<contour>
			<point x="297" y="553" type="curve" smooth="yes"/>
			<point x="306" y="553"/>
			<point x="313" y="557"/>
			<point x="319" y="563" type="curve" smooth="yes"/>
			<point x="387" y="644" type="line"/>
			<point x="394" y="650"/>
			<point x="396" y="660"/>
			<point x="396" y="669" type="curve" smooth="yes"/>
			<point x="396" y="691"/>
			<point x="380" y="706"/>
			<point x="359" y="706" type="curve" smooth="yes"/>
			<point x="345" y="706"/>
			<point x="333" y="700"/>
			<point x="326" y="687" type="curve" smooth="yes"/>
			<point x="276" y="600" type="line" smooth="yes"/>
			<point x="272" y="593"/>
			<point x="270" y="587"/>
			<point x="270" y="580" type="curve" smooth="yes"/>
			<point x="270" y="563"/>
			<point x="281" y="553"/>
		</contour>
	</outline>
</glyph>
<glyph name="Adblgrave" format="2">
	<advance width="729"/>
	<unicode hex="0200"/>
	<anchor x="362" y="0" name="bottom"/>
	<anchor x="565" y="711" name="odot"/>
	<anchor x="637" y="39" name="ogonek"/>
	<anchor x="365" y="687" name="top"/>
	<note>
		uni0200
	</note>
	<outline>
		<contour>
			<point x="93" y="-6" type="curve" smooth="yes"/>
			<point x="112" y="-6"/>
			<point x="128" y="5"/>
			<point x="136" y="22" type="curve" smooth="yes"/>
			<point x="199" y="174" type="line"/>
			<point x="529" y="174" type="line"/>
			<point x="593" y="22" type="line" smooth="yes"/>
			<point x="601" y="5"/>
			<point x="616" y="-6"/>
			<point x="636" y="-6" type="curve" smooth="yes"/>
			<point x="662" y="-6"/>
			<point x="681" y="15"/>
			<point x="681" y="39" type="curve" smooth="yes"/>
			<point x="681" y="44"/>
			<point x="679" y="51"/>
			<point x="676" y="59" type="curve" smooth="yes"/>
			<point x="427" y="646" type="line" smooth="yes"/>
			<point x="416" y="671"/>
			<point x="396" y="688"/>
			<point x="369" y="688" type="curve" smooth="yes"/>
			<point x="359" y="688" type="line" smooth="yes"/>
			<point x="332" y="688"/>
			<point x="313" y="671"/>
			<point x="302" y="646" type="curve" smooth="yes"/>
			<point x="53" y="59" type="line" smooth="yes"/>
			<point x="50" y="51"/>
			<point x="48" y="44"/>
			<point x="48" y="39" type="curve" smooth="yes"/>
			<point x="48" y="15"/>
			<point x="66" y="-6"/>
		</contour>
		<contour>
			<point x="233" y="257" type="line"/>
			<point x="356" y="553" type="line" smooth="yes"/>
			<point x="359" y="562"/>
			<point x="368" y="563"/>
			<point x="372" y="553" type="curve" smooth="yes"/>
			<point x="495" y="257" type="line"/>
		</contour>
		<contour>
			<point x="288" y="726" type="curve" smooth="yes"/>
			<point x="303" y="726"/>
			<point x="315" y="736"/>
			<point x="315" y="753" type="curve" smooth="yes"/>
			<point x="315" y="760"/>
			<point x="312" y="766"/>
			<point x="308" y="773" type="curve" smooth="yes"/>
			<point x="259" y="853" type="line" smooth="yes"/>
			<point x="251" y="867"/>
			<point x="239" y="873"/>
			<point x="223" y="873" type="curve" smooth="yes"/>
			<point x="204" y="873"/>
			<point x="188" y="860"/>
			<point x="188" y="842" type="curve" smooth="yes"/>
			<point x="188" y="833"/>
			<point x="192" y="824"/>
			<point x="198" y="817" type="curve" smooth="yes"/>
			<point x="265" y="736" type="line"/>
			<point x="271" y="730"/>
			<point x="279" y="726"/>
		</contour>
		<contour>
			<point x="438" y="726" type="curve" smooth="yes"/>
			<point x="454" y="726"/>
			<point x="465" y="736"/>
			<point x="465" y="753" type="curve" smooth="yes"/>
			<point x="465" y="760"/>
			<point x="463" y="766"/>
			<point x="459" y="773" type="curve" smooth="yes"/>
			<point x="409" y="854" type="line" smooth="yes"/>
			<point x="400" y="868"/>
			<point x="389" y="875"/>
			<point x="375" y="875" type="curve" smooth="yes"/>
			<point x="355" y="875"/>
			<point x="339" y="862"/>
			<point x="339" y="842" type="curve" smooth="yes"/>
			<point x="339" y="833"/>
			<point x="342" y="824"/>
			<point x="348" y="817" type="curve" smooth="yes"/>
			<point x="416" y="736" type="line" smooth="yes"/>
			<point x="422" y="730"/>
			<point x="429" y="726"/>
		</contour>
	</outline>
</glyph>
<glyph name="adblgrave" format="2">
	<advance width="549"/>
	<unicode hex="0201"/>
	<anchor x="272" y="0" name="bottom"/>
	<anchor x="538" y="522" name="odot"/>
	<anchor x="432" y="20" name="ogonek"/>
	<anchor x="272" y="508" name="top"/>
	<note>
		uni0201
	</note>
	<outline>
		<contour>
			<point x="204" y="-11" type="curve" smooth="yes"/>
			<point x="277" y="-11"/>
			<point x="339" y="13"/>
			<point x="387" y="63" type="curve"/>
			<point x="387" y="39" type="line" smooth="yes"/>
			<point x="387" y="15"/>
			<point x="407" y="-6"/>
			<point x="432" y="-6" type="curve" smooth="yes"/>
			<point x="456" y="-6"/>
			<point x="478" y="14"/>
			<point x="478" y="39" type="curve" smooth="yes"/>
			<point x="478" y="315" type="line" smooth="yes"/>
			<point x="478" y="383"/>
			<point x="449" y="445"/>
			<point x="388" y="481" type="curve" smooth="yes"/>
			<point x="355" y="500"/>
			<point x="317" y="509"/>
			<point x="272" y="509" type="curve" smooth="yes"/>
			<point x="215" y="509"/>
			<point x="158" y="497"/>
			<point x="104" y="474" type="curve" smooth="yes"/>
			<point x="87" y="467"/>
			<point x="77" y="454"/>
			<point x="77" y="436" type="curve" smooth="yes"/>
			<point x="77" y="415"/>
			<point x="95" y="397"/>
			<point x="114" y="397" type="curve" smooth="yes"/>
			<point x="117" y="397"/>
			<point x="122" y="398"/>
			<point x="127" y="399" type="curve"/>
			<point x="174" y="415"/>
			<point x="207" y="423"/>
			<point x="257" y="423" type="curve" smooth="yes"/>
			<point x="349" y="423"/>
			<point x="387" y="386"/>
			<point x="387" y="303" type="curve" smooth="yes"/>
			<point x="387" y="296" type="line"/>
			<point x="270" y="296" type="line" smooth="yes"/>
			<point x="127" y="296"/>
			<point x="44" y="238"/>
			<point x="44" y="137" type="curve" smooth="yes"/>
			<point x="44" y="78"/>
			<point x="75" y="30"/>
			<point x="125" y="7" type="curve" smooth="yes"/>
			<point x="149" y="-5"/>
			<point x="177" y="-11"/>
		</contour>
		<contour>
			<point x="237" y="69" type="curve" smooth="yes"/>
			<point x="163" y="69"/>
			<point x="135" y="100"/>
			<point x="135" y="146" type="curve" smooth="yes"/>
			<point x="135" y="197"/>
			<point x="183" y="223"/>
			<point x="281" y="223" type="curve" smooth="yes"/>
			<point x="387" y="223" type="line"/>
			<point x="387" y="142" type="line"/>
			<point x="351" y="101"/>
			<point x="295" y="69"/>
		</contour>
		<contour>
			<point x="195" y="547" type="curve" smooth="yes"/>
			<point x="210" y="547"/>
			<point x="222" y="557"/>
			<point x="222" y="574" type="curve" smooth="yes"/>
			<point x="222" y="581"/>
			<point x="219" y="587"/>
			<point x="215" y="594" type="curve" smooth="yes"/>
			<point x="165" y="678" type="line" smooth="yes"/>
			<point x="157" y="692"/>
			<point x="146" y="698"/>
			<point x="130" y="698" type="curve" smooth="yes"/>
			<point x="111" y="698"/>
			<point x="95" y="684"/>
			<point x="95" y="663" type="curve" smooth="yes"/>
			<point x="95" y="654"/>
			<point x="99" y="645"/>
			<point x="105" y="638" type="curve" smooth="yes"/>
			<point x="172" y="557" type="line"/>
			<point x="178" y="551"/>
			<point x="186" y="547"/>
		</contour>
		<contour>
			<point x="345" y="547" type="curve" smooth="yes"/>
			<point x="361" y="547"/>
			<point x="372" y="557"/>
			<point x="372" y="574" type="curve" smooth="yes"/>
			<point x="372" y="581"/>
			<point x="370" y="587"/>
			<point x="366" y="594" type="curve" smooth="yes"/>
			<point x="316" y="678" type="line" smooth="yes"/>
			<point x="307" y="692"/>
			<point x="296" y="698"/>
			<point x="281" y="698" type="curve" smooth="yes"/>
			<point x="261" y="698"/>
			<point x="246" y="684"/>
			<point x="246" y="663" type="curve" smooth="yes"/>
			<point x="246" y="654"/>
			<point x="249" y="645"/>
			<point x="255" y="638" type="curve" smooth="yes"/>
			<point x="323" y="557" type="line" smooth="yes"/>
			<point x="329" y="551"/>
			<point x="336" y="547"/>
		</contour>
	</outline>
</glyph>
<glyph name="idblgrave" format="2">
	<advance width="243"/>
	<unicode hex="0209"/>
	<anchor x="255" y="464" name="odot"/>
	<anchor x="121" y="503" name="top"/>
	<note>
		uni0209
	</note>
	<outline>
		<contour>
			<point x="121" y="-6" type="curve" smooth="yes"/>
			<point x="146" y="-6"/>
			<point x="167" y="14"/>
			<point x="167" y="39" type="curve" smooth="yes"/>
			<point x="167" y="458" type="line" smooth="yes"/>
			<point x="167" y="484"/>
			<point x="147" y="504"/>
			<point x="121" y="504" type="curve" smooth="yes"/>
			<point x="96" y="504"/>
			<point x="76" y="482"/>
			<point x="76" y="458" type="curve" smooth="yes"/>
			<point x="76" y="39" type="line" smooth="yes"/>
			<point x="76" y="15"/>
			<point x="97" y="-6"/>
		</contour>
		<contour>
			<point x="44" y="542" type="curve" smooth="yes"/>
			<point x="59" y="542"/>
			<point x="71" y="552"/>
			<point x="71" y="569" type="curve" smooth="yes"/>
			<point x="71" y="576"/>
			<point x="68" y="582"/>
			<point x="64" y="589" type="curve" smooth="yes"/>
			<point x="14" y="673" type="line" smooth="yes"/>
			<point x="6" y="687"/>
			<point x="-5" y="693"/>
			<point x="-21" y="693" type="curve" smooth="yes"/>
			<point x="-40" y="693"/>
			<point x="-56" y="679"/>
			<point x="-56" y="658" type="curve" smooth="yes"/>
			<point x="-56" y="649"/>
			<point x="-52" y="640"/>
			<point x="-46" y="633" type="curve" smooth="yes"/>
			<point x="21" y="552" type="line"/>
			<point x="27" y="546"/>
			<point x="35" y="542"/>
		</contour>
		<contour>
			<point x="194" y="542" type="curve" smooth="yes"/>
			<point x="210" y="542"/>
			<point x="221" y="552"/>
			<point x="221" y="569" type="curve" smooth="yes"/>
			<point x="221" y="576"/>
			<point x="219" y="582"/>
			<point x="215" y="589" type="curve" smooth="yes"/>
			<point x="165" y="673" type="line" smooth="yes"/>
			<point x="156" y="687"/>
			<point x="145" y="693"/>
			<point x="130" y="693" type="curve" smooth="yes"/>
			<point x="110" y="693"/>
			<point x="95" y="679"/>
			<point x="95" y="658" type="curve" smooth="yes"/>
			<point x="95" y="649"/>
			<point x="98" y="640"/>
			<point x="104" y="633" type="curve" smooth="yes"/>
			<point x="172" y="552" type="line" smooth="yes"/>
			<point x="178" y="546"/>
			<point x="185" y="542"/>
		</contour>
	</outline>
</glyph>
